<svg id="Layer_1" data-name="Layer 1" xmlns="http://www.w3.org/2000/svg" viewBox="0 0 1587.2 1470.56"><defs><style>.cls-1{fill:#ffff3c;}</style></defs><path d="M1456.41,1002.19c10.1,22.25,19.4,41.38,27.54,61,16.38,39.48,32.13,79.21,48.12,118.85.67,1.65,1.15,3.37,1.73,5.06,7.32,21.12,10.8,42.2-7,60s-39,14-60,6.6q-97.1-34-194.17-68.1c-4.12-1.44-8.35-2.55-14.48-4.4.39,5.48.38,9.28,1,13,10.18,66,20.56,132,30.52,198.11,1.92,12.73,3.36,25.73,3,38.56-1,37.93-35.38,57-66.55,35.49-22.94-15.85-44.09-34.8-64-54.43-40.07-39.5-86.94-69.33-134.29-98.69-1.09-.68-2.47-.89-5.44-1.91-1.85,4.75-4.07,9.36-5.46,14.21q-22.84,79.63-45.52,159.31c-2.45,8.54-4.8,17.24-8.5,25.27-6.38,13.85-17.09,22.88-33,23.44-16.51.57-28.42-7.91-35.14-22.18-5.26-11.18-8.22-23.46-12-35.3q-26.61-82.59-53.2-165.19c-1.33-4.13-3.53-8-5.77-13-3.2,2.28-5.88,3.71-8,5.74-47.86,46.6-95.84,93.08-143.37,140-15.55,15.36-31.52,29.18-55,20.59-23.11-8.44-29.64-28.9-30-50.7-1-57.88-.79-115.79-1-173.68,0-12.38,0-24.75,0-38.92-6.18,1-10.46,1.42-14.57,2.48-63.33,16.49-126.62,33.15-190,49.58-17.68,4.58-35.48,8.7-53.28,12.8-23,5.3-39-.07-48.05-15.87-8.88-15.47-5-32.6,11.56-49.16q74.76-74.55,149.67-148.92c2.78-2.76,5.37-5.71,9.36-10-4.67-1.19-7.76-2.35-10.94-2.73-61.92-7.41-123.86-14.63-185.76-22.16-11.47-1.4-23.07-3-34.13-6.17-38.84-11.1-49.94-49.53-20.62-77.36C225,909.29,253.24,888,281.22,866.7c23-17.5,47.52-33.07,71.31-49.57,2.4-1.66,4.45-3.82,8-6.89-5.35-2.36-9.24-4.12-13.17-5.8C292.43,781,237.37,758,182.74,734c-14.16-6.22-27.49-14.76-40.26-23.6-16.25-11.24-26.77-26.46-23.73-47.51,3.06-21.23,17.64-33.67,36.71-38,33.74-7.73,67.89-15.1,102.27-18.24,41.18-3.75,82.77-2.92,124.19-4,4.28-.12,8.58,0,15.69,0-3.66-6.49-5.46-10.92-8.3-14.54Q330.78,513.49,272,439.16c-7.18-9.08-15.32-17.47-21.84-27-18.92-27.59-7.06-59.29,26-63.43,28.51-3.57,57.78-2.46,86.63-1.41,52.09,1.89,104.12,5.29,156.17,8,2.17.12,4.35-.17,8.15-.35,0-3.71-.07-7.05,0-10.39,1.29-56.08,2.44-112.16,4.09-168.23a72.92,72.92,0,0,1,4.67-22.12c9.93-27.6,40.57-35,61.4-14.45,9.44,9.33,17.26,20.36,25.3,31,26,34.48,51.75,69.15,77.63,103.72,1,1.34,2.45,2.37,5.21,5,2.08-5.52,3.88-9.82,5.33-14.23,16.87-51.18,33.57-102.42,50.63-153.54,3.23-9.66,6.77-19.52,12-28.16,15.81-26.08,47.23-27.74,65.49-3.37a143.07,143.07,0,0,1,16.78,30.27C873.76,153.59,891.26,197,909,240.22c1.78,4.34,3.48,8.71,6.31,15.81,10.43-16.61,19.2-30.88,28.26-44.95,21-32.57,41.9-65.19,63.33-97.47A170.8,170.8,0,0,1,1028,87.8c27.42-27.49,63.27-21.3,79.19,14.25a166.37,166.37,0,0,1,12.09,42.2c4.8,31.23,7.93,62.71,11.7,94.1.58,4.78.9,9.58,1.49,16.11,4.26-1.85,7.3-3,10.22-4.47,67.89-33.4,135.71-67,203.75-100.09a146.27,146.27,0,0,1,30.3-10.29c46.47-11,79.28,18.74,69.34,65.23-5.9,27.63-16.79,54.3-26.7,80.94-6,16.09-14.39,31.27-22.37,48.26,9,0,16.33.53,23.58-.09,40.83-3.51,81.63-7.43,122.47-10.9,9.73-.83,19.66-1.47,29.32-.47,34.73,3.6,55,32.41,44.93,65.79-4.28,14.2-11.18,28.55-20.27,40.18-30.43,38.94-62.37,76.68-93.74,114.88-2.2,2.67-4.41,5.32-7.87,9.49,5.3,2.47,9.38,4.76,13.73,6.33q76,27.45,152.1,54.77c7.52,2.72,15.14,5.51,22.08,9.41,14.21,8,22.58,20.08,22.08,37s-9.83,28.51-24.57,35.29c-9.23,4.24-19.27,6.85-29.13,9.54-48.51,13.23-97.08,26.24-145.81,39.37.17,1.84-.16,3.4.47,4.28q64.25,90.33,128.61,180.56c3.1,4.35,6.15,8.75,9,13.27,9.4,14.81,13.1,30.45,4.47,46.77-8.89,16.84-24.34,23.5-42.38,22.65-38.7-1.82-77.36-4.67-116-7.18C1479.91,1004.27,1469.79,1003.29,1456.41,1002.19Zm-10.6,167.38c1-1.09,2.07-2.19,3.1-3.28-6.06-14.71-11.81-29.55-18.25-44.09-17.5-39.47-35.75-78.62-52.57-118.38-3.13-7.41-3.48-18-.75-25.46,4.5-12.38,12.4-23.55,19.17-35.05,6.43-10.89,15.9-16.29,28.9-15.41,26.21,1.78,52.44,3.3,78.67,4.87,14.29.85,28.6,1.58,45.2,2.49-3.2-5.81-4.41-8.63-6.15-11.08-35.54-50.1-69.32-101.59-107.48-149.61-19.5-24.54-15.08-46.87-6.28-70.66,2.83-7.66,12.7-15.39,20.93-17.89,30.21-9.17,61.09-16.12,91.67-24,3.4-.88,6.53-2.75,12.08-5.16L1544,652.52c-33.17-14.14-66.86-27.22-99.38-42.73-34.5-16.44-42.34-60.45-17.76-89.51q45.72-54.07,91-108.5c2.3-2.75,3.88-6.11,6.69-10.6-5.07-.27-7.68-.68-10.25-.51q-76,5-151.94,10.05c-39.91,2.7-67.16-37.29-49.8-73.07q24.79-51,49.25-102.25c1.87-3.93,2.53-8.43,4.39-14.9-6.68,2.57-10.55,3.66-14,5.46-64.54,33.15-129.47,65.58-193.23,100.16-17.41,9.44-33.2,13.5-51.77,7.88-3.39-1-7-1.4-10.47-2.09-25.91-5.09-31.94-11.2-34.53-37.86-2.11-21.71-2.87-43.55-4.71-65.28-1.46-17.27-3.65-34.48-5.52-51.71-7.25,5.71-11.29,11.49-15.08,17.43-26.86,42-54,83.86-80.29,126.27-10.25,16.57-23.33,25.05-42.95,22.72a114,114,0,0,0-16-1c-18.23.42-28.38-9.13-34.59-25.54-14.67-38.71-30-77.16-45.17-115.69-1.68-4.29-3.8-8.41-7.35-16.17-5.82,16.7-10.11,29.65-14.83,42.45-14.16,38.43-28,77-43.19,115-3.11,7.73-10.78,16-18.35,19-10.85,4.28-23.49,4.53-35.45,5.35-14.54,1-27.23-3.51-36.09-16q-21.63-30.51-43.28-61c-3.12-4.39-6.27-8.77-9.41-13.16l-3.78,1.46c.86,18,3,36,2.21,54-.86,19.38,1.1,42.07-8.18,57.16-14.3,23.25-35.43,44.25-68,41.94Q446.93,425.24,361.68,419c-3.25-.23-6.53,0-12.44,0,4.41,5.45,7.13,8.76,9.79,12.1,30.21,38,59.78,76.47,90.8,113.75,27.22,32.71,30.11,65.83,10,103.29-9.17,17.07-22.24,24.71-39.51,27.52-9.15,1.49-18.65.95-28,1.06-41,.49-82,.78-122.94,1.4-6.7.1-13.38,1.49-20.07,2.28,16.43,9.87,33.15,17,49.91,24,41.07,17.16,83.08,32.4,123,51.92,43,21,44.35,73.25,5,99.81C387.31,883,347.69,910.23,308,937.41c-3.27,2.24-6.18,5-11.48,9.3,24.39,2.67,45.17,4.95,66,7.2,43.35,4.7,86.61,10.83,130.08,13.41,19.79,1.17,33.16,7.35,42,24.43,2,4,4.37,7.77,6.44,11.71,14.72,28,13.23,40.87-9.07,63.17-27.72,27.73-56,54.87-84,82.32-3.18,3.12-6,6.61-11.37,12.61,6.58-1.37,9.15-1.82,11.68-2.44,35-8.63,70.47-15.8,104.89-26.33,37.11-11.34,64.62,1.2,89.65,27.47,10.19,10.69,16.11,21.6,15.88,36.47-.6,38.3-.61,76.62-.8,114.93-.08,14.34,0,28.68,0,45,4-3.22,6.5-4.91,8.63-7,32.07-30.92,63.77-62.23,96.23-92.74,40.55-38.12,29.38-39.47,94-26.36,11.21,2.28,18.69,7.6,23,17.85,10.48,25,21.1,50,31.3,75.18,4.79,11.81,8.76,24,14.46,39.71,3-8.53,4.68-13.36,6.42-18.17,10.3-28.44,21.21-56.69,30.74-85.39,8.39-25.28,24.3-39.37,51.42-40.28,5.7-.2,11.4-1.92,17-3.37,15.67-4.07,28,1.12,40.45,11,40.78,32.39,82.38,63.76,123.75,95.39,3.94,3,8.55,5.14,14.76,8.8-.35-5.1-.32-7.26-.67-9.36-6.82-40.82-12.21-82-21-122.36-7.92-36.44,4.18-62,34.11-81.87,13.41-8.89,26.46-13.23,42.58-7.82,44.74,15,89.74,29.2,134.6,43.85C1415.06,1158.83,1430.41,1164.3,1445.81,1169.57Z" transform="translate(-118.22 -62.95)"/><path class="cls-1" d="M1445.81,1169.57c-15.4-5.27-30.75-10.74-46.23-15.79-44.86-14.65-89.86-28.85-134.6-43.85-16.12-5.41-29.17-1.07-42.58,7.82-29.93,19.83-42,45.43-34.11,81.87,8.78,40.4,14.17,81.54,21,122.36.35,2.1.32,4.26.67,9.36-6.21-3.66-10.82-5.79-14.76-8.8-41.37-31.63-83-63-123.75-95.39-12.5-9.92-24.78-15.11-40.45-11-5.59,1.45-11.29,3.17-17,3.37-27.12.91-43,15-51.42,40.28-9.53,28.7-20.44,57-30.74,85.39-1.74,4.81-3.41,9.64-6.42,18.17-5.7-15.75-9.67-27.9-14.46-39.71-10.2-25.15-20.82-50.14-31.3-75.18-4.3-10.25-11.78-15.57-23-17.85-64.58-13.11-53.41-11.76-94,26.36-32.46,30.51-64.16,61.82-96.23,92.74-2.13,2-4.61,3.73-8.63,7,0-16.29-.07-30.63,0-45,.19-38.31.2-76.63.8-114.93.23-14.87-5.69-25.78-15.88-36.47-25-26.27-52.54-38.81-89.65-27.47-34.42,10.53-69.88,17.7-104.89,26.33-2.53.62-5.1,1.07-11.68,2.44,5.38-6,8.19-9.49,11.37-12.61,28-27.45,56.3-54.59,84-82.32,22.3-22.3,23.79-35.14,9.07-63.17-2.07-3.94-4.39-7.76-6.44-11.71-8.85-17.08-22.22-23.26-42-24.43-43.47-2.58-86.73-8.71-130.08-13.41-20.79-2.25-41.57-4.53-66-7.2,5.3-4.32,8.21-7.06,11.48-9.3,39.68-27.18,79.3-54.45,119.17-81.35,39.38-26.56,38-78.8-5-99.81-39.92-19.52-81.93-34.76-123-51.92-16.76-7-33.48-14.12-49.91-24,6.69-.79,13.37-2.18,20.07-2.28,41-.62,82-.91,122.94-1.4,9.35-.11,18.85.43,28-1.06,17.27-2.81,30.34-10.45,39.51-27.52,20.12-37.46,17.23-70.58-10-103.29C418.81,507.51,389.24,469,359,431c-2.66-3.34-5.38-6.65-9.79-12.1,5.91,0,9.19-.2,12.44,0q85.26,6.13,170.51,12.34c32.55,2.31,53.68-18.69,68-41.94,9.28-15.09,7.32-37.78,8.18-57.16.8-17.93-1.35-36-2.21-54l3.78-1.46c3.14,4.39,6.29,8.77,9.41,13.16q21.64,30.49,43.28,61c8.86,12.5,21.55,17,36.09,16,12-.82,24.6-1.07,35.45-5.35,7.57-3,15.24-11.27,18.35-19,15.24-38,29-76.58,43.19-115,4.72-12.8,9-25.75,14.83-42.45,3.55,7.76,5.67,11.88,7.35,16.17C833,239.82,848.37,278.27,863,317c6.21,16.41,16.36,26,34.59,25.54a114,114,0,0,1,16,1c19.62,2.33,32.7-6.15,42.95-22.72,26.24-42.41,53.43-84.24,80.29-126.27,3.79-5.94,7.83-11.72,15.08-17.43,1.87,17.23,4.06,34.44,5.52,51.71,1.84,21.73,2.6,43.57,4.71,65.28,2.59,26.66,8.62,32.77,34.53,37.86,3.5.69,7.08,1.06,10.47,2.09,18.57,5.62,34.36,1.56,51.77-7.88,63.76-34.58,128.69-67,193.23-100.16,3.5-1.8,7.37-2.89,14-5.46-1.86,6.47-2.52,11-4.39,14.9q-24.42,51.21-49.25,102.25c-17.36,35.78,9.89,75.77,49.8,73.07q76-5.13,151.94-10.05c2.57-.17,5.18.24,10.25.51-2.81,4.49-4.39,7.85-6.69,10.6q-45.42,54.35-91,108.5c-24.58,29.06-16.74,73.07,17.76,89.51,32.52,15.51,66.21,28.59,99.38,42.73l10.07,4.29c-5.55,2.41-8.68,4.28-12.08,5.16-30.58,7.93-61.46,14.88-91.67,24-8.23,2.5-18.1,10.23-20.93,17.89-8.8,23.79-13.22,46.12,6.28,70.66,38.16,48,71.94,99.51,107.48,149.61,1.74,2.45,2.95,5.27,6.15,11.08-16.6-.91-30.91-1.64-45.2-2.49-26.23-1.57-52.46-3.09-78.67-4.87-13-.88-22.47,4.52-28.9,15.41-6.77,11.5-14.67,22.67-19.17,35.05-2.73,7.51-2.38,18,.75,25.46,16.82,39.76,35.07,78.91,52.57,118.38,6.44,14.54,12.19,29.38,18.25,44.09C1447.88,1167.38,1446.85,1168.48,1445.81,1169.57ZM745.5,645.79l3.88-1.86c2.79,3.16,5.72,6.22,8.36,9.52,12.81,16,25.45,32.08,38.33,48,26.61,32.9,26.57,32.68,64.84,14.93,12.78-5.92,18.12-15.07,15.75-28.83q-4.06-23.67-8.18-47.34-15-86.13-30.07-172.25c-3.06-17.41-14.77-23.61-31.32-16.73-7.4,3.07-14.75,6.26-22,9.63-16.23,7.52-20.18,15.28-16.72,33,4.17,21.4,8.65,42.74,12.72,64.16,1,5.25.89,10.71,1.29,16.07a26,26,0,0,1-11.28-8.87c-14.28-18.21-28-36.87-43-54.51-4.8-5.67-12.38-11.58-19.28-12.4-29.74-3.51-52.37,22.33-46.78,51.15,4.79,24.74,8.83,49.62,13.2,74.44a22.36,22.36,0,0,1-11.81-8.41c-13.14-17.41-26.09-35-39.11-52.46-14.72-19.81-20.41-21.37-42.66-11.67-6.53,2.85-13.17,5.49-19.5,8.74-14.11,7.23-17.43,19.37-7.69,31.94Q624,681.74,694.17,771c7.7,9.83,18.15,11.89,28.68,6.36,14.92-7.82,36.4-8.3,38.53-31.74a21.3,21.3,0,0,0-.59-5.29c-1.8-11-3.68-21.94-5.45-32.92Q750.38,676.6,745.5,645.79Zm105.59,364.65c-1.48-7.06-2.47-9.84-2.6-12.66-.93-20.91-1.82-41.82-2.49-62.73-1.32-41.72-4-44.84-44.63-51.31-.44-.07-.89-.13-1.32-.21-11.56-2-20.13,2.26-25.45,12.58-5.09,9.9-9.8,20-14.67,30q-40.06,82.23-80.12,164.46c-9.13,18.77-4,29.17,16.55,34,6.06,1.43,12.21,2.48,18.29,3.87,18.4,4.2,26.13.51,34.1-16.62,9.38-20.18,18.61-40.43,28-60.58,1.66-3.53,4-6.72,8.13-13.41,1.14,6.92,1.8,9.41,1.91,11.92,1.09,24.47,2.07,48.93,3.1,73.4.66,15.73,6.11,22.26,21.61,25.83,5.64,1.3,11.3,2.56,17,3.63,16.8,3.18,23.84,0,31.38-15.21,10.71-21.52,21-43.24,31.64-64.8,1.49-3,3.87-5.64,5.84-8.45l3.85,1.31c0,23.94-.12,47.88,0,71.83.18,26.5,3.47,30.56,28.66,36.49,5.2,1.23,10.41,2.43,15.65,3.47,19,3.76,28.17-3.64,27.54-23.09-2.14-65.85-4.23-131.71-7-197.54-1.65-39.44-3-40-42.33-47-14-2.5-23.27,1.91-29.43,14.44-11.59,23.57-23.37,47-35.1,70.53C857.24,998.7,855.07,1002.76,851.09,1010.44Zm246.46-112.78-3.84.47c-1.57-3.56-3.23-7.07-4.69-10.67q-13.56-33.37-27-66.8c-4.22-10.39-11.56-17.63-23.15-16.75a193.21,193.21,0,0,0-34.1,6.09c-13.76,3.63-18.83,13.74-13.37,26.61q43,101.4,86.5,202.57c4.45,10.38,12.42,17.36,24.05,14.82,16.08-3.52,36.15,1.6,45.39-18.66a21.45,21.45,0,0,0,1.47-6.49c1.07-9.72,2-19.46,3-29.2q3.32-33.51,6.61-67a17.54,17.54,0,0,1,7.52,8.67c8.84,19.94,17.86,39.8,26.3,59.91,16.63,39.65,19.59,35.87,54.63,29.76,17.25-3,22.84-8.1,24.76-26,1.82-16.81,2.91-33.69,4.32-50.55,4.59-54.53,9.45-109,13.43-163.63.46-6.29-2.15-14.67-6.43-19.1-11.15-11.55-57.05-.69-63.16,14.08a25.1,25.1,0,0,0-1.71,7.76c-1.25,17.31-2.35,34.63-3.49,51.94q-1.11,16.83-2.23,33.65a16.37,16.37,0,0,1-8.06-8.67c-8.33-19.18-16.55-38.4-24.8-57.61-12-28-13.93-29.06-44.16-24.58-25.51,3.79-30.51,9.91-31.93,35.43C1102,848.42,1099.54,873,1097.55,897.66ZM919.22,567.84c.95,51.72,25.74,100.93,62.47,130.09a114.44,114.44,0,0,0,172.08-35.25c17.15-31.67,15.24-64.33,2.38-96.76-5.42-13.66-16.3-16.93-29.29-10.12-8.27,4.34-16.48,8.84-24.37,13.83-8.39,5.31-11.68,13-8.84,23a103.47,103.47,0,0,1,2.6,11.7c3.06,18.5-2.63,33.69-18.56,43.82-15.17,9.63-31.1,8-45.26-1.87-25.4-17.72-40.61-42.33-42.94-73.48-1.38-18.37,4.48-34.2,22.39-43.45,18.26-9.43,34.24-7.89,50.51,5.72,5.65,4.73,16.68,6.43,24.16,4.73,9.6-2.18,18.46-8.63,27-14.25,10.89-7.21,13-18.46,4.62-28.75-7.52-9.17-16-18.25-25.88-24.69-37.65-24.64-76.28-20.24-113.87.13C938.3,494,919.94,529.12,919.22,567.84Z" transform="translate(-118.22 -62.95)"/><path d="M745.5,645.79q4.92,30.8,9.84,61.59c1.77,11,3.65,22,5.45,32.92a21.3,21.3,0,0,1,.59,5.29c-2.13,23.44-23.61,23.92-38.53,31.74-10.53,5.53-21,3.47-28.68-6.36q-70-89.37-139.7-178.93c-9.74-12.57-6.42-24.71,7.69-31.94,6.33-3.25,13-5.89,19.5-8.74,22.25-9.7,27.94-8.14,42.66,11.67,13,17.5,26,35.05,39.11,52.46a22.36,22.36,0,0,0,11.81,8.41c-4.37-24.82-8.41-49.7-13.2-74.44-5.59-28.82,17-54.66,46.78-51.15,6.9.82,14.48,6.73,19.28,12.4,15,17.64,28.7,36.3,43,54.51a26,26,0,0,0,11.28,8.87c-.4-5.36-.3-10.82-1.29-16.07-4.07-21.42-8.55-42.76-12.72-64.16-3.46-17.72.49-25.48,16.72-33,7.27-3.37,14.62-6.56,22-9.63,16.55-6.88,28.26-.68,31.32,16.73q15.12,86.12,30.07,172.25,4.13,23.65,8.18,47.34c2.37,13.76-3,22.91-15.75,28.83-38.27,17.75-38.23,18-64.84-14.93-12.88-15.92-25.52-32-38.33-48-2.64-3.3-5.57-6.36-8.36-9.52Z" transform="translate(-118.22 -62.95)"/><path d="M851.09,1010.44c4-7.68,6.15-11.74,8.2-15.85,11.73-23.5,23.51-47,35.1-70.53,6.16-12.53,15.43-16.94,29.43-14.44,39.31,7,40.68,7.55,42.33,47,2.75,65.83,4.84,131.69,7,197.54.63,19.45-8.53,26.85-27.54,23.09-5.24-1-10.45-2.24-15.65-3.47-25.19-5.93-28.48-10-28.66-36.49-.16-24,0-47.89,0-71.83l-3.85-1.31c-2,2.81-4.35,5.41-5.84,8.45-10.63,21.56-20.93,43.28-31.64,64.8-7.54,15.16-14.58,18.39-31.38,15.21-5.68-1.07-11.34-2.33-17-3.63-15.5-3.57-20.95-10.1-21.61-25.83-1-24.47-2-48.93-3.1-73.4-.11-2.51-.77-5-1.91-11.92-4.09,6.69-6.47,9.88-8.13,13.41-9.44,20.15-18.67,40.4-28,60.58-8,17.13-15.7,20.82-34.1,16.62-6.08-1.39-12.23-2.44-18.29-3.87-20.56-4.83-25.68-15.23-16.55-34q40-82.26,80.12-164.46c4.87-10,9.58-20.09,14.67-30,5.32-10.32,13.89-14.6,25.45-12.58.43.08.88.14,1.32.21,40.67,6.47,43.31,9.59,44.63,51.31.67,20.91,1.56,41.82,2.49,62.73C848.62,1000.6,849.61,1003.38,851.09,1010.44Z" transform="translate(-118.22 -62.95)"/><path d="M1097.55,897.66c2-24.63,4.45-49.24,5.82-73.9,1.42-25.52,6.42-31.64,31.93-35.43,30.23-4.48,32.14-3.41,44.16,24.58,8.25,19.21,16.47,38.43,24.8,57.61a16.37,16.37,0,0,0,8.06,8.67q1.13-16.82,2.23-33.65c1.14-17.31,2.24-34.63,3.49-51.94a25.1,25.1,0,0,1,1.71-7.76c6.11-14.77,52-25.63,63.16-14.08,4.28,4.43,6.89,12.81,6.43,19.1-4,54.58-8.84,109.1-13.43,163.63-1.41,16.86-2.5,33.74-4.32,50.55-1.92,17.85-7.51,22.94-24.76,26-35,6.11-38,9.89-54.63-29.76-8.44-20.11-17.46-40-26.3-59.91a17.54,17.54,0,0,0-7.52-8.67q-3.32,33.5-6.61,67c-1,9.74-1.93,19.48-3,29.2a21.45,21.45,0,0,1-1.47,6.49c-9.24,20.26-29.31,15.14-45.39,18.66-11.63,2.54-19.6-4.44-24.05-14.82Q1034.44,938,991.36,836.61c-5.46-12.87-.39-23,13.37-26.61a193.21,193.21,0,0,1,34.1-6.09c11.59-.88,18.93,6.36,23.15,16.75q13.55,33.39,27,66.8c1.46,3.6,3.12,7.11,4.69,10.67Z" transform="translate(-118.22 -62.95)"/><path d="M919.22,567.84c.72-38.72,19.08-73.89,59.17-95.63,37.59-20.37,76.22-24.77,113.87-.13,9.84,6.44,18.36,15.52,25.88,24.69,8.43,10.29,6.27,21.54-4.62,28.75-8.51,5.62-17.37,12.07-27,14.25-7.48,1.7-18.51,0-24.16-4.73-16.27-13.61-32.25-15.15-50.51-5.72-17.91,9.25-23.77,25.08-22.39,43.45,2.33,31.15,17.54,55.76,42.94,73.48,14.16,9.88,30.09,11.5,45.26,1.87,15.93-10.13,21.62-25.32,18.56-43.82a103.47,103.47,0,0,0-2.6-11.7c-2.84-10,.45-17.66,8.84-23,7.89-5,16.1-9.49,24.37-13.83,13-6.81,23.87-3.54,29.29,10.12,12.86,32.43,14.77,65.09-2.38,96.76a114.44,114.44,0,0,1-172.08,35.25C945,668.77,920.17,619.56,919.22,567.84Z" transform="translate(-118.22 -62.95)"/></svg>