<svg width="4022" height="1286" viewBox="0 0 4022 1286" fill="none" xmlns="http://www.w3.org/2000/svg">
<g clip-path="url(#clip0_1_285)">
<path d="M187.319 20.9101C202.688 21.3483 217.381 27.3204 228.696 37.7279C241.089 47.5902 250.263 60.9197 255.048 76.0163L331.579 412.372C345.67 355.528 359.687 299.282 373.629 243.634C387.571 187.985 401.587 131.739 415.679 74.8952C420.38 59.9432 429.583 46.8067 442.03 37.2794C453.471 27.1402 468.124 21.3633 483.407 20.9661H591.336C606.621 21.3537 621.277 27.1319 632.713 37.2794C645.16 46.8067 654.363 59.9432 659.064 74.8952L743.164 412.372C755.723 356.313 768.488 300.253 781.458 244.194C794.428 188.135 807.174 132.076 819.695 76.0163C824.499 60.9287 833.669 47.6042 846.047 37.7279C857.382 27.3166 872.094 21.3449 887.48 20.9101H1004.15C1028.49 20.9101 1047.31 29.4871 1060.61 46.6413C1067.21 55.1436 1071.68 65.1048 1073.63 75.6885C1075.58 86.2723 1074.96 97.1696 1071.83 107.466L879.743 876.487C875.125 891.312 865.893 904.275 853.391 913.486C841.781 923.3 827.158 928.84 811.958 929.183H700.329C685.146 928.841 670.541 923.3 658.952 913.486C646.451 904.275 637.218 891.312 632.601 876.487L537.287 510.196C521.477 572.085 505.797 633.134 490.248 693.341C474.698 753.549 458.645 814.597 442.086 876.487C437.469 891.312 428.236 904.275 415.735 913.486C404.125 923.3 389.501 928.84 374.302 929.183H262.561C247.378 928.841 232.772 923.3 221.184 913.486C208.665 904.291 199.428 891.322 194.832 876.487L2.85982 107.466C-0.238675 97.1574 -0.818052 86.2562 1.17035 75.6777C3.15875 65.0992 7.65686 55.1522 14.2869 46.6721C20.917 38.192 29.4854 31.4265 39.2725 26.9437C49.0596 22.4609 59.7797 20.3918 70.5323 20.9101H187.319Z" fill="black"/>
<path d="M1339.04 463.33C1338.36 501.427 1343.02 539.43 1352.89 576.234C1360.36 604.424 1372.9 631.018 1389.89 654.717C1403.72 673.816 1421.75 689.486 1442.6 700.517C1461.37 710.346 1482.23 715.518 1503.43 715.597C1523.16 715.852 1542.73 712.086 1560.96 704.53C1579.19 696.974 1595.69 685.786 1609.45 671.647C1622.4 658.274 1633 642.807 1640.79 625.902C1648.68 609.023 1653.97 591.05 1656.49 572.59C1657.34 564.295 1659.82 556.251 1663.81 548.927C1667.79 541.602 1673.2 535.144 1679.7 529.929C1692.31 518.662 1708.6 512.4 1725.51 512.326H1828.39C1838.27 511.938 1848.11 513.829 1857.14 517.854C1866.17 521.879 1874.16 527.928 1880.48 535.535C1886.91 543.235 1891.63 552.216 1894.33 561.881C1897.03 571.547 1897.64 581.675 1896.12 591.594C1889.81 640.26 1876.3 687.719 1856.03 732.415C1836.86 775.055 1810.01 813.802 1776.81 846.72C1743.06 879.67 1703.02 905.485 1659.07 922.624C1609.34 941.518 1556.45 950.709 1503.26 949.701C1444.28 950.596 1385.75 939.278 1331.36 916.457C1281.11 894.975 1236.47 862.235 1200.89 820.764C1163.16 775.819 1134.8 723.785 1117.46 667.722C1097.84 607.515 1088.01 539.365 1087.97 463.274C1087.81 404.629 1097.28 346.355 1116.01 290.78C1133.94 236.746 1161.65 186.466 1197.75 142.447C1233.55 99.2121 1278.01 63.9592 1328.28 38.9614C1379.74 13.0247 1438.09 0.0562714 1503.32 0.0562714C1555.61 -0.498929 1607.61 7.84202 1657.11 24.7224C1700.86 39.5832 1741.5 62.3887 1776.98 91.9935C1810.21 120.086 1837.69 154.353 1857.88 192.9C1878.4 232.24 1891.69 274.943 1897.13 318.978C1898.52 327.742 1898.17 336.696 1896.09 345.323C1894.01 353.951 1890.24 362.081 1885 369.246C1879.76 376.411 1873.16 382.469 1865.57 387.07C1857.98 391.672 1849.56 394.727 1840.78 396.059C1836.62 396.666 1832.42 396.91 1828.22 396.788H1725.51C1710.33 396.419 1695.73 390.882 1684.13 381.091C1671.63 371.88 1662.4 358.917 1657.78 344.092C1648.55 306.42 1630.76 278.596 1604.4 260.62C1578.05 242.644 1544.41 233.655 1503.48 233.655C1479.57 233.331 1456.07 239.868 1435.76 252.491C1415.16 265.619 1397.45 282.782 1383.67 302.945C1368.47 325.14 1357.22 349.795 1350.42 375.822C1342.79 404.362 1338.96 433.787 1339.04 463.33Z" fill="black"/>
<path d="M3134.52 20.9104C3149.91 21.3352 3164.62 27.3082 3175.95 37.7282C3188.35 47.5905 3197.52 60.92 3202.3 76.0167L3278.84 412.372C3292.96 355.491 3306.98 299.151 3320.89 243.354C3334.79 187.556 3348.79 131.31 3362.88 74.6152C3367.58 59.6633 3376.78 46.5268 3389.23 36.9994C3400.69 26.7546 3415.41 20.8962 3430.78 20.4619H3538.65C3553.98 21.0116 3568.62 26.9695 3579.97 37.2797C3592.42 46.8071 3601.62 59.9436 3606.32 74.8955L3690.42 412.372C3702.98 356.313 3715.74 300.254 3728.71 244.195C3741.68 188.135 3754.43 132.076 3766.95 76.0167C3771.74 60.92 3780.91 47.5905 3793.3 37.7282C3804.64 27.3169 3819.35 21.3452 3834.74 20.9104H3951.41C3962.17 20.3828 3972.9 22.445 3982.69 26.9238C3992.48 31.4026 4001.06 38.167 4007.7 46.6484C4014.33 55.1298 4018.84 65.0803 4020.83 75.6634C4022.82 86.2465 4022.24 97.153 4019.14 107.466L3827 876.487C3822.43 891.333 3813.18 904.309 3800.65 913.486C3789.06 923.309 3774.46 928.851 3759.27 929.183H3647.59C3632.4 928.841 3617.8 923.301 3606.21 913.486C3593.69 904.292 3584.45 891.323 3579.86 876.487L3484.54 510.196C3468.62 572.085 3452.94 633.134 3437.5 693.341C3422.07 753.549 3405.96 814.598 3389.17 876.487C3384.56 891.312 3375.33 904.275 3362.82 913.486C3351.24 923.301 3336.63 928.841 3321.45 929.183H3209.82C3194.63 928.841 3180.03 923.301 3168.44 913.486C3155.92 904.292 3146.68 891.323 3142.09 876.487L2950.12 107.466C2947.02 97.1577 2946.44 86.2566 2948.43 75.678C2950.42 65.0995 2954.91 55.1525 2961.54 46.6724C2968.17 38.1924 2976.74 31.4268 2986.53 26.944C2996.32 22.4612 3007.04 20.3921 3017.79 20.9104H3134.52Z" fill="black"/>
<path d="M2799.47 929.799C2784.1 929.361 2769.4 923.389 2758.09 912.981C2745.7 903.141 2736.52 889.829 2731.74 874.749L2655.21 538.393C2640.97 595.312 2626.95 651.558 2613.16 707.131C2599.36 762.705 2585.35 818.951 2571.11 875.87C2566.45 890.843 2557.24 903.992 2544.75 913.486C2533.32 923.633 2518.66 929.411 2503.38 929.799H2395.45C2380.25 929.326 2365.69 923.555 2354.3 913.486C2341.85 903.958 2332.65 890.822 2327.94 875.87L2243.84 538.393C2231.29 594.452 2218.52 650.512 2205.55 706.571C2192.58 762.63 2179.82 818.689 2167.26 874.749C2162.49 889.825 2153.34 903.138 2140.96 912.981C2129.65 923.423 2114.92 929.399 2099.53 929.799H1982.91C1972.13 930.393 1961.37 928.371 1951.55 923.905C1941.72 919.439 1933.12 912.662 1926.49 904.152C1919.85 895.642 1915.37 885.653 1913.43 875.037C1911.49 864.421 1912.15 853.493 1915.35 843.187L2107.1 74.2221C2111.72 59.3971 2120.95 46.4342 2133.45 37.223C2145.06 27.4086 2159.68 21.8687 2174.88 21.5264H2286.51C2301.71 21.8687 2316.33 27.4086 2327.94 37.223C2340.46 46.4175 2349.7 59.3865 2354.3 74.2221L2449.61 440.57C2465.5 378.68 2481.18 317.613 2496.65 257.368C2512.12 197.123 2528.22 136.074 2544.92 74.2221C2549.54 59.3971 2558.77 46.4342 2571.27 37.223C2582.88 27.4086 2597.51 21.8687 2612.71 21.5264H2724.34C2739.52 21.8679 2754.13 27.4087 2765.71 37.223C2778.25 46.4005 2787.49 59.3758 2792.06 74.2221L2983.93 843.187C2987.04 853.495 2987.65 864.397 2985.7 874.986C2983.75 885.576 2979.29 895.546 2972.71 904.068C2959.37 921.147 2940.53 929.705 2916.2 929.743L2799.47 929.799Z" fill="black"/>
<path d="M233.238 1078.3C237.388 1078.34 241.355 1080.01 244.29 1082.95C247.224 1085.88 248.892 1089.85 248.936 1094V1229.44H316.777C318.848 1229.38 320.909 1229.74 322.836 1230.51C324.763 1231.27 326.516 1232.41 327.99 1233.87C329.515 1235.3 330.717 1237.04 331.52 1238.97C332.322 1240.9 332.705 1242.99 332.644 1245.08V1265.82C332.6 1269.97 330.932 1273.94 327.997 1276.87C325.063 1279.8 321.095 1281.47 316.945 1281.52H210.418C206.264 1281.49 202.288 1279.82 199.35 1276.89C196.412 1273.95 194.749 1269.97 194.72 1265.82V1094C194.749 1089.84 196.412 1085.87 199.35 1082.93C202.288 1079.99 206.264 1078.33 210.418 1078.3H233.238Z" fill="black"/>
<path d="M381.253 1078.3C385.403 1078.34 389.371 1080.01 392.305 1082.95C395.24 1085.88 396.908 1089.85 396.952 1094V1265.59C396.908 1269.74 395.24 1273.71 392.305 1276.65C389.371 1279.58 385.403 1281.25 381.253 1281.29H358.322C354.167 1281.26 350.191 1279.6 347.254 1276.66C344.316 1273.72 342.652 1269.75 342.623 1265.59V1094C342.652 1089.84 344.316 1085.87 347.254 1082.93C350.191 1079.99 354.167 1078.33 358.322 1078.3H381.253Z" fill="black"/>
<path d="M454.981 1193C459.135 1193.09 463.088 1194.81 465.984 1197.79C468.88 1200.76 470.486 1204.76 470.456 1208.92C470.345 1212.27 470.909 1215.61 472.113 1218.74C473.316 1221.87 475.136 1224.72 477.464 1227.14C479.908 1229.6 482.843 1231.53 486.079 1232.78C489.315 1234.04 492.779 1234.6 496.246 1234.43C501.965 1234.55 507.661 1233.66 513.066 1231.79C515.21 1231.18 517.084 1229.86 518.386 1228.05C519.688 1226.24 520.342 1224.04 520.243 1221.81C520.252 1220.38 519.968 1218.96 519.409 1217.64C518.85 1216.32 518.027 1215.12 516.991 1214.13C514.626 1211.76 511.828 1209.85 508.749 1208.53C505.133 1206.92 501.38 1205.65 497.536 1204.71C493.555 1203.71 489.743 1202.81 486.323 1202.02C477.972 1200.18 469.808 1197.57 461.934 1194.23C454.405 1190.85 447.43 1186.35 441.245 1180.89C435.011 1175.49 429.954 1168.87 426.387 1161.44C422.468 1152.9 420.55 1143.58 420.781 1134.19C420.607 1125.16 422.77 1116.24 427.06 1108.29C431.163 1100.84 436.801 1094.34 443.6 1089.23C450.674 1083.96 458.655 1080.03 467.148 1077.63C476.123 1074.99 485.434 1073.67 494.789 1073.7C507.383 1073.27 519.92 1075.6 531.512 1080.54C540.417 1084.53 548.311 1090.47 554.612 1097.92C560.14 1104.57 564.209 1112.3 566.554 1120.63C568.697 1128.06 569.829 1135.76 569.918 1143.5C569.874 1147.65 568.206 1151.61 565.272 1154.55C562.337 1157.48 558.369 1159.15 554.219 1159.19H531.232C530.114 1159.31 528.986 1159.31 527.868 1159.19C534.282 1161.74 540.471 1164.81 546.37 1168.39C552.025 1171.87 557.08 1176.24 561.34 1181.34C565.635 1186.52 569.01 1192.4 571.32 1198.72C573.84 1205.92 575.073 1213.51 574.964 1221.14C575.345 1231.3 573.429 1241.42 569.357 1250.74C565.586 1258.66 559.949 1265.55 552.93 1270.81C545.497 1276.22 537.078 1280.12 528.148 1282.3C517.871 1284.79 507.325 1285.99 496.751 1285.89C486.434 1285.93 476.201 1284.02 466.587 1280.28C457.165 1276.72 448.507 1271.39 441.077 1264.59C433.593 1257.74 427.55 1249.47 423.304 1240.26C418.731 1230.31 416.433 1219.47 416.576 1208.53C416.59 1204.37 418.251 1200.4 421.193 1197.46C424.136 1194.53 428.12 1192.89 432.274 1192.89L454.981 1193ZM504.6 1151.79L513.963 1154.43C517.047 1155.27 520.187 1156.28 523.383 1157.4C520.974 1156.03 518.992 1154.03 517.655 1151.6C516.319 1149.18 515.682 1146.43 515.814 1143.67C515.965 1141.05 515.453 1138.44 514.326 1136.08C513.198 1133.72 511.492 1131.68 509.366 1130.16C505.083 1127.21 499.989 1125.66 494.789 1125.73C490.24 1125.66 485.706 1126.27 481.333 1127.52C477.184 1128.75 475.165 1130.94 475.165 1134.14C475.124 1135.43 475.352 1136.73 475.834 1137.93C476.317 1139.14 477.043 1140.23 477.969 1141.14C480.03 1143.14 482.444 1144.74 485.089 1145.85C488.17 1147.24 491.357 1148.39 494.62 1149.27L504.6 1151.79Z" fill="black"/>
<path d="M738.118 1078.3C742.268 1078.34 746.235 1080.01 749.17 1082.95C752.105 1085.88 753.773 1089.85 753.816 1094V1114.74C753.787 1118.89 752.124 1122.87 749.186 1125.81C746.248 1128.74 742.272 1130.41 738.118 1130.44H698.871V1265.59C698.827 1269.74 697.159 1273.71 694.225 1276.65C691.29 1279.58 687.322 1281.25 683.172 1281.29H660.185C656.031 1281.26 652.055 1279.6 649.117 1276.66C646.179 1273.72 644.516 1269.75 644.486 1265.59V1130.44H605.24C601.076 1130.44 597.083 1128.78 594.139 1125.84C591.195 1122.89 589.541 1118.9 589.541 1114.74V1094C589.57 1089.84 591.234 1085.87 594.172 1082.93C597.109 1079.99 601.085 1078.33 605.24 1078.3H738.118Z" fill="black"/>
<path d="M902.674 1078.3C906.824 1078.34 910.791 1080.01 913.726 1082.95C916.66 1085.88 918.328 1089.85 918.372 1094V1114.74C918.343 1118.89 916.68 1122.87 913.742 1125.81C910.804 1128.74 906.828 1130.41 902.674 1130.44H825.021V1150.95H897.347C899.378 1150.93 901.393 1151.31 903.274 1152.08C905.155 1152.85 906.864 1153.98 908.3 1155.42C909.736 1156.85 910.871 1158.56 911.638 1160.44C912.405 1162.32 912.788 1164.34 912.766 1166.37V1187.11C912.811 1189.19 912.437 1191.25 911.667 1193.18C910.896 1195.1 909.744 1196.85 908.28 1198.32C906.846 1199.85 905.106 1201.05 903.173 1201.85C901.24 1202.65 899.159 1203.04 897.067 1202.98H824.741V1229.6H906.598C908.669 1229.55 910.731 1229.91 912.658 1230.67C914.585 1231.43 916.338 1232.58 917.812 1234.03C919.336 1235.47 920.539 1237.21 921.341 1239.14C922.143 1241.07 922.526 1243.15 922.465 1245.25V1265.99C922.421 1270.14 920.753 1274.1 917.819 1277.04C914.884 1279.97 910.916 1281.64 906.766 1281.68H786.223C782.069 1281.65 778.093 1279.99 775.155 1277.05C772.217 1274.12 770.554 1270.14 770.524 1265.99V1094C770.554 1089.84 772.217 1085.87 775.155 1082.93C778.093 1079.99 782.069 1078.33 786.223 1078.3H902.674Z" fill="black"/>
<path d="M994.343 1078.3C997.102 1078.48 999.759 1079.41 1002.02 1080.99C1004.28 1082.26 1006.2 1084.05 1007.63 1086.21L1059.49 1174.78V1094C1059.52 1089.84 1061.19 1085.87 1064.12 1082.93C1067.06 1079.99 1071.04 1078.33 1075.19 1078.3H1098.4C1102.55 1078.34 1106.52 1080.01 1109.46 1082.95C1112.39 1085.88 1114.06 1089.85 1114.1 1094V1265.59C1114.06 1269.74 1112.39 1273.71 1109.46 1276.65C1106.52 1279.58 1102.55 1281.25 1098.4 1281.29H1070.37C1067.73 1281.09 1065.17 1280.26 1062.91 1278.88C1060.4 1277.65 1058.31 1275.7 1056.91 1273.28L1004.49 1184.48V1265.48C1004.53 1267.57 1004.14 1269.64 1003.35 1271.56C1002.56 1273.49 1001.38 1275.24 999.894 1276.69C998.453 1278.21 996.711 1279.41 994.78 1280.21C992.849 1281.01 990.771 1281.4 988.68 1281.35H965.693C963.646 1281.38 961.616 1280.98 959.733 1280.18C957.85 1279.38 956.156 1278.19 954.76 1276.69C953.286 1275.23 952.127 1273.48 951.355 1271.55C950.584 1269.63 950.216 1267.56 950.275 1265.48V1094C950.216 1091.92 950.584 1089.86 951.355 1087.93C952.127 1086 953.286 1084.25 954.76 1082.79C956.156 1081.29 957.85 1080.1 959.733 1079.3C961.616 1078.5 963.646 1078.1 965.693 1078.13L994.343 1078.3Z" fill="black"/>
<path d="M1179.36 1078.3C1183.51 1078.34 1187.48 1080.01 1190.42 1082.95C1193.35 1085.88 1195.02 1089.85 1195.06 1094V1265.59C1195.02 1269.74 1193.35 1273.71 1190.42 1276.65C1187.48 1279.58 1183.51 1281.25 1179.36 1281.29H1156.38C1152.22 1281.26 1148.25 1279.6 1145.31 1276.66C1142.37 1273.72 1140.71 1269.75 1140.68 1265.59V1094C1140.71 1089.84 1142.37 1085.87 1145.31 1082.93C1148.25 1079.99 1152.22 1078.33 1156.38 1078.3H1179.36Z" fill="black"/>
<path d="M1265.43 1078.3C1268.18 1078.48 1270.84 1079.41 1273.11 1080.99C1275.36 1082.26 1277.29 1084.04 1278.71 1086.2L1330.58 1174.78V1094C1330.6 1089.84 1332.27 1085.87 1335.21 1082.93C1338.14 1079.99 1342.12 1078.33 1346.27 1078.3H1369.26C1373.41 1078.34 1377.38 1080.01 1380.31 1082.95C1383.25 1085.88 1384.92 1089.85 1384.96 1094V1265.59C1384.92 1269.74 1383.25 1273.71 1380.31 1276.64C1377.38 1279.58 1373.41 1281.25 1369.26 1281.29H1341.51C1338.87 1281.09 1336.31 1280.26 1334.05 1278.88C1331.54 1277.65 1329.45 1275.7 1328.05 1273.27L1275.63 1184.48V1265.48C1275.67 1267.57 1275.28 1269.63 1274.49 1271.56C1273.7 1273.49 1272.52 1275.24 1271.03 1276.69C1269.59 1278.21 1267.85 1279.41 1265.92 1280.21C1263.99 1281.01 1261.91 1281.4 1259.82 1281.35H1236.83C1234.74 1281.42 1232.65 1281.04 1230.72 1280.24C1228.79 1279.44 1227.05 1278.23 1225.62 1276.69C1224.14 1275.23 1222.99 1273.48 1222.21 1271.55C1221.44 1269.62 1221.07 1267.56 1221.13 1265.48V1094C1221.07 1091.92 1221.44 1089.85 1222.21 1087.93C1222.99 1086 1224.14 1084.25 1225.62 1082.78C1227.05 1081.25 1228.79 1080.04 1230.72 1079.24C1232.65 1078.44 1234.74 1078.06 1236.83 1078.13L1265.43 1078.3Z" fill="black"/>
<path d="M1595.66 1265.59C1595.7 1267.67 1595.33 1269.73 1594.56 1271.66C1593.79 1273.58 1592.64 1275.34 1591.17 1276.81C1589.77 1278.3 1588.08 1279.48 1586.19 1280.28C1584.31 1281.08 1582.28 1281.48 1580.24 1281.46H1565.1C1562.26 1281.38 1559.49 1280.55 1557.08 1279.05C1554.51 1277.59 1552.42 1275.41 1551.08 1272.77C1544.59 1276.83 1537.63 1280.07 1530.34 1282.41C1522.65 1284.93 1514.6 1286.19 1506.51 1286.17C1493 1286.42 1479.61 1283.71 1467.27 1278.21C1456.01 1273.05 1445.98 1265.56 1437.83 1256.23C1429.48 1246.49 1423.16 1235.19 1419.22 1222.99C1414.79 1209.46 1412.62 1195.29 1412.77 1181.06C1412.44 1164.96 1415 1148.93 1420.34 1133.74C1424.74 1121.23 1431.71 1109.77 1440.8 1100.11C1449.14 1091.38 1459.34 1084.64 1470.63 1080.38C1482.06 1076.05 1494.18 1073.86 1506.4 1073.93C1518.17 1073.7 1529.89 1075.6 1540.99 1079.53C1550.47 1082.93 1559.26 1088 1566.95 1094.5C1574.18 1100.71 1580.25 1108.15 1584.89 1116.48C1589.53 1124.85 1593.02 1133.8 1595.27 1143.11C1596.19 1146.5 1596 1150.1 1594.7 1153.36C1593.45 1156.36 1591.16 1158.81 1588.26 1160.26C1590.56 1161.58 1592.46 1163.51 1593.74 1165.83C1595.03 1168.15 1595.65 1170.78 1595.55 1173.43L1595.66 1265.59ZM1495.58 1162.28C1497.01 1160.75 1498.75 1159.55 1500.68 1158.76C1502.62 1157.97 1504.7 1157.6 1506.79 1157.68H1548C1545.98 1156.04 1544.59 1153.74 1544.08 1151.18C1541.9 1143.97 1537.6 1137.58 1531.74 1132.85C1524.44 1127.79 1515.65 1125.36 1506.79 1125.95C1500.88 1125.78 1495.05 1127.3 1489.97 1130.32C1485.22 1133.29 1481.23 1137.32 1478.31 1142.1C1475.05 1147.46 1472.74 1153.33 1471.47 1159.47C1469.92 1166.51 1469.17 1173.69 1469.23 1180.89C1469.23 1198.83 1472.59 1212.11 1479.43 1220.75C1482.6 1224.88 1486.71 1228.21 1491.42 1230.45C1496.13 1232.69 1501.3 1233.79 1506.51 1233.64C1509.9 1233.63 1513.27 1233 1516.44 1231.79C1519.76 1230.54 1522.87 1228.8 1525.69 1226.63C1528.61 1224.33 1531.3 1221.74 1533.7 1218.9C1536.07 1216.05 1538.05 1212.9 1539.59 1209.54H1506.79C1504.76 1209.55 1502.75 1209.16 1500.87 1208.39C1499 1207.62 1497.29 1206.49 1495.86 1205.05C1494.42 1203.62 1493.29 1201.91 1492.52 1200.04C1491.75 1198.16 1491.36 1196.15 1491.37 1194.12V1173.38C1491.3 1171.34 1491.63 1169.31 1492.35 1167.4C1493.07 1165.5 1494.17 1163.75 1495.58 1162.28Z" fill="black"/>
<path d="M1812.08 1265.59C1812.12 1267.67 1811.75 1269.73 1810.98 1271.66C1810.21 1273.58 1809.05 1275.34 1807.59 1276.81C1806.19 1278.3 1804.49 1279.48 1802.61 1280.28C1800.73 1281.08 1798.7 1281.48 1796.66 1281.46H1781.52C1778.68 1281.38 1775.91 1280.55 1773.5 1279.05C1770.93 1277.59 1768.84 1275.41 1767.5 1272.77C1761.01 1276.83 1754.04 1280.07 1746.76 1282.41C1739.07 1284.93 1731.02 1286.19 1722.93 1286.17C1709.42 1286.42 1696.02 1283.71 1683.68 1278.21C1672.43 1273.05 1662.39 1265.56 1654.25 1256.23C1645.9 1246.49 1639.58 1235.19 1635.63 1222.99C1631.21 1209.46 1629.03 1195.29 1629.19 1181.06C1628.86 1164.96 1631.42 1148.93 1636.76 1133.74C1641.16 1121.23 1648.13 1109.77 1657.22 1100.11C1665.56 1091.38 1675.75 1084.64 1687.05 1080.38C1698.47 1076.05 1710.6 1073.86 1722.82 1073.93C1734.59 1073.7 1746.31 1075.6 1757.41 1079.53C1766.89 1082.93 1775.68 1088 1783.37 1094.5C1790.6 1100.71 1796.67 1108.15 1801.31 1116.48C1805.95 1124.85 1809.44 1133.8 1811.68 1143.11C1812.61 1146.5 1812.41 1150.1 1811.12 1153.36C1809.87 1156.36 1807.58 1158.81 1804.67 1160.26C1806.98 1161.58 1808.88 1163.51 1810.16 1165.83C1811.45 1168.15 1812.07 1170.78 1811.96 1173.43L1812.08 1265.59ZM1712 1162.28C1713.4 1160.79 1715.09 1159.61 1716.97 1158.82C1718.86 1158.03 1720.89 1157.64 1722.93 1157.68H1764.14C1762.11 1156.04 1760.73 1153.74 1760.21 1151.18C1758.04 1143.97 1753.74 1137.58 1747.88 1132.85C1740.58 1127.79 1731.79 1125.36 1722.93 1125.95C1717.02 1125.78 1711.19 1127.3 1706.11 1130.32C1701.36 1133.29 1697.37 1137.32 1694.45 1142.1C1691.19 1147.46 1688.88 1153.33 1687.61 1159.47C1686.06 1166.51 1685.31 1173.69 1685.37 1180.89C1685.37 1198.83 1688.73 1212.11 1695.57 1220.75C1698.74 1224.88 1702.85 1228.21 1707.56 1230.45C1712.27 1232.69 1717.44 1233.79 1722.65 1233.64C1726.04 1233.63 1729.4 1233 1732.57 1231.79C1735.89 1230.54 1739.01 1228.8 1741.82 1226.63C1744.75 1224.33 1747.44 1221.74 1749.84 1218.9C1752.21 1216.05 1754.18 1212.9 1755.73 1209.54H1722.93C1720.9 1209.55 1718.89 1209.16 1717.01 1208.39C1715.13 1207.62 1713.43 1206.49 1711.99 1205.05C1710.56 1203.62 1709.42 1201.91 1708.65 1200.04C1707.88 1198.16 1707.5 1196.15 1707.51 1194.12V1173.38C1707.47 1171.32 1707.85 1169.28 1708.62 1167.37C1709.39 1165.46 1710.54 1163.73 1712 1162.28Z" fill="black"/>
<path d="M2028.49 1265.59C2028.54 1267.67 2028.16 1269.73 2027.39 1271.66C2026.62 1273.58 2025.47 1275.34 2024.01 1276.81C2022.61 1278.3 2020.91 1279.48 2019.03 1280.28C2017.15 1281.08 2015.12 1281.48 2013.07 1281.46H1997.94C1995.1 1281.38 1992.33 1280.55 1989.92 1279.05C1987.34 1277.59 1985.26 1275.41 1983.92 1272.77C1977.43 1276.83 1970.46 1280.07 1963.18 1282.41C1955.48 1284.93 1947.44 1286.19 1939.35 1286.17C1925.84 1286.42 1912.44 1283.71 1900.1 1278.21C1888.84 1273.05 1878.81 1265.56 1870.67 1256.23C1862.32 1246.49 1855.99 1235.19 1852.05 1222.99C1847.63 1209.46 1845.45 1195.29 1845.6 1181.06C1845.27 1164.96 1847.84 1148.93 1853.17 1133.74C1857.58 1121.23 1864.55 1109.77 1873.64 1100.11C1881.98 1091.38 1892.17 1084.64 1903.46 1080.38C1914.89 1076.05 1927.02 1073.86 1939.23 1073.93C1951.01 1073.7 1962.73 1075.6 1973.83 1079.53C1983.31 1082.93 1992.1 1088 1999.79 1094.5C2007.02 1100.71 2013.09 1108.15 2017.73 1116.48C2022.37 1124.85 2025.85 1133.8 2028.1 1143.11C2029.03 1146.5 2028.83 1150.1 2027.54 1153.36C2026.29 1156.36 2024 1158.81 2021.09 1160.26C2023.4 1161.58 2025.29 1163.51 2026.58 1165.83C2027.86 1168.15 2028.49 1170.78 2028.38 1173.43L2028.49 1265.59ZM1928.19 1162.28C1929.59 1160.79 1931.28 1159.61 1933.17 1158.82C1935.05 1158.03 1937.08 1157.64 1939.12 1157.68H1980.33C1978.31 1156.04 1976.92 1153.74 1976.41 1151.18C1974.23 1143.97 1969.93 1137.58 1964.07 1132.85C1956.85 1127.85 1948.17 1125.43 1939.4 1125.95C1933.49 1125.78 1927.66 1127.3 1922.58 1130.32C1917.83 1133.29 1913.84 1137.32 1910.92 1142.1C1907.67 1147.46 1905.35 1153.33 1904.08 1159.47C1902.53 1166.51 1901.78 1173.69 1901.84 1180.89C1901.84 1198.83 1905.2 1212.11 1912.04 1220.75C1915.21 1224.88 1919.32 1228.21 1924.03 1230.45C1928.74 1232.69 1933.91 1233.79 1939.12 1233.64C1942.52 1233.63 1945.88 1233 1949.05 1231.79C1952.37 1230.54 1955.49 1228.8 1958.3 1226.63C1961.23 1224.33 1963.91 1221.74 1966.31 1218.9C1968.58 1216.03 1970.46 1212.89 1971.92 1209.54H1939.4C1937.37 1209.55 1935.36 1209.16 1933.48 1208.39C1931.61 1207.62 1929.9 1206.49 1928.47 1205.05C1927.03 1203.62 1925.9 1201.91 1925.13 1200.04C1924.36 1198.16 1923.97 1196.15 1923.98 1194.12V1173.38C1923.91 1171.34 1924.24 1169.31 1924.96 1167.4C1925.68 1165.5 1926.78 1163.75 1928.19 1162.28Z" fill="black"/>
<path d="M2244.91 1265.59C2244.96 1267.67 2244.58 1269.73 2243.81 1271.66C2243.04 1273.58 2241.89 1275.34 2240.43 1276.81C2239.02 1278.3 2237.33 1279.48 2235.45 1280.28C2233.56 1281.08 2231.54 1281.48 2229.49 1281.46H2214.13C2211.29 1281.38 2208.52 1280.55 2206.11 1279.05C2203.54 1277.59 2201.45 1275.41 2200.11 1272.77C2193.62 1276.83 2186.65 1280.07 2179.37 1282.41C2171.68 1284.93 2163.63 1286.19 2155.54 1286.17C2142.03 1286.42 2128.63 1283.71 2116.29 1278.21C2105.04 1273.05 2095 1265.56 2086.86 1256.23C2078.51 1246.49 2072.19 1235.19 2068.24 1222.99C2063.82 1209.46 2061.64 1195.29 2061.8 1181.06C2061.47 1164.96 2064.03 1148.93 2069.37 1133.74C2073.77 1121.23 2080.74 1109.77 2089.83 1100.11C2098.17 1091.38 2108.36 1084.64 2119.66 1080.38C2131.08 1076.05 2143.21 1073.86 2155.43 1073.93C2167.2 1073.7 2178.92 1075.6 2190.02 1079.53C2199.5 1082.93 2208.29 1088 2215.98 1094.5C2223.21 1100.71 2229.28 1108.15 2233.92 1116.48C2238.56 1124.85 2242.05 1133.8 2244.29 1143.11C2245.22 1146.5 2245.02 1150.1 2243.73 1153.36C2242.48 1156.36 2240.19 1158.81 2237.29 1160.26C2239.59 1161.58 2241.49 1163.51 2242.77 1165.83C2244.06 1168.15 2244.68 1170.78 2244.57 1173.43L2244.91 1265.59ZM2144.83 1162.28C2146.23 1160.79 2147.93 1159.61 2149.81 1158.82C2151.69 1158.03 2153.72 1157.64 2155.76 1157.68H2196.97C2194.95 1156.04 2193.56 1153.74 2193.05 1151.18C2190.87 1143.97 2186.57 1137.58 2180.71 1132.85C2173.42 1127.79 2164.62 1125.36 2155.76 1125.95C2149.86 1125.78 2144.02 1127.3 2138.94 1130.32C2134.19 1133.29 2130.2 1137.32 2127.28 1142.1C2124.03 1147.46 2121.71 1153.33 2120.44 1159.47C2118.9 1166.51 2118.14 1173.69 2118.2 1180.89C2118.2 1198.83 2121.56 1212.11 2128.4 1220.75C2131.58 1224.88 2135.69 1228.21 2140.39 1230.45C2145.1 1232.69 2150.27 1233.79 2155.48 1233.64C2158.88 1233.63 2162.24 1233 2165.41 1231.79C2168.73 1230.54 2171.85 1228.8 2174.66 1226.63C2177.59 1224.33 2180.27 1221.74 2182.68 1218.9C2185.04 1216.05 2187.02 1212.9 2188.56 1209.54H2155.76C2153.74 1209.55 2151.72 1209.16 2149.85 1208.39C2147.97 1207.62 2146.26 1206.49 2144.83 1205.05C2143.39 1203.62 2142.26 1201.91 2141.49 1200.04C2140.72 1198.16 2140.33 1196.15 2140.35 1194.12V1173.38C2140.31 1171.32 2140.68 1169.28 2141.45 1167.37C2142.22 1165.46 2143.37 1163.73 2144.83 1162.28Z" fill="black"/>
<path d="M2461.27 1265.59C2461.33 1267.67 2460.96 1269.74 2460.19 1271.67C2459.42 1273.59 2458.26 1275.34 2456.79 1276.81C2455.39 1278.3 2453.7 1279.49 2451.81 1280.29C2449.93 1281.09 2447.9 1281.49 2445.85 1281.46H2430.77C2427.93 1281.38 2425.16 1280.55 2422.75 1279.05C2420.18 1277.59 2418.09 1275.41 2416.76 1272.77C2410.26 1276.82 2403.29 1280.06 2396.01 1282.41C2388.32 1284.93 2380.27 1286.19 2372.18 1286.17C2358.67 1286.43 2345.27 1283.71 2332.94 1278.21C2321.68 1273.05 2311.65 1265.56 2303.5 1256.23C2295.15 1246.49 2288.83 1235.19 2284.89 1222.99C2280.46 1209.46 2278.29 1195.29 2278.44 1181.06C2278.11 1164.97 2280.66 1148.94 2285.95 1133.74C2290.39 1121.23 2297.38 1109.78 2306.47 1100.11C2314.81 1091.38 2325.01 1084.64 2336.3 1080.38C2347.73 1076.05 2359.85 1073.86 2372.07 1073.93C2383.84 1073.7 2395.56 1075.6 2406.66 1079.53C2416.14 1082.93 2424.93 1088 2432.62 1094.5C2439.84 1100.73 2445.91 1108.16 2450.56 1116.48C2455.21 1124.84 2458.68 1133.8 2460.88 1143.11C2461.85 1146.49 2461.68 1150.1 2460.38 1153.36C2459.12 1156.38 2456.8 1158.83 2453.87 1160.26C2456.18 1161.57 2458.09 1163.49 2459.37 1165.82C2460.66 1168.14 2461.28 1170.78 2461.16 1173.43L2461.27 1265.59ZM2361.25 1162.28C2362.65 1160.79 2364.34 1159.61 2366.23 1158.82C2368.11 1158.03 2370.14 1157.64 2372.18 1157.68H2413.34C2411.34 1156.01 2409.96 1153.72 2409.41 1151.18C2407.27 1143.96 2402.99 1137.57 2397.13 1132.85C2389.83 1127.79 2381.04 1125.36 2372.18 1125.95C2366.27 1125.78 2360.44 1127.3 2355.36 1130.32C2350.61 1133.29 2346.62 1137.32 2343.7 1142.1C2340.44 1147.46 2338.13 1153.33 2336.86 1159.47C2335.31 1166.51 2334.56 1173.69 2334.62 1180.89C2334.62 1198.83 2337.98 1212.11 2344.82 1220.75C2347.99 1224.88 2352.1 1228.21 2356.81 1230.45C2361.52 1232.69 2366.69 1233.79 2371.9 1233.64C2375.29 1233.63 2378.66 1233 2381.83 1231.79C2385.15 1230.54 2388.26 1228.8 2391.08 1226.63C2394 1224.33 2396.69 1221.74 2399.09 1218.9C2401.38 1216.05 2403.27 1212.9 2404.7 1209.54H2371.96C2369.93 1209.55 2367.92 1209.16 2366.04 1208.39C2364.16 1207.62 2362.46 1206.49 2361.02 1205.05C2359.59 1203.62 2358.45 1201.91 2357.68 1200.04C2356.91 1198.16 2356.52 1196.15 2356.54 1194.12V1173.38C2356.53 1171.3 2356.94 1169.25 2357.75 1167.34C2358.56 1165.43 2359.75 1163.71 2361.25 1162.28Z" fill="black"/>
<path d="M2677.69 1265.59C2677.75 1267.67 2677.38 1269.74 2676.61 1271.67C2675.84 1273.59 2674.68 1275.34 2673.2 1276.81C2671.81 1278.3 2670.11 1279.49 2668.23 1280.29C2666.35 1281.09 2664.32 1281.49 2662.27 1281.46H2647.19C2644.35 1281.38 2641.58 1280.55 2639.17 1279.05C2636.6 1277.59 2634.51 1275.41 2633.17 1272.77C2626.66 1276.83 2619.67 1280.07 2612.37 1282.41C2604.68 1284.93 2596.64 1286.2 2588.54 1286.17C2575.03 1286.43 2561.63 1283.72 2549.3 1278.21C2538.04 1273.05 2528.01 1265.56 2519.86 1256.23C2511.52 1246.49 2505.19 1235.19 2501.25 1222.99C2496.81 1209.46 2494.61 1195.3 2494.74 1181.06C2494.41 1164.96 2496.98 1148.93 2502.31 1133.74C2506.73 1121.24 2513.7 1109.78 2522.78 1100.11C2531.15 1091.39 2541.36 1084.65 2552.66 1080.37C2564.07 1076.05 2576.17 1073.86 2588.37 1073.93C2600.17 1073.7 2611.9 1075.6 2623.02 1079.53C2632.48 1082.94 2641.26 1088 2648.93 1094.5C2656.17 1100.7 2662.25 1108.14 2666.87 1116.48C2671.56 1124.82 2675.05 1133.79 2677.24 1143.1C2678.22 1146.49 2678.03 1150.11 2676.68 1153.36C2675.46 1156.38 2673.16 1158.84 2670.23 1160.26C2672.54 1161.57 2674.45 1163.49 2675.73 1165.82C2677.02 1168.14 2677.64 1170.78 2677.52 1173.43L2677.69 1265.59ZM2577.61 1162.28C2579.01 1160.8 2580.71 1159.62 2582.59 1158.83C2584.48 1158.04 2586.5 1157.65 2588.54 1157.68H2629.75C2627.73 1156.04 2626.34 1153.74 2625.83 1151.18C2623.69 1143.96 2619.41 1137.57 2613.55 1132.85C2606.24 1127.78 2597.42 1125.35 2588.54 1125.95C2582.64 1125.79 2576.8 1127.31 2571.72 1130.32C2567 1133.31 2563.03 1137.33 2560.12 1142.1C2556.86 1147.46 2554.55 1153.33 2553.28 1159.47C2551.71 1166.5 2550.94 1173.69 2550.98 1180.89C2550.98 1198.83 2554.4 1212.11 2561.24 1220.75C2564.41 1224.88 2568.52 1228.21 2573.23 1230.45C2577.93 1232.69 2583.11 1233.79 2588.32 1233.64C2591.71 1233.63 2595.07 1233 2598.24 1231.79C2601.56 1230.54 2604.68 1228.8 2607.49 1226.63C2610.42 1224.35 2613.08 1221.75 2615.45 1218.9C2617.86 1216.08 2619.84 1212.92 2621.34 1209.54H2588.54C2586.51 1209.55 2584.5 1209.16 2582.62 1208.39C2580.75 1207.62 2579.04 1206.49 2577.61 1205.05C2576.17 1203.62 2575.04 1201.91 2574.27 1200.04C2573.5 1198.16 2573.11 1196.15 2573.12 1194.12V1173.38C2573.1 1171.32 2573.48 1169.28 2574.25 1167.38C2575.02 1165.47 2576.16 1163.74 2577.61 1162.28Z" fill="black"/>
<path d="M2894.11 1265.59C2894.17 1267.67 2893.8 1269.74 2893.03 1271.67C2892.25 1273.59 2891.1 1275.34 2889.62 1276.81C2888.19 1278.34 2886.45 1279.55 2884.52 1280.35C2882.59 1281.15 2880.5 1281.53 2878.41 1281.46H2863.27C2860.45 1281.38 2857.7 1280.54 2855.31 1279.05C2852.73 1277.58 2850.63 1275.4 2849.25 1272.77C2842.77 1276.84 2835.8 1280.08 2828.51 1282.41C2820.82 1284.93 2812.77 1286.2 2804.68 1286.17C2791.17 1286.43 2777.77 1283.72 2765.43 1278.21C2754.18 1273.05 2744.14 1265.56 2736 1256.23C2727.65 1246.48 2721.31 1235.19 2717.33 1222.99C2712.93 1209.45 2710.76 1195.29 2710.88 1181.06C2710.55 1164.96 2713.12 1148.93 2718.45 1133.74C2722.87 1121.24 2729.84 1109.78 2738.91 1100.11C2747.29 1091.39 2757.49 1084.65 2768.8 1080.37C2780.21 1076.05 2792.31 1073.86 2804.51 1073.93C2816.3 1073.7 2828.04 1075.6 2839.16 1079.53C2848.62 1082.94 2857.39 1088 2865.06 1094.5C2872.31 1100.7 2878.38 1108.14 2883.01 1116.48C2887.67 1124.83 2891.16 1133.79 2893.38 1143.1C2894.36 1146.49 2894.16 1150.11 2892.82 1153.36C2891.6 1156.38 2889.3 1158.84 2886.37 1160.26C2888.68 1161.57 2890.59 1163.49 2891.87 1165.82C2893.16 1168.14 2893.78 1170.78 2893.66 1173.43L2894.11 1265.59ZM2794.03 1162.28C2795.46 1160.76 2797.21 1159.57 2799.14 1158.77C2801.07 1157.98 2803.15 1157.61 2805.24 1157.68H2846.45C2844.42 1156.04 2843.04 1153.74 2842.53 1151.18C2840.39 1143.95 2836.08 1137.55 2830.19 1132.85C2822.89 1127.79 2814.1 1125.36 2805.24 1125.95C2799.33 1125.79 2793.5 1127.31 2788.42 1130.32C2783.7 1133.31 2779.73 1137.33 2776.81 1142.1C2773.56 1147.46 2771.23 1153.34 2769.92 1159.47C2768.4 1166.51 2767.65 1173.69 2767.68 1180.89C2767.68 1198.83 2771.1 1212.11 2777.94 1220.75C2781.1 1224.88 2785.2 1228.21 2789.89 1230.45C2794.59 1232.69 2799.76 1233.79 2804.96 1233.64C2808.37 1233.64 2811.75 1233.01 2814.94 1231.79C2818.26 1230.54 2821.38 1228.8 2824.19 1226.63C2827.11 1224.35 2829.78 1221.75 2832.15 1218.9C2834.56 1216.08 2836.54 1212.92 2838.04 1209.54H2805.24C2803.21 1209.55 2801.2 1209.16 2799.32 1208.39C2797.45 1207.62 2795.74 1206.49 2794.31 1205.05C2792.87 1203.62 2791.74 1201.91 2790.97 1200.04C2790.2 1198.16 2789.81 1196.15 2789.82 1194.12V1173.38C2789.76 1171.34 2790.1 1169.31 2790.82 1167.41C2791.54 1165.5 2792.63 1163.76 2794.03 1162.28Z" fill="black"/>
<path d="M3294.42 1094C3294.38 1091.92 3294.75 1089.86 3295.52 1087.93C3296.29 1086.01 3297.44 1084.26 3298.91 1082.78C3300.31 1081.3 3302.01 1080.11 3303.89 1079.31C3305.77 1078.51 3307.8 1078.11 3309.84 1078.13H3380.77C3388.83 1078.11 3396.82 1079.63 3404.31 1082.62C3411.53 1085.44 3418.18 1089.54 3423.94 1094.73C3429.55 1099.77 3434.13 1105.86 3437.39 1112.66C3440.75 1119.56 3442.48 1127.14 3442.44 1134.81C3442.88 1147.44 3439.35 1159.89 3432.35 1170.41C3438.6 1175.9 3443.46 1182.79 3446.53 1190.53C3449.81 1198.75 3451.47 1207.53 3451.41 1216.37C3451.4 1224.68 3449.64 1232.9 3446.25 1240.48C3442.87 1248.19 3438.12 1255.21 3432.23 1261.22C3426.27 1267.22 3419.29 1272.1 3411.6 1275.63C3403.89 1279.3 3395.47 1281.21 3386.93 1281.23H3309.84C3307.8 1281.26 3305.77 1280.85 3303.89 1280.05C3302.01 1279.25 3300.31 1278.07 3298.91 1276.58C3297.44 1275.11 3296.29 1273.36 3295.52 1271.43C3294.75 1269.51 3294.38 1267.44 3294.42 1265.37V1094ZM3348.53 1149.27H3376.28C3377.78 1149.31 3379.28 1149.02 3380.66 1148.43C3382.04 1147.84 3383.28 1146.96 3384.3 1145.85C3385.32 1144.83 3386.14 1143.62 3386.68 1142.28C3387.23 1140.94 3387.51 1139.51 3387.49 1138.06C3387.47 1137.05 3387.22 1136.06 3386.77 1135.15C3386.31 1134.25 3385.66 1133.46 3384.86 1132.85C3382.29 1131.02 3379.15 1130.16 3376 1130.44H3348.53V1149.27ZM3348.53 1229.44H3378.52C3382.7 1229.48 3386.79 1228.18 3390.18 1225.74C3391.84 1224.64 3393.18 1223.13 3394.09 1221.37C3394.99 1219.6 3395.42 1217.63 3395.34 1215.65C3395.38 1211.65 3393.87 1207.8 3391.14 1204.88C3389.54 1203.26 3387.61 1202.01 3385.48 1201.21C3383.35 1200.41 3381.07 1200.07 3378.8 1200.23H3348.53V1229.44Z" fill="black"/>
<path d="M3568.59 1079.48C3571.37 1079.51 3574.12 1080.02 3576.72 1080.99C3579.5 1082 3582.14 1083.38 3584.57 1085.08C3587.06 1086.75 3589.29 1088.77 3591.18 1091.08C3593.07 1093.28 3594.53 1095.81 3595.5 1098.54V1098.2C3604.32 1122.53 3613.01 1146.66 3621.57 1170.57C3630.13 1194.49 3638.91 1218.6 3647.92 1242.89C3649.75 1247.46 3650.43 1252.41 3649.89 1257.3C3649.4 1261.69 3647.82 1265.9 3645.29 1269.52C3642.67 1273.14 3639.21 1276.07 3635.2 1278.04C3630.79 1280.24 3625.93 1281.35 3621.01 1281.29H3598.98C3596.1 1281.26 3593.26 1280.73 3590.57 1279.72C3587.76 1278.7 3585.12 1277.29 3582.72 1275.52C3580.36 1273.75 3578.2 1271.74 3576.27 1269.52C3574.53 1267.45 3573.2 1265.07 3572.34 1262.51V1262.17C3571.22 1259.37 3570.38 1257.19 3569.82 1255.5C3569.26 1253.82 3568.7 1252.14 3568.14 1250.57L3566.35 1245.69C3565.67 1243.96 3564.89 1241.77 3563.93 1238.97H3548.52C3548.18 1239.86 3547.84 1240.87 3547.56 1241.88C3547.28 1242.89 3547.06 1243.9 3546.83 1244.85C3545.94 1247.66 3544.98 1250.46 3544.03 1253.26C3543.08 1256.06 3542.18 1258.87 3541.23 1261.39C3540.26 1264.11 3538.83 1266.65 3537.02 1268.9C3535.18 1271.34 3532.97 1273.48 3530.46 1275.24C3527.97 1277.01 3525.28 1278.48 3522.45 1279.61C3519.87 1280.69 3517.11 1281.26 3514.32 1281.29H3492.45C3487.49 1281.37 3482.59 1280.25 3478.15 1278.04C3474.21 1276.03 3470.81 1273.11 3468.23 1269.52C3465.68 1265.9 3464.08 1261.7 3463.58 1257.3C3463.06 1252.41 3463.73 1247.46 3465.54 1242.89L3517.96 1098.2V1098.54C3518.97 1095.82 3520.45 1093.29 3522.33 1091.08C3524.23 1088.78 3526.43 1086.76 3528.89 1085.08C3531.32 1083.39 3533.96 1082.02 3536.74 1080.99C3539.34 1080.02 3542.1 1079.51 3544.87 1079.48H3568.59ZM3557.09 1170.8L3556.25 1171.7H3557.66L3557.09 1170.8Z" fill="black"/>
<path d="M3668.39 1094C3668.34 1091.92 3668.72 1089.86 3669.49 1087.93C3670.26 1086.01 3671.41 1084.26 3672.87 1082.79C3674.31 1081.26 3676.05 1080.06 3677.98 1079.26C3679.91 1078.45 3681.99 1078.07 3684.09 1078.13H3765.66C3774.17 1078.07 3782.58 1079.99 3790.22 1083.74C3797.36 1087.22 3803.74 1092.08 3809 1098.03C3814.1 1103.89 3818.17 1110.56 3821.06 1117.77C3823.85 1124.74 3825.32 1132.17 3825.37 1139.69C3825.41 1147.54 3824.14 1155.34 3821.62 1162.78C3819.27 1169.83 3815.7 1176.41 3811.08 1182.23C3814.99 1187.07 3817.77 1192.72 3819.21 1198.77C3820.73 1205.12 3821.48 1211.64 3821.45 1218.17V1243.4C3821.36 1245.78 3821.74 1248.16 3822.57 1250.4C3823.28 1251.94 3824.23 1253.36 3825.37 1254.61C3827.82 1256.87 3829.49 1259.86 3830.14 1263.13C3830.73 1266.05 3830.44 1269.08 3829.29 1271.83C3828.14 1274.58 3826.19 1276.92 3823.69 1278.54C3820.87 1280.41 3817.54 1281.35 3814.16 1281.24H3788.37C3786.34 1281.03 3784.35 1280.5 3782.48 1279.67C3780.55 1279.01 3778.75 1278.02 3777.16 1276.75C3775.06 1274.57 3773.35 1272.05 3772.11 1269.29C3770.82 1266.46 3769.84 1263.49 3769.19 1260.44C3768.54 1257.54 3768.07 1254.6 3767.79 1251.64C3767.79 1248.72 3767.34 1246.03 3767.34 1244.24V1217.89C3767.32 1215.72 3766.52 1213.64 3765.1 1212C3764.19 1210.99 3763.06 1210.22 3761.79 1209.73C3760.53 1209.24 3759.16 1209.06 3757.81 1209.2H3722.32V1265.54C3722.38 1267.61 3722.01 1269.68 3721.24 1271.61C3720.47 1273.54 3719.31 1275.29 3717.84 1276.75C3716.44 1278.25 3714.75 1279.43 3712.86 1280.24C3710.98 1281.04 3708.95 1281.44 3706.9 1281.4H3683.92C3681.83 1281.46 3679.74 1281.08 3677.81 1280.28C3675.88 1279.48 3674.14 1278.27 3672.7 1276.75C3671.24 1275.28 3670.09 1273.53 3669.32 1271.6C3668.55 1269.68 3668.17 1267.61 3668.22 1265.54L3668.39 1094ZM3722.32 1157.06H3757.36C3758.96 1157.05 3760.54 1156.68 3761.97 1155.99C3763.41 1155.29 3764.67 1154.28 3765.66 1153.03C3768.04 1150.15 3769.27 1146.5 3769.14 1142.77C3769.19 1141.13 3768.89 1139.49 3768.26 1137.98C3767.63 1136.46 3766.69 1135.09 3765.49 1133.97C3764.45 1132.86 3763.19 1131.97 3761.79 1131.36C3760.4 1130.76 3758.89 1130.44 3757.36 1130.44H3722.32V1157.06Z" fill="black"/>
<path d="M2899.32 1264.02C2899.37 1266.1 2898.99 1268.16 2898.22 1270.09C2897.45 1272.01 2896.3 1273.77 2894.84 1275.24C2893.44 1276.73 2891.75 1277.92 2889.86 1278.72C2887.98 1279.52 2885.95 1279.92 2883.9 1279.89H2868.76C2865.92 1279.83 2863.15 1279 2860.75 1277.48C2858.17 1276.02 2856.09 1273.84 2854.75 1271.2C2848.26 1275.27 2841.29 1278.51 2834 1280.84C2826.32 1283.38 2818.27 1284.67 2810.17 1284.65C2796.66 1284.89 2783.27 1282.15 2770.93 1276.64C2759.67 1271.48 2749.64 1263.99 2741.49 1254.66C2733.18 1244.9 2726.85 1233.61 2722.88 1221.42C2718.46 1207.91 2716.28 1193.76 2716.43 1179.54C2716.1 1163.43 2718.66 1147.38 2724 1132.17C2728.44 1119.67 2735.4 1108.22 2744.46 1098.54C2752.83 1089.81 2763.04 1083.07 2774.35 1078.8C2785.76 1074.48 2797.86 1072.29 2810.06 1072.36C2821.84 1072.13 2833.56 1074.03 2844.66 1077.96C2854.13 1081.37 2862.92 1086.44 2870.62 1092.93C2877.86 1099.15 2883.94 1106.61 2888.56 1114.96C2893.21 1123.33 2896.7 1132.29 2898.93 1141.59C2899.89 1144.96 2899.69 1148.55 2898.37 1151.79C2897.13 1154.8 2894.84 1157.25 2891.92 1158.69C2894.23 1160 2896.14 1161.92 2897.42 1164.25C2898.71 1166.57 2899.33 1169.21 2899.21 1171.86L2899.32 1264.02ZM2799.24 1160.71C2800.64 1159.22 2802.34 1158.04 2804.22 1157.25C2806.1 1156.45 2808.13 1156.07 2810.17 1156.11H2851.38C2849.37 1154.48 2847.98 1152.2 2847.46 1149.66C2845.32 1142.42 2841.01 1136.01 2835.12 1131.28C2827.81 1126.27 2819.02 1123.87 2810.17 1124.44C2804.27 1124.27 2798.45 1125.77 2793.35 1128.75C2788.62 1131.73 2784.63 1135.76 2781.69 1140.53C2778.49 1145.91 2776.18 1151.78 2774.85 1157.9C2773.31 1164.96 2772.55 1172.16 2772.61 1179.38C2772.61 1197.31 2776.03 1210.54 2782.87 1219.18C2786.03 1223.32 2790.13 1226.65 2794.83 1228.89C2799.52 1231.13 2804.69 1232.22 2809.89 1232.07C2813.29 1232.06 2816.65 1231.43 2819.82 1230.22C2823.17 1229.01 2826.32 1227.27 2829.13 1225.06C2832.05 1222.78 2834.72 1220.18 2837.09 1217.33C2839.38 1214.48 2841.26 1211.33 2842.69 1207.97H2809.89C2807.86 1208 2805.85 1207.62 2803.97 1206.85C2802.08 1206.08 2800.38 1204.93 2798.96 1203.48C2797.52 1202.05 2796.37 1200.35 2795.6 1198.47C2794.83 1196.59 2794.45 1194.58 2794.48 1192.55V1171.81C2794.49 1169.73 2794.91 1167.68 2795.73 1165.77C2796.55 1163.87 2797.74 1162.14 2799.24 1160.71Z" fill="black"/>
</g>
<defs>
<clipPath id="clip0_1_285">
<rect width="4022" height="1286" fill="white"/>
</clipPath>
</defs>
</svg>
