<svg width="3656" height="188" viewBox="0 0 3656 188" fill="none" xmlns="http://www.w3.org/2000/svg">
<path d="M35.8642 4.48633C38.6676 4.48633 41.471 5.60783 44.2744 7.85077C47.0778 10.0937 48.7599 12.3366 49.3205 15.1402L64.4589 81.3069C67.2623 70.0922 70.0657 58.8775 72.8691 48.2236C75.6725 37.5696 78.4758 26.3549 81.2792 15.1402C81.8399 12.3366 84.0826 10.0937 86.3253 7.85077C89.1287 5.60783 91.9321 4.48633 94.7355 4.48633H116.041C118.845 4.48633 121.648 5.60783 124.452 7.85077C127.255 10.0937 128.937 12.3366 129.498 15.1402L145.757 81.3069C148 70.0922 150.803 59.4383 153.046 48.2236C155.85 37.0089 158.092 26.3549 160.335 15.1402C160.896 12.3366 163.138 10.0937 165.381 7.85077C168.184 5.60783 170.988 4.48633 173.791 4.48633H196.779C201.265 4.48633 205.189 6.1685 207.993 9.5329C210.796 12.8973 211.357 16.8225 210.235 21.3083L172.67 172.707C172.109 175.51 169.867 177.753 167.624 179.996C164.82 182.239 162.017 182.8 159.214 182.8H137.347C134.544 182.8 131.74 181.678 128.937 179.996C126.134 177.753 124.452 175.51 123.891 172.707L105.388 100.933C102.024 113.269 99.221 125.044 96.4176 136.82C93.6142 148.595 90.2501 160.931 86.886 172.707C86.3253 175.51 84.0827 177.753 81.8399 179.996C79.0365 182.239 76.2331 182.8 73.4297 182.8H51.5633C48.7599 182.8 45.9565 181.678 43.1531 179.996C40.3497 177.753 38.6676 175.51 38.107 172.707L0.541471 21.3083C-0.579887 16.8225 -0.0191993 12.8973 2.7842 9.5329C5.58759 6.1685 8.95166 4.48633 13.9978 4.48633H35.8642Z" fill="black"/>
<path d="M258.454 4.48633C262.379 4.48633 265.743 5.60778 267.986 8.41145C270.789 11.2151 271.91 14.5795 271.91 17.9439V65.6063H320.69V17.9439C320.69 14.0188 321.811 10.6544 324.614 8.41145C327.418 5.60778 330.221 4.48633 334.146 4.48633H354.33C358.255 4.48633 361.619 5.60778 363.862 8.41145C366.665 11.2151 367.787 14.5795 367.787 17.9439V168.781C367.787 172.707 366.665 176.071 363.862 178.314C361.058 181.118 357.694 182.239 354.33 182.239H334.146C330.221 182.239 326.857 181.118 324.614 178.314C321.811 175.51 320.69 172.146 320.69 168.781V111.587H271.91V168.781C271.91 172.707 270.789 176.071 267.986 178.314C265.182 181.118 262.379 182.239 258.454 182.239H238.27C234.345 182.239 230.981 181.118 228.738 178.314C225.935 175.51 224.813 172.146 224.813 168.781V17.9439C224.813 14.0188 225.935 10.6544 228.738 8.41145C231.542 5.60778 234.906 4.48633 238.27 4.48633H258.454Z" fill="black"/>
<path d="M506.835 4.48633C510.76 4.48633 514.124 5.60778 516.367 8.41145C519.17 11.2151 520.291 14.5795 520.291 17.9439V36.4481C520.291 40.3733 519.17 43.7377 516.367 45.9806C513.563 48.7843 510.199 49.9058 506.835 49.9058H438.432V67.8493H501.789C505.714 67.8493 508.517 68.9707 511.32 71.7744C514.124 74.5781 515.245 77.3817 515.245 81.3069V99.8111C515.245 103.736 514.124 107.101 511.32 109.344C508.517 112.147 505.714 113.269 501.789 113.269H438.432V136.82H510.199C514.124 136.82 517.488 137.941 519.731 140.745C522.534 143.548 523.655 146.352 523.655 150.277V168.781C523.655 172.707 522.534 176.071 519.731 178.314C516.927 181.118 513.563 182.239 510.199 182.239H404.231C400.306 182.239 396.942 181.118 394.699 178.314C391.896 175.51 390.774 172.146 390.774 168.781V17.9439C390.774 14.0188 391.896 10.6544 394.699 8.41145C397.503 5.60778 400.867 4.48633 404.231 4.48633H506.835Z" fill="black"/>
<path d="M580.283 4.48557C582.526 4.48557 584.769 5.04627 587.012 6.72847C589.815 8.41068 591.497 9.53216 592.058 11.2144L637.473 89.1564V17.9432C637.473 14.018 638.594 10.6536 641.398 8.41069C644.201 5.60702 647.565 4.48557 650.929 4.48557H671.113C675.038 4.48557 678.402 5.60702 680.645 8.41069C683.448 11.2144 684.57 14.5787 684.57 17.9432V168.781C684.57 172.706 683.448 176.07 680.645 178.313C677.842 181.117 674.478 182.238 671.113 182.238H646.444C644.762 182.238 642.519 181.678 639.715 179.995C636.912 178.874 635.23 177.192 634.669 174.949L588.694 97.0067V168.22C588.694 172.145 587.572 175.509 584.769 177.752C581.966 180.556 578.601 181.678 575.237 181.678H555.053C551.128 181.678 548.325 180.556 545.521 177.752C542.718 174.949 541.597 171.584 541.597 168.22V17.3825C541.597 13.4573 542.718 10.0929 545.521 7.85001C548.325 5.04634 551.128 3.9248 555.053 3.9248H580.283V4.48557Z" fill="black"/>
<path d="M853.334 91.3996C853.334 99.8107 854.456 107.1 856.138 113.829C857.82 119.997 860.623 125.044 863.426 128.969C866.23 132.894 870.155 136.258 873.519 137.941C877.443 140.184 881.368 140.744 885.293 140.744C889.778 140.744 893.703 140.183 897.067 138.501C900.431 136.819 903.795 134.576 906.038 132.333C908.841 129.53 910.523 126.726 912.205 123.361C913.887 119.997 915.009 116.633 915.009 112.708C915.57 109.343 916.691 106.539 919.494 104.297C922.298 102.054 925.101 100.932 928.465 100.932H948.65C953.135 100.932 956.499 102.614 958.742 105.418C961.545 108.222 962.106 112.147 961.545 116.633C960.424 126.726 957.62 135.698 953.696 144.109C949.771 152.52 944.725 160.37 937.997 166.538C931.829 172.706 923.98 177.753 915.009 181.678C906.038 185.042 895.946 187.285 884.171 187.285C871.837 187.285 860.623 185.042 850.531 180.556C840.439 176.07 832.028 169.902 824.74 161.491C817.451 153.08 812.405 142.987 808.48 131.212C804.555 119.436 802.873 105.979 802.873 90.8389C802.873 79.0635 804.555 67.8488 808.48 57.1948C812.405 46.5409 817.451 36.4477 824.74 28.0367C831.468 19.6257 840.439 12.8969 850.531 7.85033C860.623 2.80372 871.837 0 884.732 0C895.946 0 906.038 1.68225 915.009 5.04666C923.98 8.41106 931.829 12.8969 938.557 18.5042C945.286 24.1116 950.332 30.8404 954.256 38.1299C958.181 45.9802 960.985 53.8304 962.106 62.8022C962.667 67.2881 961.545 70.6525 958.742 73.4562C955.938 76.2598 952.574 77.9421 948.65 77.9421H928.465C925.662 77.9421 922.858 76.8206 920.055 75.1384C917.252 72.8955 915.57 70.6525 915.009 67.8488C913.327 60.5593 909.963 54.9519 904.356 51.5875C899.31 48.2231 892.582 46.5409 884.732 46.5409C879.686 46.5409 875.201 47.6624 871.276 50.4661C867.351 52.709 863.987 56.0734 861.184 60.5593C858.38 64.4844 856.138 69.5311 854.456 75.1384C853.895 79.6243 853.334 85.2316 853.334 91.3996Z" fill="black"/>
<path d="M1056.86 187.285C1043.96 187.285 1032.19 185.042 1022.1 179.995C1012.01 175.51 1003.04 168.781 995.746 160.37C988.458 151.959 982.851 141.865 978.926 130.651C975.001 118.875 973.319 106.539 973.319 93.0816C973.319 79.624 975.562 66.7272 979.487 55.5125C983.412 44.2978 989.018 34.2045 996.307 26.3543C1003.6 17.9432 1012.57 11.7752 1022.66 7.28934C1032.75 2.80347 1044.53 0.560547 1057.42 0.560547C1070.32 0.560547 1081.53 2.80347 1092.18 7.28934C1102.28 11.7752 1111.25 17.9432 1118.54 26.3543C1125.82 34.7653 1131.43 44.2978 1135.36 55.5125C1139.28 66.7272 1141.52 79.624 1141.52 93.0816C1141.52 106.539 1139.28 119.436 1135.36 130.651C1131.43 142.426 1125.82 151.959 1118.54 160.37C1111.25 168.781 1102.28 175.51 1092.18 179.995C1080.97 185.042 1069.76 187.285 1056.86 187.285ZM1056.86 141.305C1068.07 141.305 1076.48 137.38 1082.65 129.529C1088.82 121.679 1091.62 109.343 1091.62 93.0816C1091.62 76.8204 1088.82 65.0449 1082.65 57.7554C1076.48 50.4659 1068.07 46.5407 1057.42 46.5407C1046.77 46.5407 1038.36 50.4659 1032.19 57.7554C1026.02 65.0449 1023.22 76.8204 1023.22 93.0816C1023.22 109.343 1026.02 121.679 1032.19 129.529C1037.24 136.819 1046.21 141.305 1056.86 141.305Z" fill="black"/>
<path d="M1271.04 4.48557C1274.97 4.48557 1277.77 5.60702 1280.57 8.41069C1283.38 11.2144 1284.5 14.5787 1284.5 17.9432V36.4474C1284.5 40.3725 1283.38 43.7369 1280.57 45.9799C1277.77 48.7835 1274.97 49.9051 1271.04 49.9051H1204.88V67.8485H1260.95C1264.87 67.8485 1267.68 68.97 1270.48 71.7736C1273.28 74.5773 1274.4 77.381 1274.4 81.3061V99.8103C1274.4 103.735 1273.28 107.1 1270.48 109.343C1267.68 112.146 1264.87 113.268 1260.95 113.268H1204.88V168.22C1204.88 172.145 1203.76 175.509 1200.96 177.752C1198.15 180.556 1195.35 181.678 1191.42 181.678H1170.68C1166.75 181.678 1163.95 180.556 1161.15 177.752C1158.34 174.949 1157.22 171.584 1157.22 168.22V17.3825C1157.22 13.4573 1158.34 10.0929 1161.15 7.85001C1163.95 5.04634 1166.75 3.9248 1170.68 3.9248H1271.04V4.48557Z" fill="black"/>
<path d="M1408.41 4.48557C1412.33 4.48557 1415.13 5.60702 1417.94 8.41069C1420.74 11.2144 1421.86 14.5787 1421.86 17.9432V36.4474C1421.86 40.3725 1420.74 43.7369 1417.94 45.9799C1415.13 48.7835 1412.33 49.9051 1408.41 49.9051H1342.25V67.8485H1398.31C1402.24 67.8485 1405.04 68.97 1407.85 71.7736C1410.65 74.5773 1411.77 77.381 1411.77 81.3061V99.8103C1411.77 103.735 1410.65 107.1 1407.85 109.343C1405.04 112.146 1402.24 113.268 1398.31 113.268H1342.25V168.22C1342.25 172.145 1341.13 175.509 1338.32 177.752C1335.52 180.556 1332.72 181.678 1328.79 181.678H1308.05C1304.12 181.678 1301.32 180.556 1298.51 177.752C1295.71 174.949 1294.59 171.584 1294.59 168.22V17.3825C1294.59 13.4573 1295.71 10.0929 1298.51 7.85001C1301.32 5.04634 1304.12 3.9248 1308.05 3.9248H1408.41V4.48557Z" fill="black"/>
<path d="M1548.58 4.48633C1552.5 4.48633 1555.86 5.60778 1558.11 8.41145C1560.91 11.2151 1562.03 14.5795 1562.03 17.9439V36.4481C1562.03 40.3733 1560.91 43.7377 1558.11 45.9806C1555.3 48.7843 1551.94 49.9058 1548.58 49.9058H1480.17V67.8493H1543.53C1547.45 67.8493 1550.26 68.9707 1553.06 71.7744C1555.86 74.5781 1556.99 77.3817 1556.99 81.3069V99.8111C1556.99 103.736 1555.86 107.101 1553.06 109.344C1550.26 112.147 1547.45 113.269 1543.53 113.269H1480.17V136.82H1551.94C1555.86 136.82 1559.23 137.941 1561.47 140.745C1564.28 143.548 1565.4 146.352 1565.4 150.277V168.781C1565.4 172.707 1564.28 176.071 1561.47 178.314C1558.67 181.118 1555.3 182.239 1551.94 182.239H1445.97C1442.05 182.239 1438.68 181.118 1436.44 178.314C1433.64 175.51 1432.52 172.146 1432.52 168.781V17.9439C1432.52 14.0188 1433.64 10.6544 1436.44 8.41145C1439.24 5.60778 1442.61 4.48633 1445.97 4.48633H1548.58Z" fill="black"/>
<path d="M1698.28 4.48633C1702.2 4.48633 1705.57 5.60778 1707.81 8.41145C1710.61 11.2151 1711.73 14.5795 1711.73 17.9439V36.4481C1711.73 40.3733 1710.61 43.7377 1707.81 45.9806C1705.01 48.7843 1701.64 49.9058 1698.28 49.9058H1629.87V67.8493H1693.23C1697.16 67.8493 1699.96 68.9707 1702.76 71.7744C1705.57 74.5781 1706.69 77.3817 1706.69 81.3069V99.8111C1706.69 103.736 1705.57 107.101 1702.76 109.344C1699.96 112.147 1697.16 113.269 1693.23 113.269H1629.87V136.82H1701.64C1705.57 136.82 1708.93 137.941 1711.17 140.745C1713.98 143.548 1715.1 146.352 1715.1 150.277V168.781C1715.1 172.707 1713.98 176.071 1711.17 178.314C1708.37 181.118 1705.01 182.239 1701.64 182.239H1595.67C1591.75 182.239 1588.38 181.118 1586.14 178.314C1583.34 175.51 1582.22 172.146 1582.22 168.781V17.9439C1582.22 14.0188 1583.34 10.6544 1586.14 8.41145C1588.95 5.60778 1592.31 4.48633 1595.67 4.48633H1698.28Z" fill="black"/>
<path d="M2180.46 4.48633C2184.39 4.48633 2187.75 5.60778 2189.99 8.41145C2192.8 11.2151 2193.92 14.5795 2193.92 17.9439V36.4481C2193.92 40.3733 2192.8 43.7377 2189.99 45.9806C2187.19 48.7843 2183.83 49.9058 2180.46 49.9058H2112.06V67.8493H2175.41C2179.34 67.8493 2182.14 68.9707 2184.95 71.7744C2187.75 74.5781 2188.87 77.3817 2188.87 81.3069V99.8111C2188.87 103.736 2187.75 107.101 2184.95 109.344C2182.14 111.586 2179.34 113.269 2175.41 113.269H2112.06V136.82H2183.83C2187.75 136.82 2191.11 137.941 2193.36 140.745C2196.16 143.548 2197.28 146.352 2197.28 150.277V168.781C2197.28 172.707 2196.16 176.071 2193.36 178.314C2190.55 181.118 2187.19 182.239 2183.83 182.239H2077.86C2073.93 182.239 2070.57 181.118 2068.33 178.314C2065.52 175.51 2064.4 172.146 2064.4 168.781V17.9439C2064.4 14.0188 2065.52 10.6544 2068.33 8.41145C2071.13 5.60778 2074.49 4.48633 2077.86 4.48633H2180.46Z" fill="black"/>
<path d="M2330.16 4.48633C2334.09 4.48633 2337.45 5.60778 2339.69 8.41145C2342.5 11.2151 2343.62 14.5795 2343.62 17.9439V36.4481C2343.62 40.3733 2342.5 43.7377 2339.69 45.9806C2336.89 48.7843 2333.53 49.9058 2330.16 49.9058H2261.76V67.8493H2325.12C2329.04 67.8493 2331.84 68.9707 2334.65 71.7744C2337.45 74.5781 2338.57 77.3817 2338.57 81.3069V99.8111C2338.57 103.736 2337.45 107.101 2334.65 109.344C2331.84 111.586 2329.04 113.269 2325.12 113.269H2261.76V136.82H2333.53C2337.45 136.82 2340.82 137.941 2343.06 140.745C2345.86 143.548 2346.98 146.352 2346.98 150.277V168.781C2346.98 172.707 2345.86 176.071 2343.06 178.314C2340.25 181.118 2336.89 182.239 2333.53 182.239H2227.56C2223.63 182.239 2220.27 181.118 2218.03 178.314C2215.22 175.51 2214.1 172.146 2214.1 168.781V17.9439C2214.1 14.0188 2215.22 10.6544 2218.03 8.41145C2220.83 5.60778 2224.19 4.48633 2227.56 4.48633H2330.16Z" fill="black"/>
<path d="M2480.42 4.48633C2484.35 4.48633 2487.71 5.60778 2489.96 8.41145C2492.76 11.2151 2493.88 14.5795 2493.88 17.9439V36.4481C2493.88 40.3733 2492.76 43.7377 2489.96 45.9806C2487.15 48.7843 2483.79 49.9058 2480.42 49.9058H2445.66V168.781C2445.66 172.707 2444.54 176.071 2441.74 178.314C2438.93 181.118 2435.57 182.239 2432.21 182.239H2412.02C2408.1 182.239 2404.73 181.118 2402.49 178.314C2399.69 175.51 2398.57 172.146 2398.57 168.781V49.9058H2363.8C2359.88 49.9058 2356.51 48.7843 2354.27 45.9806C2351.47 43.1769 2350.35 39.8125 2350.35 36.4481V17.9439C2350.35 14.0188 2351.47 10.6544 2354.27 8.41145C2357.07 5.60778 2360.44 4.48633 2363.8 4.48633H2480.42Z" fill="black"/>
<path d="M2529.76 105.418C2533.69 105.418 2537.05 106.539 2539.3 109.343C2542.1 112.147 2543.22 115.511 2543.22 118.876C2543.22 125.044 2545.46 130.651 2549.39 135.137C2553.31 139.623 2558.92 141.305 2565.65 141.305C2571.25 141.305 2576.3 140.744 2580.79 139.062C2584.71 137.38 2586.95 134.576 2586.95 130.09C2586.95 127.287 2585.83 125.044 2584.15 123.361C2582.47 121.679 2579.66 119.997 2576.86 118.315C2574.06 117.193 2570.69 116.072 2567.33 114.95C2563.97 113.829 2560.6 113.268 2557.24 112.708C2549.95 111.025 2542.66 108.782 2535.93 105.979C2529.2 103.175 2523.04 99.25 2517.43 94.7641C2511.82 90.2782 2507.9 84.1101 2504.53 77.3813C2501.17 70.6525 2499.49 62.8022 2499.49 53.2697C2499.49 44.8587 2501.17 37.0085 2505.09 30.2797C2509.02 23.5509 2513.5 17.9435 2519.67 13.4577C2525.84 8.97179 2532.57 5.60737 2540.42 3.36444C2548.27 1.1215 2556.12 0 2564.53 0C2577.42 0 2588.07 2.24297 2597.05 6.16811C2605.46 10.0932 2612.18 15.1398 2617.23 21.3079C2622.28 27.476 2625.64 34.2048 2627.88 41.4944C2630.13 48.7839 2630.69 55.5127 2630.69 61.6807C2630.69 65.6059 2629.56 68.9703 2626.76 71.2132C2623.96 74.0169 2620.59 75.1384 2617.23 75.1384H2597.05C2595.92 75.1384 2594.8 75.1384 2594.24 75.1384C2599.85 77.3813 2605.46 80.185 2610.5 83.5494C2615.55 86.9138 2620.03 90.2782 2623.96 94.7641C2627.88 99.25 2630.69 104.297 2632.93 109.904C2635.17 115.511 2636.29 122.24 2636.29 130.09C2636.29 140.183 2634.61 149.155 2631.25 155.884C2627.88 163.174 2622.84 168.781 2616.67 173.267C2610.5 177.753 2603.21 181.117 2594.8 183.36C2586.39 185.603 2577.42 186.724 2567.33 186.724C2558.36 186.724 2549.39 185.042 2540.98 181.678C2532.57 178.313 2525.28 173.828 2518.55 167.659C2511.82 161.491 2506.78 154.763 2502.85 146.352C2498.93 137.941 2496.68 128.408 2496.68 118.315C2496.68 114.39 2497.81 111.025 2500.61 108.782C2503.41 105.979 2506.78 104.857 2510.14 104.857H2529.76V105.418ZM2573.5 68.9703C2576.3 69.531 2579.1 70.6525 2581.91 71.2132C2584.71 71.7739 2587.51 72.8954 2590.32 74.0169C2585.83 71.2132 2583.59 67.2881 2583.59 61.6807C2583.59 56.6341 2581.91 52.709 2577.98 49.9054C2574.06 47.1017 2570.13 45.9802 2565.09 45.9802C2560.6 45.9802 2556.68 46.5409 2553.31 47.6624C2549.95 48.7839 2547.71 50.4661 2547.71 53.2697C2547.71 55.5127 2548.27 57.7556 2549.95 59.4378C2551.63 61.12 2553.87 62.2415 2556.12 63.363C2558.92 64.4844 2561.72 65.6059 2564.53 66.1666C2567.89 67.2881 2570.69 68.4096 2573.5 68.9703Z" fill="black"/>
<path d="M2792.72 4.48633C2795.53 4.48633 2798.33 5.60783 2801.13 7.85077C2803.94 10.0937 2805.62 12.3366 2806.18 15.1402L2821.32 81.3069C2824.12 70.0922 2826.92 58.8775 2829.73 48.2236C2832.53 37.5696 2835.33 26.3549 2838.14 15.1402C2838.7 12.3366 2840.94 10.0937 2843.18 7.85077C2845.99 5.60783 2848.79 4.48633 2851.59 4.48633H2872.9C2875.7 4.48633 2878.51 5.60783 2881.31 7.85077C2884.11 10.0937 2885.8 12.3366 2886.36 15.1402L2902.62 81.3069C2904.86 70.0922 2907.66 59.4383 2909.9 48.2236C2912.71 37.0089 2914.95 26.3549 2917.19 15.1402C2917.75 12.3366 2920 10.0937 2922.24 7.85077C2925.04 5.60783 2927.85 4.48633 2930.65 4.48633H2953.64C2958.12 4.48633 2962.05 6.1685 2964.85 9.5329C2967.65 12.8973 2968.22 16.8225 2967.09 21.3083L2929.53 172.707C2928.97 175.51 2926.72 177.753 2924.48 179.996C2921.68 182.239 2918.88 182.8 2916.07 182.8H2894.21C2891.4 182.8 2888.6 181.678 2885.8 179.996C2882.99 177.753 2881.31 175.51 2880.75 172.707L2862.25 100.933C2858.88 113.269 2856.08 125.044 2853.28 136.82C2850.47 148.595 2847.11 160.931 2843.74 172.707C2843.18 175.51 2840.94 177.753 2838.7 179.996C2835.89 182.239 2833.09 182.8 2830.29 182.8H2808.42C2805.62 182.8 2802.81 181.678 2800.01 179.996C2797.21 177.753 2795.53 175.51 2794.97 172.707L2757.4 21.3083C2756.28 16.8225 2756.84 12.8973 2759.64 9.5329C2762.45 6.1685 2765.81 4.48633 2770.86 4.48633H2792.72Z" fill="black"/>
<path d="M3014.75 4.48633C3018.68 4.48633 3022.04 5.60778 3024.28 8.41145C3027.09 11.2151 3028.21 14.5795 3028.21 17.9439V65.6063H3076.99V17.9439C3076.99 14.0188 3078.11 10.6544 3080.91 8.41145C3083.72 5.60778 3086.52 4.48633 3090.44 4.48633H3110.63C3114.55 4.48633 3117.92 5.60778 3120.16 8.41145C3122.96 11.2151 3124.08 14.5795 3124.08 17.9439V168.781C3124.08 172.707 3122.96 176.071 3120.16 178.314C3117.36 181.118 3113.99 182.239 3110.63 182.239H3091C3087.08 182.239 3083.72 181.118 3081.47 178.314C3078.67 175.51 3077.55 172.146 3077.55 168.781V111.587H3028.77V168.781C3028.77 172.707 3027.65 176.071 3024.84 178.314C3022.04 181.118 3019.24 182.239 3015.31 182.239H2995.13C2991.2 182.239 2987.84 181.118 2985.6 178.314C2982.79 175.51 2981.67 172.146 2981.67 168.781V17.9439C2981.67 14.0188 2982.79 10.6544 2985.6 8.41145C2988.4 5.60778 2991.76 4.48633 2995.13 4.48633H3014.75Z" fill="black"/>
<path d="M3175.11 4.48633C3179.03 4.48633 3182.39 5.60778 3184.64 8.41145C3187.44 11.2151 3188.56 14.5795 3188.56 17.9439V168.781C3188.56 172.707 3187.44 176.071 3184.64 178.314C3181.83 181.118 3178.47 182.239 3175.11 182.239H3154.92C3151 182.239 3147.63 181.118 3145.39 178.314C3142.59 175.51 3141.46 172.146 3141.46 168.781V17.9439C3141.46 14.0188 3142.59 10.6544 3145.39 8.41145C3148.19 5.60778 3151.56 4.48633 3154.92 4.48633H3175.11Z" fill="black"/>
<path d="M3232.3 105.418C3236.22 105.418 3239.58 106.539 3241.83 109.343C3244.63 112.147 3245.75 115.511 3245.75 118.876C3245.75 125.044 3247.99 130.651 3251.92 135.137C3255.84 139.623 3261.45 141.305 3268.18 141.305C3273.79 141.305 3278.83 140.744 3283.32 139.062C3287.24 137.38 3289.48 134.576 3289.48 130.09C3289.48 127.287 3288.36 125.044 3286.68 123.361C3285 121.679 3282.2 119.997 3279.39 118.315C3276.59 117.193 3273.22 116.072 3269.86 114.95C3266.5 113.829 3263.13 113.268 3259.77 112.708C3252.48 111.025 3245.19 108.782 3238.46 105.979C3231.73 103.175 3225.57 99.25 3219.96 94.7641C3214.35 90.2782 3210.43 84.1101 3207.06 77.3813C3203.7 70.6525 3202.02 62.8022 3202.02 53.2697C3202.02 44.8587 3203.7 37.0085 3207.63 30.2797C3211.55 23.5509 3216.04 17.9435 3222.2 13.4577C3228.37 8.97179 3235.1 5.60737 3242.95 3.36444C3250.8 1.1215 3258.65 0 3267.06 0C3279.95 0 3290.61 2.24297 3299.58 6.16811C3307.99 10.0932 3314.71 15.1398 3319.76 21.3079C3324.81 27.476 3328.17 34.2048 3330.41 41.4944C3332.66 48.7839 3333.22 55.5127 3333.22 61.6807C3333.22 65.6059 3332.1 68.9703 3329.29 71.2132C3326.49 74.0169 3323.12 75.1384 3319.76 75.1384H3299.58C3298.46 75.1384 3297.33 75.1384 3296.77 75.1384C3302.38 77.3813 3307.99 80.185 3313.03 83.5494C3318.08 86.9138 3322.56 90.2782 3326.49 94.7641C3330.41 99.25 3333.22 104.297 3335.46 109.904C3337.7 115.511 3338.82 122.24 3338.82 130.09C3338.82 140.183 3337.14 149.155 3333.78 155.884C3330.41 163.174 3325.37 168.781 3319.2 173.267C3313.03 177.753 3305.74 181.117 3297.33 183.36C3288.92 185.603 3279.95 186.724 3269.86 186.724C3260.89 186.724 3251.92 185.042 3243.51 181.678C3235.1 178.313 3227.81 173.828 3221.08 167.659C3214.35 161.491 3209.31 154.763 3205.38 146.352C3201.46 137.941 3199.21 128.408 3199.21 118.315C3199.21 114.39 3200.34 111.025 3203.14 108.782C3205.94 105.979 3209.31 104.857 3212.67 104.857H3232.3V105.418ZM3276.03 68.9703C3278.83 69.531 3281.63 70.6525 3284.44 71.2132C3287.24 71.7739 3290.04 72.8954 3292.85 74.0169C3288.36 71.2132 3286.12 67.2881 3286.12 61.6807C3286.12 56.6341 3284.44 52.709 3280.51 49.9054C3276.59 47.1017 3272.66 45.9802 3267.62 45.9802C3263.13 45.9802 3259.21 46.5409 3255.84 47.6624C3252.48 48.7839 3250.24 50.4661 3250.24 53.2697C3250.24 55.5127 3250.8 57.7556 3252.48 59.4378C3254.16 61.12 3256.4 62.2415 3258.65 63.363C3261.45 64.4844 3264.25 65.6059 3267.06 66.1666C3270.42 67.8488 3273.22 68.4096 3276.03 68.9703Z" fill="black"/>
<path d="M3392.65 4.48557C3396.57 4.48557 3399.38 5.60702 3402.18 8.41069C3404.98 11.2144 3406.11 14.018 3406.11 17.9432V57.1945C3413.96 49.3443 3421.8 40.9333 3430.21 32.5223C3438.06 24.1113 3446.47 16.261 3454.32 8.41069C3454.88 7.84996 3456.57 6.72849 3458.81 5.60702C3461.05 4.48556 3462.73 3.9248 3463.86 3.9248H3490.77C3494.13 3.9248 3496.94 4.48559 3499.18 6.16779C3501.42 7.84999 3503.1 9.53214 3504.22 12.3358C3505.35 14.5787 3505.35 17.3825 3504.78 20.1861C3504.22 22.9898 3503.1 25.7934 3500.86 28.0364L3448.16 80.1847L3504.22 161.491C3505.91 163.734 3507.03 166.538 3507.03 168.781C3507.03 171.584 3506.47 173.827 3505.91 175.509C3504.79 177.752 3503.1 179.435 3500.86 180.556C3498.62 181.677 3496.37 182.799 3493.01 182.799H3467.22C3465.54 182.799 3463.29 182.238 3461.05 180.556C3458.81 179.435 3457.13 177.752 3456.01 176.631L3414.52 113.829C3413.39 114.95 3412.27 116.072 3410.59 117.754C3408.91 118.875 3407.79 120.557 3406.67 121.679V168.781C3406.67 172.706 3405.54 176.07 3402.74 178.313C3399.94 181.117 3397.13 182.238 3393.21 182.238H3373.03C3369.1 182.238 3366.3 181.117 3363.49 178.313C3360.69 175.509 3359.57 172.145 3359.57 168.781V17.9432C3359.57 14.018 3360.69 10.6536 3363.49 8.41069C3366.3 5.60702 3369.1 4.48557 3373.03 4.48557H3392.65Z" fill="black"/>
<path d="M3536.74 4.48557C3538.99 4.48557 3541.23 5.04627 3543.47 6.72847C3546.28 8.41068 3547.96 10.0929 3548.52 11.7751L3575.99 62.8019C3580.48 54.3909 3584.96 45.9799 3590.01 37.0082C3594.49 28.5971 3598.98 20.1861 3604.03 11.2144C3604.59 9.53216 3606.83 7.84999 3609.07 6.16779C3611.87 4.48559 3614.12 3.9248 3615.8 3.9248H3640.47C3643.27 3.9248 3646.08 4.48556 3648.32 5.60702C3650.56 6.72849 3652.24 8.41074 3653.36 10.6537C3654.49 12.8966 3655.05 15.1395 3655.05 17.3825C3655.05 19.6254 3654.49 22.4291 3652.8 24.672L3600.1 111.586V168.22C3600.1 172.145 3598.98 175.509 3596.18 177.752C3593.37 180.556 3590.01 181.678 3586.64 181.678H3566.46C3562.53 181.678 3559.17 180.556 3556.93 177.752C3554.12 174.949 3553 171.584 3553 168.22V111.586C3544.03 97.0067 3535.62 82.4276 3526.65 67.8485C3517.68 53.2694 3509.27 38.6904 3500.3 24.672C3498.62 22.4291 3498.06 19.6254 3498.06 17.3825C3498.06 15.1395 3498.62 12.8966 3499.74 10.6537C3500.86 8.41074 3502.54 6.72849 3504.78 5.60702C3507.03 4.48556 3509.27 3.9248 3512.07 3.9248H3536.74V4.48557Z" fill="black"/>
<path d="M2009.45 182.8C2006.65 182.8 2003.85 181.678 2001.04 179.435C1998.24 177.192 1996.56 174.949 1996 172.146L1980.86 105.979C1978.06 117.194 1975.25 128.409 1972.45 139.062C1969.65 149.716 1966.84 160.931 1964.04 172.146C1963.48 174.949 1961.24 177.192 1958.99 179.435C1956.19 181.678 1953.39 182.8 1950.58 182.8H1929.28C1926.47 182.8 1923.67 181.678 1920.87 179.435C1918.06 177.192 1916.38 174.949 1915.82 172.146L1899.56 105.979C1897.32 117.194 1894.51 127.848 1892.27 139.062C1889.47 150.277 1887.23 160.931 1884.98 172.146C1884.42 174.949 1882.18 177.192 1879.94 179.435C1877.13 181.678 1874.33 182.8 1871.53 182.8H1848.54C1844.05 182.8 1840.13 181.117 1837.33 177.753C1834.52 174.389 1833.96 170.464 1835.08 165.978L1872.65 14.5796C1873.21 11.7759 1875.45 9.53293 1877.69 7.29C1880.5 5.04706 1883.3 4.48633 1886.1 4.48633H1907.97C1910.77 4.48633 1913.58 5.6078 1916.38 7.29C1919.18 9.53293 1920.87 11.7759 1921.43 14.5796L1939.93 86.3535C1943.29 74.0174 1946.1 62.2419 1948.9 50.4665C1951.7 38.6911 1955.07 26.355 1958.43 14.5796C1958.99 11.7759 1961.24 9.53293 1963.48 7.29C1966.28 5.04706 1969.08 4.48633 1971.89 4.48633H1993.75C1996.56 4.48633 1999.36 5.6078 2002.16 7.29C2004.97 9.53293 2006.65 11.7759 2007.21 14.5796L2044.78 165.978C2045.9 170.464 2045.34 174.389 2042.53 177.753C2039.73 181.117 2036.37 182.8 2031.32 182.8H2009.45Z" fill="black"/>
</svg>
