<svg width="1588" height="1471" viewBox="0 0 1588 1471" fill="none" xmlns="http://www.w3.org/2000/svg">
<g clip-path="url(#clip0_26_9)">
<path d="M1338.19 939.24C1348.29 961.49 1357.59 980.619 1365.73 1000.24C1382.11 1039.72 1397.86 1079.45 1413.85 1119.09C1414.52 1120.74 1415 1122.46 1415.58 1124.15C1422.9 1145.27 1426.38 1166.35 1408.58 1184.15C1390.78 1201.95 1369.58 1198.15 1348.58 1190.75C1283.85 1168.08 1219.12 1145.38 1154.41 1122.65C1150.29 1121.21 1146.06 1120.1 1139.93 1118.25C1140.32 1123.73 1140.31 1127.53 1140.93 1131.25C1151.11 1197.25 1161.49 1263.25 1171.45 1329.36C1173.37 1342.09 1174.81 1355.09 1174.45 1367.92C1173.45 1405.85 1139.07 1424.92 1107.9 1403.41C1084.96 1387.56 1063.81 1368.61 1043.9 1348.98C1003.83 1309.48 956.96 1279.65 909.61 1250.29C908.52 1249.61 907.14 1249.4 904.17 1248.38C902.32 1253.13 900.1 1257.74 898.71 1262.59C883.483 1315.68 868.31 1368.78 853.19 1421.9C850.74 1430.44 848.39 1439.14 844.69 1447.17C838.31 1461.02 827.6 1470.05 811.69 1470.61C795.18 1471.18 783.27 1462.7 776.55 1448.43C771.29 1437.25 768.33 1424.97 764.55 1413.13C746.81 1358.07 729.077 1303.01 711.35 1247.94C710.02 1243.81 707.82 1239.94 705.58 1234.94C702.38 1237.22 699.7 1238.65 697.58 1240.68C649.72 1287.28 601.74 1333.76 554.21 1380.68C538.66 1396.04 522.69 1409.86 499.21 1401.27C476.1 1392.83 469.57 1372.37 469.21 1350.57C468.21 1292.69 468.42 1234.78 468.21 1176.89C468.21 1164.51 468.21 1152.14 468.21 1137.97C462.03 1138.97 457.75 1139.39 453.64 1140.45C390.31 1156.94 327.02 1173.6 263.64 1190.03C245.96 1194.61 228.16 1198.73 210.36 1202.83C187.36 1208.13 171.36 1202.76 162.31 1186.96C153.43 1171.49 157.31 1154.36 173.87 1137.8C223.71 1088.1 273.6 1038.46 323.54 988.879C326.32 986.119 328.91 983.169 332.9 978.879C328.23 977.689 325.14 976.529 321.96 976.149C260.04 968.739 198.1 961.52 136.2 953.99C124.73 952.59 113.13 950.99 102.07 947.82C63.23 936.72 52.13 898.289 81.45 870.459C106.78 846.339 135.02 825.05 163 803.75C186 786.25 210.52 770.68 234.31 754.18C236.71 752.52 238.76 750.359 242.31 747.289C236.96 744.929 233.07 743.17 229.14 741.49C174.21 718.05 119.15 695.049 64.52 671.049C50.36 664.829 37.03 656.29 24.26 647.45C8.01 636.21 -2.51 620.99 0.53 599.94C3.59 578.71 18.17 566.27 37.24 561.94C70.98 554.21 105.13 546.84 139.51 543.7C180.69 539.95 222.28 540.78 263.7 539.7C267.98 539.58 272.28 539.7 279.39 539.7C275.73 533.21 273.93 528.779 271.09 525.159C232.07 475.413 192.967 425.763 153.78 376.21C146.6 367.13 138.46 358.74 131.94 349.21C113.02 321.62 124.88 289.92 157.94 285.78C186.45 282.21 215.72 283.32 244.57 284.37C296.66 286.26 348.69 289.66 400.74 292.37C402.91 292.49 405.09 292.2 408.89 292.02C408.89 288.31 408.82 284.969 408.89 281.629C410.18 225.549 411.33 169.469 412.98 113.399C413.377 105.828 414.953 98.3652 417.65 91.2795C427.58 63.6795 458.22 56.2795 479.05 76.8295C488.49 86.1595 496.31 97.1895 504.35 107.829C530.35 142.309 556.1 176.979 581.98 211.549C582.98 212.889 584.43 213.919 587.19 216.549C589.27 211.029 591.07 206.729 592.52 202.319C609.39 151.139 626.09 99.8995 643.15 48.7795C646.38 39.1195 649.92 29.2595 655.15 20.6195C670.96 -5.46051 702.38 -7.12051 720.64 17.2495C727.438 26.6233 733.072 36.7876 737.42 47.5195C755.54 90.6395 773.04 134.049 790.78 177.27C792.56 181.61 794.26 185.979 797.09 193.079C807.52 176.469 816.29 162.2 825.35 148.13C846.35 115.56 867.25 82.9395 888.68 50.6595C894.855 41.3887 901.922 32.7442 909.78 24.8495C937.2 -2.6405 973.05 3.5495 988.97 39.0995C994.846 52.5704 998.912 66.7606 1001.06 81.2995C1005.86 112.529 1008.99 144.01 1012.76 175.4C1013.34 180.18 1013.66 184.98 1014.25 191.51C1018.51 189.66 1021.55 188.51 1024.47 187.04C1092.36 153.64 1160.18 120.039 1228.22 86.9495C1237.91 82.4217 1248.07 78.9711 1258.52 76.6595C1304.99 65.6595 1337.8 95.3995 1327.86 141.889C1321.96 169.519 1311.07 196.189 1301.16 222.829C1295.16 238.919 1286.77 254.1 1278.79 271.09C1287.79 271.09 1295.12 271.62 1302.37 271C1343.2 267.49 1384 263.569 1424.84 260.099C1434.57 259.269 1444.5 258.629 1454.16 259.629C1488.89 263.229 1509.16 292.039 1499.09 325.419C1494.81 339.619 1487.91 353.969 1478.82 365.599C1448.39 404.539 1416.45 442.279 1385.08 480.479C1382.88 483.149 1380.67 485.799 1377.21 489.969C1382.51 492.439 1386.59 494.729 1390.94 496.299C1441.61 514.599 1492.31 532.856 1543.04 551.07C1550.56 553.79 1558.18 556.579 1565.12 560.479C1579.33 568.479 1587.7 580.559 1587.2 597.479C1586.7 614.399 1577.37 625.989 1562.63 632.769C1553.4 637.009 1543.36 639.62 1533.5 642.31C1484.99 655.54 1436.42 668.55 1387.69 681.68C1387.86 683.52 1387.53 685.079 1388.16 685.959C1430.99 746.179 1473.86 806.366 1516.77 866.519C1519.87 870.869 1522.92 875.269 1525.77 879.789C1535.17 894.599 1538.87 910.24 1530.24 926.56C1521.35 943.4 1505.9 950.059 1487.86 949.209C1449.16 947.389 1410.5 944.539 1371.86 942.029C1361.69 941.319 1351.57 940.34 1338.19 939.24ZM1327.59 1106.62C1328.59 1105.53 1329.66 1104.43 1330.69 1103.34C1324.63 1088.63 1318.88 1073.79 1312.44 1059.25C1294.94 1019.78 1276.69 980.63 1259.87 940.87C1256.74 933.46 1256.39 922.869 1259.12 915.409C1263.62 903.029 1271.52 891.859 1278.29 880.359C1284.72 869.469 1294.19 864.07 1307.19 864.95C1333.4 866.73 1359.63 868.25 1385.86 869.82C1400.15 870.67 1414.46 871.4 1431.06 872.31C1427.86 866.5 1426.65 863.679 1424.91 861.229C1389.37 811.129 1355.59 759.64 1317.43 711.62C1297.93 687.08 1302.35 664.749 1311.15 640.959C1313.98 633.299 1323.85 625.57 1332.08 623.07C1362.29 613.9 1393.17 606.95 1423.75 599.07C1427.15 598.19 1430.28 596.319 1435.83 593.909L1425.78 589.57C1392.61 575.43 1358.92 562.349 1326.4 546.839C1291.9 530.399 1284.06 486.39 1308.64 457.33C1339.12 421.283 1369.45 385.116 1399.64 348.829C1401.94 346.079 1403.52 342.719 1406.33 338.229C1401.26 337.959 1398.65 337.55 1396.08 337.72C1345.41 341.053 1294.77 344.403 1244.14 347.77C1204.23 350.47 1176.98 310.479 1194.34 274.699C1210.87 240.699 1227.28 206.616 1243.59 172.449C1245.46 168.519 1246.12 164.019 1247.98 157.549C1241.3 160.119 1237.43 161.21 1233.98 163.01C1169.44 196.16 1104.51 228.589 1040.75 263.169C1023.34 272.609 1007.55 276.669 988.98 271.049C985.59 270.049 981.98 269.65 978.51 268.96C952.6 263.87 946.57 257.759 943.98 231.099C941.87 209.389 941.11 187.55 939.27 165.82C937.81 148.55 935.62 131.339 933.75 114.109C926.5 119.819 922.46 125.6 918.67 131.54C891.81 173.54 864.67 215.4 838.38 257.81C828.13 274.38 815.05 282.86 795.43 280.53C790.127 279.821 784.78 279.487 779.43 279.53C761.2 279.95 751.05 270.4 744.84 253.99C730.17 215.28 714.84 176.829 699.67 138.299C697.99 134.009 695.87 129.889 692.32 122.129C686.5 138.829 682.21 151.779 677.49 164.579C663.33 203.009 649.49 241.579 634.3 279.579C631.19 287.309 623.52 295.579 615.95 298.579C605.1 302.859 592.46 303.11 580.5 303.93C565.96 304.93 553.27 300.42 544.41 287.93C529.99 267.59 515.563 247.256 501.13 226.93C498.01 222.54 494.86 218.16 491.72 213.77L487.94 215.229C488.8 233.229 490.94 251.229 490.15 269.229C489.29 288.609 491.25 311.299 481.97 326.389C467.67 349.639 446.54 370.639 413.97 368.329C357.13 364.303 300.293 360.209 243.46 356.049C240.21 355.819 236.93 356.049 231.02 356.049C235.43 361.499 238.15 364.81 240.81 368.15C271.02 406.15 300.59 444.619 331.61 481.899C358.83 514.609 361.72 547.73 341.61 585.19C332.44 602.26 319.37 609.899 302.1 612.709C292.95 614.199 283.45 613.659 274.1 613.769C233.1 614.259 192.1 614.549 151.16 615.169C144.46 615.269 137.78 616.66 131.09 617.45C147.52 627.32 164.24 634.45 181 641.45C222.07 658.61 264.08 673.85 304 693.37C347 714.37 348.35 766.62 309 793.18C269.09 820.05 229.47 847.279 189.78 874.459C186.51 876.699 183.6 879.46 178.3 883.76C202.69 886.43 223.47 888.709 244.3 890.959C287.65 895.659 330.91 901.79 374.38 904.37C394.17 905.54 407.54 911.719 416.38 928.799C418.38 932.799 420.75 936.57 422.82 940.51C437.54 968.51 436.05 981.38 413.75 1003.68C386.03 1031.41 357.75 1058.55 329.75 1086C326.57 1089.12 323.75 1092.61 318.38 1098.61C324.96 1097.24 327.53 1096.79 330.06 1096.17C365.06 1087.54 400.53 1080.37 434.95 1069.84C472.06 1058.5 499.57 1071.04 524.6 1097.31C534.79 1108 540.71 1118.91 540.48 1133.78C539.88 1172.08 539.87 1210.4 539.68 1248.71C539.6 1263.05 539.68 1277.39 539.68 1293.71C543.68 1290.49 546.18 1288.8 548.31 1286.71C580.38 1255.79 612.08 1224.48 644.54 1193.97C685.09 1155.85 673.92 1154.5 738.54 1167.61C749.75 1169.89 757.23 1175.21 761.54 1185.46C772.02 1210.46 782.64 1235.46 792.84 1260.64C797.63 1272.45 801.6 1284.64 807.3 1300.35C810.3 1291.82 811.98 1286.99 813.72 1282.18C824.02 1253.74 834.93 1225.49 844.46 1196.79C852.85 1171.51 868.76 1157.42 895.88 1156.51C901.58 1156.31 907.28 1154.59 912.88 1153.14C928.55 1149.07 940.88 1154.26 953.33 1164.14C994.11 1196.53 1035.71 1227.9 1077.08 1259.53C1081.02 1262.53 1085.63 1264.67 1091.84 1268.33C1091.49 1263.23 1091.52 1261.07 1091.17 1258.97C1084.35 1218.15 1078.96 1176.97 1070.17 1136.61C1062.25 1100.17 1074.35 1074.61 1104.28 1054.74C1117.69 1045.85 1130.74 1041.51 1146.86 1046.92C1191.6 1061.92 1236.6 1076.12 1281.46 1090.77C1296.84 1095.88 1312.19 1101.35 1327.59 1106.62Z" fill="black"/>
<path d="M1327.65 1105.45C1312.25 1100.18 1296.9 1094.71 1281.42 1089.66C1236.56 1075.01 1191.56 1060.81 1146.82 1045.81C1130.7 1040.4 1117.65 1044.74 1104.24 1053.63C1074.31 1073.46 1062.24 1099.06 1070.13 1135.5C1078.91 1175.9 1084.3 1217.04 1091.13 1257.86C1091.48 1259.96 1091.45 1262.12 1091.8 1267.22C1085.59 1263.56 1080.98 1261.43 1077.04 1258.42C1035.67 1226.79 994.04 1195.42 953.29 1163.03C940.79 1153.11 928.51 1147.92 912.84 1152.03C907.25 1153.48 901.55 1155.2 895.84 1155.4C868.72 1156.31 852.84 1170.4 844.42 1195.68C834.89 1224.38 823.98 1252.68 813.68 1281.07C811.94 1285.88 810.27 1290.71 807.26 1299.24C801.56 1283.49 797.59 1271.34 792.8 1259.53C782.6 1234.38 771.98 1209.39 761.5 1184.35C757.2 1174.1 749.72 1168.78 738.5 1166.5C673.92 1153.39 685.09 1154.74 644.5 1192.86C612.04 1223.37 580.34 1254.68 548.27 1285.6C546.14 1287.6 543.66 1289.33 539.64 1292.6C539.64 1276.31 539.57 1261.97 539.64 1247.6C539.83 1209.29 539.84 1170.97 540.44 1132.67C540.67 1117.8 534.75 1106.89 524.56 1096.2C499.56 1069.93 472.02 1057.39 434.91 1068.73C400.49 1079.26 365.03 1086.43 330.02 1095.06C327.49 1095.68 324.92 1096.13 318.34 1097.5C323.72 1091.5 326.53 1088.01 329.71 1084.89C357.71 1057.44 386.01 1030.3 413.71 1002.57C436.01 980.27 437.5 967.43 422.78 939.4C420.71 935.46 418.39 931.64 416.34 927.69C407.49 910.61 394.12 904.43 374.34 903.26C330.87 900.68 287.61 894.55 244.26 889.85C223.47 887.6 202.69 885.32 178.26 882.65C183.56 878.33 186.47 875.59 189.74 873.35C229.42 846.17 269.04 818.9 308.91 792C348.29 765.44 346.91 713.2 303.91 692.19C263.99 672.67 221.98 657.43 180.91 640.27C164.15 633.27 147.43 626.15 131 616.27C137.69 615.48 144.37 614.09 151.07 613.99C192.07 613.37 233.07 613.08 274.01 612.59C283.36 612.48 292.86 613.02 302.01 611.53C319.28 608.72 332.35 601.08 341.52 584.01C361.64 546.55 358.75 513.43 331.52 480.72C300.65 443.39 271.08 404.88 240.84 366.88C238.18 363.54 235.46 360.23 231.05 354.78C236.96 354.78 240.24 354.58 243.49 354.78C300.33 358.867 357.167 362.98 414 367.12C446.55 369.43 467.68 348.43 482 325.18C491.28 310.09 489.32 287.4 490.18 268.02C490.98 250.09 488.83 232.02 487.97 214.02L491.75 212.56C494.89 216.95 498.04 221.33 501.16 225.72C515.587 246.047 530.013 266.38 544.44 286.72C553.3 299.22 565.99 303.72 580.53 302.72C592.53 301.9 605.13 301.65 615.98 297.37C623.55 294.37 631.22 286.1 634.33 278.37C649.57 240.37 663.33 201.79 677.52 163.37C682.24 150.57 686.52 137.62 692.35 120.92C695.9 128.68 698.02 132.8 699.7 137.09C714.84 175.7 730.21 214.15 744.84 252.88C751.05 269.29 761.2 278.88 779.43 278.42C784.78 278.378 790.127 278.712 795.43 279.42C815.05 281.75 828.13 273.27 838.38 256.7C864.62 214.29 891.81 172.46 918.67 130.43C922.46 124.49 926.5 118.71 933.75 113C935.62 130.23 937.81 147.44 939.27 164.71C941.11 186.44 941.87 208.28 943.98 229.99C946.57 256.65 952.6 262.76 978.51 267.85C982.01 268.54 985.59 268.91 988.98 269.94C1007.55 275.56 1023.34 271.5 1040.75 262.06C1104.51 227.48 1169.44 195.06 1233.98 161.9C1237.48 160.1 1241.35 159.01 1247.98 156.44C1246.12 162.91 1245.46 167.44 1243.59 171.34C1227.31 205.48 1210.89 239.563 1194.34 273.59C1176.98 309.37 1204.23 349.36 1244.14 346.66C1294.81 343.24 1345.45 339.89 1396.08 336.61C1398.65 336.44 1401.26 336.85 1406.33 337.12C1403.52 341.61 1401.94 344.97 1399.64 347.72C1369.36 383.953 1339.03 420.12 1308.64 456.22C1284.06 485.28 1291.9 529.29 1326.4 545.73C1358.92 561.24 1392.61 574.32 1425.78 588.46L1435.85 592.75C1430.3 595.16 1427.17 597.03 1423.77 597.91C1393.19 605.84 1362.31 612.79 1332.1 621.91C1323.87 624.41 1314 632.14 1311.17 639.8C1302.37 663.59 1297.95 685.92 1317.45 710.46C1355.61 758.46 1389.39 809.97 1424.93 860.07C1426.67 862.52 1427.88 865.34 1431.08 871.15C1414.48 870.24 1400.17 869.51 1385.88 868.66C1359.65 867.09 1333.42 865.57 1307.21 863.79C1294.21 862.91 1284.74 868.31 1278.31 879.2C1271.54 890.7 1263.64 901.87 1259.14 914.25C1256.41 921.76 1256.76 932.25 1259.89 939.71C1276.71 979.47 1294.96 1018.62 1312.46 1058.09C1318.9 1072.63 1324.65 1087.47 1330.71 1102.18C1329.72 1103.26 1328.69 1104.36 1327.65 1105.45Z" fill="#FFFF3C"/>
</g>
<defs>
<clipPath id="clip0_26_9">
<rect width="1587.2" height="1470.56" fill="white"/>
</clipPath>
</defs>
</svg>
