<svg width="1588" height="1471" viewBox="0 0 1588 1471" fill="none" xmlns="http://www.w3.org/2000/svg">
<g clip-path="url(#clip0_26_2)">
<path d="M1338.19 939.24C1348.29 961.49 1357.59 980.619 1365.73 1000.24C1382.11 1039.72 1397.86 1079.45 1413.85 1119.09C1414.52 1120.74 1415 1122.46 1415.58 1124.15C1422.9 1145.27 1426.38 1166.35 1408.58 1184.15C1390.78 1201.95 1369.58 1198.15 1348.58 1190.75C1283.85 1168.08 1219.12 1145.38 1154.41 1122.65C1150.29 1121.21 1146.06 1120.1 1139.93 1118.25C1140.32 1123.73 1140.31 1127.53 1140.93 1131.25C1151.11 1197.25 1161.49 1263.25 1171.45 1329.36C1173.37 1342.09 1174.81 1355.09 1174.45 1367.92C1173.45 1405.85 1139.07 1424.92 1107.9 1403.41C1084.96 1387.56 1063.81 1368.61 1043.9 1348.98C1003.83 1309.48 956.96 1279.65 909.61 1250.29C908.52 1249.61 907.14 1249.4 904.17 1248.38C902.32 1253.13 900.1 1257.74 898.71 1262.59C883.483 1315.68 868.31 1368.78 853.19 1421.9C850.74 1430.44 848.39 1439.14 844.69 1447.17C838.31 1461.02 827.6 1470.05 811.69 1470.61C795.18 1471.18 783.27 1462.7 776.55 1448.43C771.29 1437.25 768.33 1424.97 764.55 1413.13C746.81 1358.07 729.077 1303.01 711.35 1247.94C710.02 1243.81 707.82 1239.94 705.58 1234.94C702.38 1237.22 699.7 1238.65 697.58 1240.68C649.72 1287.28 601.74 1333.76 554.21 1380.68C538.66 1396.04 522.69 1409.86 499.21 1401.27C476.1 1392.83 469.57 1372.37 469.21 1350.57C468.21 1292.69 468.42 1234.78 468.21 1176.89C468.21 1164.51 468.21 1152.14 468.21 1137.97C462.03 1138.97 457.75 1139.39 453.64 1140.45C390.31 1156.94 327.02 1173.6 263.64 1190.03C245.96 1194.61 228.16 1198.73 210.36 1202.83C187.36 1208.13 171.36 1202.76 162.31 1186.96C153.43 1171.49 157.31 1154.36 173.87 1137.8C223.71 1088.1 273.6 1038.46 323.54 988.879C326.32 986.119 328.91 983.169 332.9 978.879C328.23 977.689 325.14 976.529 321.96 976.149C260.04 968.739 198.1 961.52 136.2 953.99C124.73 952.59 113.13 950.99 102.07 947.82C63.2299 936.72 52.13 898.289 81.45 870.459C106.78 846.339 135.02 825.05 163 803.75C186 786.25 210.52 770.68 234.31 754.18C236.71 752.52 238.76 750.359 242.31 747.289C236.96 744.929 233.07 743.17 229.14 741.49C174.21 718.05 119.15 695.049 64.52 671.049C50.36 664.829 37.03 656.29 24.26 647.45C8.00995 636.21 -2.51005 620.99 0.529954 599.94C3.58995 578.71 18.17 566.27 37.24 561.94C70.98 554.21 105.13 546.84 139.51 543.7C180.69 539.95 222.28 540.78 263.7 539.7C267.98 539.58 272.28 539.7 279.39 539.7C275.73 533.21 273.93 528.779 271.09 525.159C232.07 475.413 192.967 425.763 153.78 376.21C146.6 367.13 138.46 358.74 131.94 349.21C113.02 321.62 124.88 289.92 157.94 285.78C186.45 282.21 215.72 283.32 244.57 284.37C296.66 286.26 348.69 289.66 400.74 292.37C402.91 292.49 405.09 292.2 408.89 292.02C408.89 288.31 408.82 284.969 408.89 281.629C410.18 225.549 411.33 169.469 412.98 113.399C413.377 105.828 414.953 98.3652 417.65 91.2795C427.58 63.6795 458.22 56.2795 479.05 76.8295C488.49 86.1595 496.31 97.1895 504.35 107.829C530.35 142.309 556.1 176.979 581.98 211.549C582.98 212.889 584.43 213.919 587.19 216.549C589.27 211.029 591.07 206.729 592.52 202.319C609.39 151.139 626.09 99.8995 643.15 48.7795C646.38 39.1195 649.92 29.2595 655.15 20.6195C670.96 -5.46051 702.38 -7.12051 720.64 17.2495C727.438 26.6233 733.072 36.7876 737.42 47.5195C755.54 90.6395 773.04 134.049 790.78 177.27C792.56 181.61 794.26 185.979 797.09 193.079C807.52 176.469 816.29 162.2 825.35 148.13C846.35 115.56 867.25 82.9395 888.68 50.6595C894.855 41.3887 901.922 32.7442 909.78 24.8495C937.2 -2.6405 973.05 3.5495 988.97 39.0995C994.846 52.5704 998.912 66.7606 1001.06 81.2995C1005.86 112.529 1008.99 144.01 1012.76 175.4C1013.34 180.18 1013.66 184.98 1014.25 191.51C1018.51 189.66 1021.55 188.51 1024.47 187.04C1092.36 153.64 1160.18 120.039 1228.22 86.9495C1237.91 82.4217 1248.07 78.9711 1258.52 76.6595C1304.99 65.6595 1337.8 95.3995 1327.86 141.889C1321.96 169.519 1311.07 196.189 1301.16 222.829C1295.16 238.919 1286.77 254.1 1278.79 271.09C1287.79 271.09 1295.12 271.62 1302.37 271C1343.2 267.49 1384 263.569 1424.84 260.099C1434.57 259.269 1444.5 258.629 1454.16 259.629C1488.89 263.229 1509.16 292.039 1499.09 325.419C1494.81 339.619 1487.91 353.969 1478.82 365.599C1448.39 404.539 1416.45 442.279 1385.08 480.479C1382.88 483.149 1380.67 485.799 1377.21 489.969C1382.51 492.439 1386.59 494.729 1390.94 496.299C1441.61 514.599 1492.31 532.856 1543.04 551.07C1550.56 553.79 1558.18 556.579 1565.12 560.479C1579.33 568.479 1587.7 580.559 1587.2 597.479C1586.7 614.399 1577.37 625.989 1562.63 632.769C1553.4 637.009 1543.36 639.62 1533.5 642.31C1484.99 655.54 1436.42 668.55 1387.69 681.68C1387.86 683.52 1387.53 685.079 1388.16 685.959C1430.99 746.179 1473.86 806.366 1516.77 866.519C1519.87 870.869 1522.92 875.269 1525.77 879.789C1535.17 894.599 1538.87 910.24 1530.24 926.56C1521.35 943.4 1505.9 950.059 1487.86 949.209C1449.16 947.389 1410.5 944.539 1371.86 942.029C1361.69 941.319 1351.57 940.34 1338.19 939.24ZM1327.59 1106.62C1328.59 1105.53 1329.66 1104.43 1330.69 1103.34C1324.63 1088.63 1318.88 1073.79 1312.44 1059.25C1294.94 1019.78 1276.69 980.63 1259.87 940.87C1256.74 933.46 1256.39 922.869 1259.12 915.409C1263.62 903.029 1271.52 891.859 1278.29 880.359C1284.72 869.469 1294.19 864.07 1307.19 864.95C1333.4 866.73 1359.63 868.25 1385.86 869.82C1400.15 870.67 1414.46 871.4 1431.06 872.31C1427.86 866.5 1426.65 863.679 1424.91 861.229C1389.37 811.129 1355.59 759.64 1317.43 711.62C1297.93 687.08 1302.35 664.749 1311.15 640.959C1313.98 633.299 1323.85 625.57 1332.08 623.07C1362.29 613.9 1393.17 606.95 1423.75 599.07C1427.15 598.19 1430.28 596.319 1435.83 593.909L1425.78 589.57C1392.61 575.43 1358.92 562.349 1326.4 546.839C1291.9 530.399 1284.06 486.39 1308.64 457.33C1339.12 421.283 1369.45 385.116 1399.64 348.829C1401.94 346.079 1403.52 342.719 1406.33 338.229C1401.26 337.959 1398.65 337.55 1396.08 337.72C1345.41 341.053 1294.77 344.403 1244.14 347.77C1204.23 350.47 1176.98 310.479 1194.34 274.699C1210.87 240.699 1227.28 206.616 1243.59 172.449C1245.46 168.519 1246.12 164.019 1247.98 157.549C1241.3 160.119 1237.43 161.21 1233.98 163.01C1169.44 196.16 1104.51 228.589 1040.75 263.169C1023.34 272.609 1007.55 276.669 988.98 271.049C985.59 270.049 981.98 269.65 978.51 268.96C952.6 263.87 946.57 257.759 943.98 231.099C941.87 209.389 941.11 187.55 939.27 165.82C937.81 148.55 935.62 131.339 933.75 114.109C926.5 119.819 922.46 125.6 918.67 131.54C891.81 173.54 864.67 215.4 838.38 257.81C828.13 274.38 815.05 282.86 795.43 280.53C790.127 279.821 784.78 279.487 779.43 279.53C761.2 279.95 751.05 270.4 744.84 253.99C730.17 215.28 714.84 176.829 699.67 138.299C697.99 134.009 695.87 129.889 692.32 122.129C686.5 138.829 682.21 151.779 677.49 164.579C663.33 203.009 649.49 241.579 634.3 279.579C631.19 287.309 623.52 295.579 615.95 298.579C605.1 302.859 592.46 303.11 580.5 303.93C565.96 304.93 553.27 300.42 544.41 287.93C529.99 267.59 515.563 247.256 501.13 226.93C498.01 222.54 494.86 218.16 491.72 213.77L487.94 215.229C488.8 233.229 490.94 251.229 490.15 269.229C489.29 288.609 491.25 311.299 481.97 326.389C467.67 349.639 446.54 370.639 413.97 368.329C357.13 364.303 300.293 360.209 243.46 356.049C240.21 355.819 236.93 356.049 231.02 356.049C235.43 361.499 238.15 364.81 240.81 368.15C271.02 406.15 300.59 444.619 331.61 481.899C358.83 514.609 361.72 547.73 341.61 585.19C332.44 602.26 319.37 609.899 302.1 612.709C292.95 614.199 283.45 613.659 274.1 613.769C233.1 614.259 192.1 614.549 151.16 615.169C144.46 615.269 137.78 616.66 131.09 617.45C147.52 627.32 164.24 634.45 181 641.45C222.07 658.61 264.08 673.85 304 693.37C347 714.37 348.35 766.62 309 793.18C269.09 820.05 229.47 847.279 189.78 874.459C186.51 876.699 183.6 879.46 178.3 883.76C202.69 886.43 223.47 888.709 244.3 890.959C287.65 895.659 330.91 901.79 374.38 904.37C394.17 905.54 407.54 911.719 416.38 928.799C418.38 932.799 420.75 936.57 422.82 940.51C437.54 968.51 436.05 981.38 413.75 1003.68C386.03 1031.41 357.75 1058.55 329.75 1086C326.57 1089.12 323.75 1092.61 318.38 1098.61C324.96 1097.24 327.53 1096.79 330.06 1096.17C365.06 1087.54 400.53 1080.37 434.95 1069.84C472.06 1058.5 499.57 1071.04 524.6 1097.31C534.79 1108 540.71 1118.91 540.48 1133.78C539.88 1172.08 539.87 1210.4 539.68 1248.71C539.6 1263.05 539.68 1277.39 539.68 1293.71C543.68 1290.49 546.18 1288.8 548.31 1286.71C580.38 1255.79 612.08 1224.48 644.54 1193.97C685.09 1155.85 673.92 1154.5 738.54 1167.61C749.75 1169.89 757.23 1175.21 761.54 1185.46C772.02 1210.46 782.64 1235.46 792.84 1260.64C797.63 1272.45 801.6 1284.64 807.3 1300.35C810.3 1291.82 811.98 1286.99 813.72 1282.18C824.02 1253.74 834.93 1225.49 844.46 1196.79C852.85 1171.51 868.76 1157.42 895.88 1156.51C901.58 1156.31 907.28 1154.59 912.88 1153.14C928.55 1149.07 940.88 1154.26 953.33 1164.14C994.11 1196.53 1035.71 1227.9 1077.08 1259.53C1081.02 1262.53 1085.63 1264.67 1091.84 1268.33C1091.49 1263.23 1091.52 1261.07 1091.17 1258.97C1084.35 1218.15 1078.96 1176.97 1070.17 1136.61C1062.25 1100.17 1074.35 1074.61 1104.28 1054.74C1117.69 1045.85 1130.74 1041.51 1146.86 1046.92C1191.6 1061.92 1236.6 1076.12 1281.46 1090.77C1296.84 1095.88 1312.19 1101.35 1327.59 1106.62Z" fill="black"/>
<path d="M1327.59 1106.62C1312.19 1101.35 1296.84 1095.88 1281.36 1090.83C1236.5 1076.18 1191.5 1061.98 1146.76 1046.98C1130.64 1041.57 1117.59 1045.91 1104.18 1054.8C1074.25 1074.63 1062.18 1100.23 1070.07 1136.67C1078.85 1177.07 1084.24 1218.21 1091.07 1259.03C1091.42 1261.13 1091.39 1263.29 1091.74 1268.39C1085.53 1264.73 1080.92 1262.6 1076.98 1259.59C1035.61 1227.96 993.98 1196.59 953.23 1164.2C940.73 1154.28 928.45 1149.09 912.78 1153.2C907.19 1154.65 901.49 1156.37 895.78 1156.57C868.66 1157.48 852.78 1171.57 844.36 1196.85C834.83 1225.55 823.92 1253.85 813.62 1282.24C811.88 1287.05 810.21 1291.88 807.2 1300.41C801.5 1284.66 797.53 1272.51 792.74 1260.7C782.54 1235.55 771.92 1210.56 761.44 1185.52C757.14 1175.27 749.66 1169.95 738.44 1167.67C673.86 1154.56 685.03 1155.91 644.44 1194.03C611.98 1224.54 580.28 1255.85 548.21 1286.77C546.08 1288.77 543.6 1290.5 539.58 1293.77C539.58 1277.48 539.51 1263.14 539.58 1248.77C539.77 1210.46 539.78 1172.14 540.38 1133.84C540.61 1118.97 534.69 1108.06 524.5 1097.37C499.5 1071.1 471.96 1058.56 434.85 1069.9C400.43 1080.43 364.97 1087.6 329.96 1096.23C327.43 1096.85 324.86 1097.3 318.28 1098.67C323.66 1092.67 326.47 1089.18 329.65 1086.06C357.65 1058.61 385.95 1031.47 413.65 1003.74C435.95 981.44 437.44 968.6 422.72 940.57C420.65 936.63 418.33 932.81 416.28 928.86C407.43 911.78 394.06 905.6 374.28 904.43C330.81 901.85 287.55 895.72 244.2 891.02C223.41 888.77 202.63 886.49 178.2 883.82C183.5 879.5 186.41 876.76 189.68 874.52C229.36 847.34 268.98 820.07 308.85 793.17C348.23 766.61 346.85 714.37 303.85 693.36C263.93 673.84 221.92 658.6 180.85 641.44C164.09 634.44 147.37 627.32 130.94 617.44C137.63 616.65 144.31 615.26 151.01 615.16C192.01 614.54 233.01 614.25 273.95 613.76C283.3 613.65 292.8 614.19 301.95 612.7C319.22 609.89 332.29 602.25 341.46 585.18C361.58 547.72 358.69 514.6 331.46 481.89C300.59 444.56 271.02 406.05 240.78 368.05C238.12 364.71 235.4 361.4 230.99 355.95C236.9 355.95 240.18 355.75 243.43 355.95C300.27 360.037 357.107 364.15 413.94 368.29C446.49 370.6 467.62 349.6 481.94 326.35C491.22 311.26 489.26 288.57 490.12 269.19C490.92 251.26 488.77 233.19 487.91 215.19L491.69 213.73C494.83 218.12 497.98 222.5 501.1 226.89C515.527 247.217 529.953 267.55 544.38 287.89C553.24 300.39 565.93 304.89 580.47 303.89C592.47 303.07 605.07 302.82 615.92 298.54C623.49 295.54 631.16 287.27 634.27 279.54C649.51 241.54 663.27 202.96 677.46 164.54C682.18 151.74 686.46 138.79 692.29 122.09C695.84 129.85 697.96 133.97 699.64 138.26C714.78 176.87 730.15 215.32 744.78 254.05C750.99 270.46 761.14 280.05 779.37 279.59C784.72 279.547 790.067 279.882 795.37 280.59C814.99 282.92 828.07 274.44 838.32 257.87C864.56 215.46 891.75 173.63 918.61 131.6C922.4 125.66 926.44 119.88 933.69 114.17C935.56 131.4 937.75 148.61 939.21 165.88C941.05 187.61 941.81 209.45 943.92 231.16C946.51 257.82 952.54 263.93 978.45 269.02C981.95 269.71 985.53 270.08 988.92 271.11C1007.49 276.73 1023.28 272.67 1040.69 263.23C1104.45 228.65 1169.38 196.23 1233.92 163.07C1237.42 161.27 1241.29 160.18 1247.92 157.61C1246.06 164.08 1245.4 168.61 1243.53 172.51C1227.25 206.65 1210.83 240.733 1194.28 274.76C1176.92 310.54 1204.17 350.53 1244.08 347.83C1294.75 344.41 1345.39 341.06 1396.02 337.78C1398.59 337.61 1401.2 338.02 1406.27 338.29C1403.46 342.78 1401.88 346.14 1399.58 348.89C1369.3 385.123 1338.97 421.29 1308.58 457.39C1284 486.45 1291.84 530.46 1326.34 546.9C1358.86 562.41 1392.55 575.49 1425.72 589.63L1435.79 593.92C1430.24 596.33 1427.11 598.2 1423.71 599.08C1393.13 607.01 1362.25 613.96 1332.04 623.08C1323.81 625.58 1313.94 633.31 1311.11 640.97C1302.31 664.76 1297.89 687.09 1317.39 711.63C1355.55 759.63 1389.33 811.14 1424.87 861.24C1426.61 863.69 1427.82 866.51 1431.02 872.32C1414.42 871.41 1400.11 870.68 1385.82 869.83C1359.59 868.26 1333.36 866.74 1307.15 864.96C1294.15 864.08 1284.68 869.48 1278.25 880.37C1271.48 891.87 1263.58 903.04 1259.08 915.42C1256.35 922.93 1256.7 933.42 1259.83 940.88C1276.65 980.64 1294.9 1019.79 1312.4 1059.26C1318.84 1073.8 1324.59 1088.64 1330.65 1103.35C1329.66 1104.43 1328.63 1105.53 1327.59 1106.62ZM627.28 582.84L631.16 580.98C633.95 584.14 636.88 587.2 639.52 590.5C652.33 606.5 664.97 622.58 677.85 638.5C704.46 671.4 704.42 671.18 742.69 653.43C755.47 647.51 760.81 638.36 758.44 624.6C755.733 608.82 753.007 593.04 750.26 577.26C740.26 519.84 730.237 462.423 720.19 405.01C717.13 387.6 705.42 381.4 688.87 388.28C681.47 391.35 674.12 394.54 666.87 397.91C650.64 405.43 646.69 413.19 650.15 430.91C654.32 452.31 658.8 473.65 662.87 495.07C663.87 500.32 663.76 505.78 664.16 511.14C659.642 509.3 655.733 506.226 652.88 502.27C638.6 484.06 624.88 465.4 609.88 447.76C605.08 442.09 597.5 436.18 590.6 435.36C560.86 431.85 538.23 457.69 543.82 486.51C548.61 511.25 552.65 536.13 557.02 560.95C552.258 559.536 548.103 556.577 545.21 552.54C532.07 535.13 519.12 517.54 506.1 500.08C491.38 480.27 485.69 478.71 463.44 488.41C456.91 491.26 450.27 493.9 443.94 497.15C429.83 504.38 426.51 516.52 436.25 529.09C482.603 588.89 529.17 648.543 575.95 708.05C583.65 717.88 594.1 719.94 604.63 714.41C619.55 706.59 641.03 706.11 643.16 682.67C643.185 680.889 642.987 679.112 642.57 677.38C640.77 666.38 638.89 655.44 637.12 644.46C633.813 623.92 630.533 603.38 627.28 582.84ZM732.87 947.49C731.39 940.43 730.4 937.65 730.27 934.83C729.34 913.92 728.45 893.01 727.78 872.1C726.46 830.38 723.78 827.26 683.15 820.79C682.71 820.72 682.26 820.66 681.83 820.58C670.27 818.58 661.7 822.84 656.38 833.16C651.29 843.06 646.58 853.16 641.71 863.16C615.003 917.98 588.297 972.8 561.59 1027.62C552.46 1046.39 557.59 1056.79 578.14 1061.62C584.2 1063.05 590.35 1064.1 596.43 1065.49C614.83 1069.69 622.56 1066 630.53 1048.87C639.91 1028.69 649.14 1008.44 658.53 988.29C660.19 984.76 662.53 981.57 666.66 974.88C667.8 981.8 668.46 984.29 668.57 986.8C669.66 1011.27 670.64 1035.73 671.67 1060.2C672.33 1075.93 677.78 1082.46 693.28 1086.03C698.92 1087.33 704.58 1088.59 710.28 1089.66C727.08 1092.84 734.12 1089.66 741.66 1074.45C752.37 1052.93 762.66 1031.21 773.3 1009.65C774.79 1006.65 777.17 1004.01 779.14 1001.2L782.99 1002.51C782.99 1026.45 782.87 1050.39 782.99 1074.34C783.17 1100.84 786.46 1104.9 811.65 1110.83C816.85 1112.06 822.06 1113.26 827.3 1114.3C846.3 1118.06 855.47 1110.66 854.84 1091.21C852.7 1025.36 850.61 959.5 847.84 893.67C846.19 854.23 844.84 853.67 805.51 846.67C791.51 844.17 782.24 848.58 776.08 861.11C764.49 884.68 752.71 908.11 740.98 931.64C739.02 935.75 736.85 939.81 732.87 947.49ZM979.33 834.71L975.49 835.18C973.92 831.62 972.26 828.11 970.8 824.51C961.76 802.263 952.76 779.997 943.8 757.71C939.58 747.32 932.24 740.08 920.65 740.96C909.124 741.965 897.711 744.003 886.55 747.05C872.79 750.68 867.72 760.79 873.18 773.66C901.847 841.26 930.68 908.783 959.68 976.23C964.13 986.61 972.1 993.59 983.73 991.05C999.81 987.53 1019.88 992.65 1029.12 972.39C1029.94 970.316 1030.44 968.127 1030.59 965.9C1031.66 956.18 1032.59 946.44 1033.59 936.7C1035.8 914.36 1038.01 892.027 1040.2 869.7C1043.61 871.665 1046.26 874.718 1047.72 878.37C1056.56 898.31 1065.58 918.17 1074.02 938.28C1090.65 977.93 1093.61 974.15 1128.65 968.04C1145.9 965.04 1151.49 959.94 1153.41 942.04C1155.23 925.23 1156.32 908.35 1157.73 891.49C1162.32 836.96 1167.18 782.49 1171.16 727.86C1171.62 721.57 1169.01 713.19 1164.73 708.76C1153.58 697.21 1107.68 708.07 1101.57 722.84C1100.59 725.319 1100.01 727.939 1099.86 730.6C1098.61 747.91 1097.51 765.23 1096.37 782.54C1095.63 793.76 1094.89 804.977 1094.14 816.19C1090.47 814.407 1087.59 811.314 1086.08 807.52C1077.75 788.34 1069.53 769.12 1061.28 749.91C1049.28 721.91 1047.35 720.85 1017.12 725.33C991.61 729.12 986.61 735.24 985.19 760.76C983.78 785.47 981.32 810.05 979.33 834.71ZM801 504.89C801.95 556.61 826.74 605.82 863.47 634.98C876.572 645.42 891.807 652.856 908.098 656.763C924.389 660.67 941.34 660.953 957.752 657.591C974.164 654.229 989.638 647.304 1003.08 637.306C1016.52 627.308 1027.61 614.481 1035.55 599.73C1052.7 568.06 1050.79 535.4 1037.93 502.97C1032.51 489.31 1021.63 486.04 1008.64 492.85C1000.37 497.19 992.16 501.69 984.27 506.68C975.88 511.99 972.59 519.68 975.43 529.68C976.522 533.526 977.39 537.433 978.03 541.38C981.09 559.88 975.4 575.07 959.47 585.2C944.3 594.83 928.37 593.2 914.21 583.33C888.81 565.61 873.6 541 871.27 509.85C869.89 491.48 875.75 475.65 893.66 466.4C911.92 456.97 927.9 458.51 944.17 472.12C949.82 476.85 960.85 478.55 968.33 476.85C977.93 474.67 986.79 468.22 995.33 462.6C1006.22 455.39 1008.33 444.14 999.95 433.85C992.43 424.68 983.95 415.6 974.07 409.16C936.42 384.52 897.79 388.92 860.2 409.29C820.08 431.05 801.72 466.17 801 504.89Z" fill="#FFFF3C"/>
<path d="M627.28 582.84C630.56 603.374 633.84 623.904 637.12 644.43C638.89 655.43 640.77 666.43 642.57 677.35C642.987 679.082 643.185 680.859 643.16 682.64C641.03 706.08 619.55 706.56 604.63 714.38C594.1 719.91 583.63 717.85 575.95 708.02C529.283 648.44 482.717 588.797 436.25 529.09C426.51 516.52 429.83 504.38 443.94 497.15C450.27 493.9 456.94 491.26 463.44 488.41C485.69 478.71 491.38 480.27 506.1 500.08C519.1 517.58 532.1 535.13 545.21 552.54C548.103 556.578 552.258 559.537 557.02 560.95C552.65 536.13 548.61 511.25 543.82 486.51C538.23 457.69 560.82 431.85 590.6 435.36C597.5 436.18 605.08 442.09 609.88 447.76C624.88 465.4 638.58 484.06 652.88 502.27C655.733 506.227 659.642 509.3 664.16 511.14C663.76 505.78 663.86 500.32 662.87 495.07C658.8 473.65 654.32 452.31 650.15 430.91C646.69 413.19 650.64 405.43 666.87 397.91C674.14 394.54 681.49 391.35 688.87 388.28C705.42 381.4 717.13 387.6 720.19 405.01C730.27 462.424 740.293 519.84 750.26 577.26C753.013 593.027 755.74 608.807 758.44 624.6C760.81 638.36 755.44 647.51 742.69 653.43C704.42 671.18 704.46 671.43 677.85 638.5C664.97 622.58 652.33 606.5 639.52 590.5C636.88 587.2 633.95 584.14 631.16 580.98L627.28 582.84Z" fill="black"/>
<path d="M732.87 947.491C736.87 939.811 739.02 935.751 741.07 931.641C752.8 908.141 764.58 884.641 776.17 861.111C782.33 848.581 791.6 844.171 805.6 846.671C844.91 853.671 846.28 854.221 847.93 893.671C850.68 959.501 852.77 1025.36 854.93 1091.21C855.56 1110.66 846.4 1118.06 827.39 1114.3C822.15 1113.3 816.94 1112.06 811.74 1110.83C786.55 1104.9 783.26 1100.83 783.08 1074.34C782.92 1050.34 783.08 1026.45 783.08 1002.51L779.23 1001.2C777.23 1004.01 774.88 1006.61 773.39 1009.65C762.76 1031.21 752.46 1052.93 741.75 1074.45C734.21 1089.61 727.17 1092.84 710.37 1089.66C704.69 1088.59 699.03 1087.33 693.37 1086.03C677.87 1082.46 672.42 1075.93 671.76 1060.2C670.76 1035.73 669.76 1011.27 668.66 986.801C668.55 984.291 667.89 981.801 666.75 974.881C662.66 981.571 660.28 984.761 658.62 988.291C649.18 1008.44 639.95 1028.69 630.62 1048.87C622.62 1066 614.92 1069.69 596.52 1065.49C590.44 1064.1 584.29 1063.05 578.23 1061.62C557.67 1056.79 552.55 1046.39 561.68 1027.62C588.347 972.781 615.053 917.961 641.8 863.161C646.67 853.161 651.38 843.071 656.47 833.161C661.79 822.841 670.36 818.561 681.92 820.581C682.35 820.661 682.8 820.721 683.24 820.791C723.91 827.261 726.55 830.381 727.87 872.101C728.54 893.011 729.43 913.921 730.36 934.831C730.4 937.651 731.39 940.431 732.87 947.491Z" fill="black"/>
<path d="M979.33 834.709C981.33 810.079 983.78 785.469 985.15 760.809C986.57 735.289 991.57 729.169 1017.08 725.379C1047.31 720.899 1049.22 721.969 1061.24 749.959C1069.49 769.169 1077.71 788.389 1086.04 807.569C1087.55 811.363 1090.43 814.456 1094.1 816.239C1094.85 805.026 1095.6 793.809 1096.33 782.589C1097.47 765.279 1098.57 747.959 1099.82 730.649C1099.97 727.988 1100.55 725.369 1101.53 722.889C1107.64 708.119 1153.53 697.259 1164.69 708.809C1168.97 713.239 1171.58 721.619 1171.12 727.909C1167.12 782.489 1162.28 837.009 1157.69 891.539C1156.28 908.399 1155.19 925.279 1153.37 942.089C1151.45 959.939 1145.86 965.029 1128.61 968.089C1093.61 974.199 1090.61 977.979 1073.98 938.329C1065.54 918.219 1056.52 898.329 1047.68 878.419C1046.22 874.768 1043.57 871.714 1040.16 869.749C1037.95 892.082 1035.74 914.416 1033.55 936.749C1032.55 946.489 1031.62 956.229 1030.55 965.949C1030.4 968.176 1029.9 970.365 1029.08 972.439C1019.84 992.699 999.77 987.579 983.69 991.099C972.06 993.639 964.09 986.659 959.64 976.279C930.693 908.792 901.86 841.252 873.14 773.659C867.68 760.789 872.75 750.659 886.51 747.049C897.671 744.002 909.084 741.964 920.61 740.959C932.2 740.079 939.54 747.319 943.76 757.709C952.793 779.969 961.793 802.236 970.76 824.509C972.22 828.109 973.88 831.619 975.45 835.179L979.33 834.709Z" fill="black"/>
<path d="M801 504.89C801.72 466.17 820.08 431 860.17 409.26C897.76 388.89 936.39 384.49 974.04 409.13C983.88 415.57 992.4 424.65 999.92 433.82C1008.35 444.11 1006.19 455.36 995.3 462.57C986.79 468.19 977.93 474.64 968.3 476.82C960.82 478.52 949.79 476.82 944.14 472.09C927.87 458.48 911.89 456.94 893.63 466.37C875.72 475.62 869.86 491.45 871.24 509.82C873.57 540.97 888.78 565.58 914.18 583.3C928.34 593.18 944.27 594.8 959.44 585.17C975.37 575.04 981.06 559.85 978 541.35C977.36 537.403 976.492 533.496 975.4 529.65C972.56 519.65 975.85 511.99 984.24 506.65C992.13 501.65 1000.34 497.16 1008.61 492.82C1021.61 486.01 1032.48 489.28 1037.9 502.94C1050.76 535.37 1052.67 568.03 1035.52 599.7C1027.58 614.451 1016.49 627.278 1003.05 637.276C989.609 647.274 974.134 654.198 957.722 657.56C941.31 660.922 924.359 660.64 908.068 656.733C891.777 652.826 876.542 645.39 863.44 634.95C826.78 605.82 801.95 556.61 801 504.89Z" fill="black"/>
</g>
<defs>
<clipPath id="clip0_26_2">
<rect width="1587.2" height="1470.56" fill="white"/>
</clipPath>
</defs>
</svg>
