<svg id="Layer_1" data-name="Layer 1" xmlns="http://www.w3.org/2000/svg" viewBox="0 0 927.5 1404.01"><path d="M440.67,1272.51c2.8-9.57,9.95-14.17,19-16.42,6.68-1.65,13.44-3,20.83-4.64-2.33-12.74-4.73-25.15-6.86-37.61-3.77-22.15,3.51-29.34,25.79-25.73,1.28.21,2.58.38,4.93.73,0-6.61-.3-12.67.06-18.7,1-16.36,8.37-23.25,24.59-21.82a126.87,126.87,0,0,1,25.91,5.26c6.24,1.91,10.84,6.91,8.21,14.07s-8.47,7.45-15.23,5.49-13.95-3-22.55-4.72c0,7.6-.05,13.87,0,20.13.19,18.66-8.54,26.92-26.52,21.1a26.85,26.85,0,0,0-4.49-.46c1.27,7.36,2.39,14.29,3.67,21.19,1,5.18,2.15,10.31,3.17,15.48,3.33,17-1.17,23.7-18,26.85-6.2,1.17-12.38,2.48-20.48,4.11,6.91,8.48,12.89,15.9,19,23.22,2.48,3,5.32,5.66,7.83,8.61,9.62,11.3,8.4,18.26-5.9,26.72,9.05,5.25,17.25,10.44,25.86,14.86,5.59,2.87,9.75,6.24,7.06,12.78-2.58,6.26-8.49,7.68-14,4.76-13.15-7-26.3-14.24-38.61-22.62-8.39-5.72-8-15.06-.66-22.15,1.75-1.71,3.75-3.16,4.5-3.79-9.21-14.14-18.19-27.92-27.18-41.7Z" transform="translate(-440.67 -126.44)"/><path d="M632,1530.45c-13.38-5.64-21-17.61-29.64-28.16-1.76-2.15-.72-9.35,1.55-11.31s8.91-2,11.53,0c5.65,4.21,10,10.24,15.41,16.18,11.25-13,22.19-8.79,33.49-.55,4.93-9.78,9.19-19,14.19-27.79,2.38-4.2,5.57-8.52,9.51-11,2.48-1.56,7.82-1,10.42.74,2.26,1.53,4.32,7,3.28,9.18-7.82,16.41-16.37,32.48-24.91,48.54-.94,1.78-3.24,2.84-4.91,4.24h-8.31l-15.31-9.85-14.63,9.85Z" transform="translate(-440.67 -126.44)"/><path d="M940.22,1097.09c-13.79,19.88-26,37.63-38.36,55.3-24.24,34.67-56.14,61.1-91.25,83.9-39.94,25.94-80,51.74-120.37,77-11.46,7.17-14.83,15-12.09,28.57a147.69,147.69,0,0,1,2.21,43.65c-1.08,10.57-6.14,21.22-11.33,30.81-15.78,29.16-59.3,29.52-78.1,4.06-14-19-20.07-40.6-24.71-62.86-5.24-25.13-7.24-50.41-.73-75.81,5.59-21.76,17.48-38.61,34.6-53.31,42-36.07,83.14-73.24,124.36-110.26,7-6.26,12.7-13.9,18.91-21,29.69-33.82,37.66-73.14,29-116.46-4-20.38-8.46-40.7-13.08-61a118.57,118.57,0,0,1,7.51-76.37c2.12-4.78,1.72-8.05-.77-12.79a56,56,0,0,1-6.4-21.14c-4.39-58.48-3.77-116.86,5.37-174.95,0-.24-.17-.52-.7-2-2.07,2.73-3.88,4.85-5.39,7.17-27.84,42.7-55.76,85.35-83.36,128.2-7.13,11.09-13.61,22.64-19.71,34.34-8.43,16.19-18.19,31.55-33.5,41.67a80.71,80.71,0,0,1-29.47,12c-14.64,2.63-28.28-7.79-34.4-23.36a70.57,70.57,0,0,1,1.43-56c17.45-37.8,24.37-79.17,42.57-116.68,33.75-69.55,75.58-133.6,127.23-191,31.8-35.34,72.83-55.37,118.85-65.57,4-.89,8.26-.82,12.4-1s8.21,0,12.81,0c0-15.44.21-30.81-.21-46.16-.07-2.28-2.61-5.13-4.77-6.61-13.3-9.18-26.29-18.65-34.65-32.94-7.68-13.13-6.64-26,3.23-34.94,8.37-7.53,19.91-10.33,31.34-11.5,12.71-1.3,18-7.49,26.11-16.56C922.79,222.15,958,207.73,1000,216.37c48.39,9.94,80.07,57.7,71.91,107-.82,5,.37,7.49,4.07,11.05,7.09,6.82,14.07,14.36,18.85,22.86,8.06,14.3,3.38,29.38-11.45,36.49-9,4.32-19.36,6.36-29.35,8-5.63.89-8.68,2.53-11.06,7.76-3.86,8.51-8.77,16.55-12.89,24.16,42.49,22.37,69.07,59.85,93.68,99.19.58.93,1,1.92,1.63,2.85.12.2.46.25,1.28.67,8.07-19.87,15.47-40,24.36-59.42,8.5-18.57,18.62-36.39,27.87-54.62a120.65,120.65,0,0,0,4.86-12.34c7.11-18.87,16.64-36.4,31-50.68,6.58-6.56,14.14-12.7,22.33-17,22.66-11.81,43.66-2,50.08,22.72,5.13,19.8,2.33,39.39-4.79,58-25.63,67-45,136.07-70.1,203.19-8,21.26-15.87,42.64-30.49,60.6-10,12.3-23.35,17.9-38.79,17.14-21.36-1.05-40.42-8.85-57-22.56l-19.63-16.26c-1.72,11.34-3.37,21.51-4.8,31.71-5.87,42-12.73,83.84-28.73,123.58-1.26,3.11.29,8.05,1.89,11.51,28.53,61.61,46.65,126.24,55.29,193.46,5.72,44.53,4.31,88.19-7.6,132.52a1587.36,1587.36,0,0,1-59.42,178c-4,9.91-5.86,20.77-7.81,31.35-2.28,12.39,2.21,23.3,8.68,33.79,6.38,10.34,12.34,21,17.69,31.9,6.29,12.84,7.57,26.61,4.51,40.57-2.81,12.81-13.48,19.1-23.86,23.33-8.51,3.47-18.93,4.14-28.28,3.35-41-3.48-72.42-23.73-96-57.07-17.53-24.85-20.33-51.52-10.41-79.84,9.71-27.71,20.29-55.13,29.22-83.09,15.3-47.94,26.36-96.83,26.43-147.52C943.28,1121.39,941.39,1110.12,940.22,1097.09Zm82.41-695.2c-43.35-5.12-83.64-17-122.93-35.22-6.88,22.47-5.67,43,9.19,61,16.16,19.53,37.55,25.47,62,20.24C996.19,442.46,1011.82,425.84,1022.63,401.89ZM636.72,793.32,587.34,766c-8.57,12.61-13.79,36.53-11.36,51.18,2.95,17.75,13.65,22.71,29.19,13.26C619.57,821.65,628.88,808.44,636.72,793.32Zm622.76-368.43c6.42-17.27,10.8-34,7.83-51.79-2.41-14.45-10.55-18.47-23-11-18.06,10.81-28.26,28-37.45,46.77Z" transform="translate(-440.67 -126.44)"/><path d="M1078.19,168.63c6.56-.8,12.56-1.5,18.55-2.27,21.19-2.72,32.16,7.76,30.44,29.22-.37,4.63-1.12,9.24-1.64,13.43,7.82,3,15.24,5.25,22,8.7,9.5,4.81,12.15,11,9.84,21.27-2.25,10-4.92,19.87-7.5,29.77-1.5,5.72-5,9.69-11.23,8.75-6.9-1-10-6.22-9.09-12.7a122.86,122.86,0,0,1,5.33-22.57c2.2-6.38-.22-8.67-5.83-9.7-4.08-.74-8.21-1.31-12.24-2.28-10.7-2.58-14.94-9.32-13.27-20.26,1.1-7.23,1.85-14.52,2.9-22.89-10,.9-18.15,1.78-26.34,2.36-16.38,1.16-21.2-2.81-23.84-19.24-.47-2.94-1.09-5.85-1.77-9.49-7.43,2.57-14.14,4.91-20.86,7.2-13.16,4.5-18.38,2.59-25.82-8.88-2.66-4.1-5.9-7.83-9.92-13.08-5.75,6.25-11,11.43-15.59,17.08-3.85,4.7-8.08,7.14-13.53,3.56-5.29-3.47-6.34-9.25-2.44-13.72,7.37-8.45,15.23-16.7,24-23.67,6.29-5,13.75-2.62,19.92,2.23,2.6,2,5.85,3.94,7.28,6.69,5.53,10.68,12.86,9.16,22.35,5.56,25.45-9.66,31.51-5.93,36.95,20.66C1077.07,165.43,1077.5,166.45,1078.19,168.63Z" transform="translate(-440.67 -126.44)"/><path d="M566.58,1208.16c1,6.79,1.81,11.64,2.56,16.5,2.68,17.49-4.69,24.27-21.42,19.71-1.59-.44-3.21-.79-6.26-1.53,1.22,8.72,2.35,16.78,3.48,24.84,1.93,13.91-1.32,19.17-14.35,23.52,5.34,5.86,11.78,11.17,15.85,17.92,3.77,6.25-.16,11.6-12.31,19.81,3.16,1,5.65,1.77,8.16,2.51,5.12,1.5,8.48,4.68,7.7,10.21-.83,5.89-5.7,9.26-10.77,8-9.58-2.3-19.29-5.29-27.94-9.88-7.92-4.21-7.46-13.55-.24-20.39,2.78-2.63,6-4.79,9.25-7.35-5.58-5.14-11.14-10-16.35-15.18-4.84-4.81-9-10.3-6.26-17.68,2.89-7.82,10.05-8.71,17.08-9.39,2.7-.26,5.42-.36,8.85-.58-1.19-8.9-2.31-17.3-3.44-25.69-2.54-18.89,3.82-25.16,22.74-22.38,1.05.16,2.12.22,4.18.42-1.18-6.89-2.48-13.29-3.35-19.74-2-14.58,6.91-21.93,20.45-16.79,8.53,3.24,16.93,6.85,25.25,10.6a26.14,26.14,0,0,1,8.19,5.51c4.29,4.55,5,10,.82,15s-9.19,4.82-14.71,1.12C578.85,1214,573.31,1211.68,566.58,1208.16Z" transform="translate(-440.67 -126.44)"/><path d="M1278.93,553.69c3.55,8.55,8,15.86,9.43,23.71,1.35,7.19-5.39,11-18.48,12,2.62,4.49,5.26,8.53,7.4,12.82,4.88,9.76,2,17.25-8.21,21.29-9.51,3.78-19.09,7.38-28.65,11-6,2.27-11.34,1.33-14.19-4.62s-.49-11.14,5.17-14c7.35-3.71,15.06-6.68,23.51-10.36-3.2-3.89-6.19-7.39-9-11-10.25-13.07-6.5-23.16,9.63-26,1.56-.28,3.13-.48,4.77-.73-12.19-32.42-11.41-34.7,12.15-36.52-8.92-21.25-8.39-22,26-33.62-3.85-4.63-7.73-8.76-11-13.35-2.14-3.06-4.6-6.8-4.55-10.2,0-2.84,3-7.19,5.6-8,3-.95,8.12.08,10.26,2.27a281.77,281.77,0,0,1,21,24.61c6.89,9,4.66,16.74-5.84,21.15-6.3,2.65-12.93,4.51-20.11,7,3.29,3.72,7.06,6.57,8.84,10.37,2.06,4.35,4.43,10.46,2.82,14.1s-7.66,6.42-12.29,7.81C1288.93,554.71,1283.93,553.69,1278.93,553.69Z" transform="translate(-440.67 -126.44)"/><path d="M492.9,702.36c4.11,7.41,8.19,12.9,10.2,19.07,1.36,4.18,1.49,10.62-.89,13.65s-8.5,4-13.08,4.24-9.2-1.75-13.86-2.29c-7-.81-13.62-2.27-13.76-11.09-.09-6,5.47-9.09,15.66-9-4.28-8.15-12.49-15.51-6.39-25.58,5.65-9.34,15.7-9.15,26.3-10.24-2.48-3.77-4.64-7-6.79-10.32-8.75-13.34-4.36-23.64,11.47-26.29,5.68-.94,11.5-1,18.08-1.57-1.24-2.78-2.31-5.23-3.43-7.67-6.51-14.16-.71-22.94,14.71-22.38,4.94.18,9.9,0,16.41,0-1.58-4.2-2.76-7.7-4.21-11.09-2.66-6.23-.73-11.07,4.93-14,5.94-3.05,11.41-.81,13.9,4.9a98.17,98.17,0,0,1,7.13,22.83c1.55,9.28-5.4,16.64-15.5,18-4.32.58-8.68.81-13.6,1.26,1.63,4.2,3.05,7.46,4.16,10.81,4.14,12.42-1.79,20.33-14.76,19.8-5.23-.22-10.46-.46-17.19-.76,3.1,5.15,5.71,9.16,8,13.34,8,14.42,2.62,23.89-13.7,24.3C502.63,702.44,498.55,702.36,492.9,702.36Z" transform="translate(-440.67 -126.44)"/><path d="M1080.45,787.17c4.69,3.24,9.1,6,13.23,9.18,14.83,11.33,15.16,16.9,3,28.4,5,5.94,13,11.29,14,17.79,1,5.9-5.53,13-9,20.25,3.21,1.71,8.6,4.25,13.65,7.35,11.86,7.27,12.68,16.68,2.43,26.27-2.82,2.64-5.85,5.05-9.56,8.24,3.9,2.62,7.53,4.9,11,7.41,6.8,4.93,8.8,11,5.53,16.24-3.4,5.43-9.24,6-16.73,1.42-5.9-3.61-11.87-7.15-17.43-11.24-11.43-8.41-11.56-17.48-.73-26.36,2.55-2.09,5.13-4.15,9-7.28-4.4-1.65-7.77-3-11.2-4.19-3.66-1.26-7.54-2-11-3.59-9.71-4.54-11.46-13.75-4-21.62,3.36-3.56,7.42-6.45,11.73-10.12-5.69-1.83-11.2-2.56-15.43-5.29-3.77-2.43-8-6.84-8.51-10.8-.41-3.49,3.59-8.12,6.68-11.2s7.27-4.63,12.24-7.62c-6.55-3.75-12.08-6.74-17.43-10-12.22-7.51-12.26-17.35-.13-25,4.67-3,9.51-5.64,14.22-8.55,4.94-3,9.61-3.08,13.19,1.79s1.84,9.46-2.17,13.29C1085.09,783.74,1082.83,785.28,1080.45,787.17Z" transform="translate(-440.67 -126.44)"/><path d="M1077.82,1331.91c-5-5.65-9.86-10.88-14.46-16.34-9-10.66-5.4-20.1,8.48-22.53,3.24-.57,6.53-.85,11.28-1.45-3.67-4-6.78-7.19-9.72-10.55-9.7-11-7.8-19.06,5.86-24.81,3-1.28,6.13-2.44,10.22-4.07-4.45-3.19-8.31-5.63-11.78-8.53-7.59-6.35-7.13-14.71,1.41-19.74,6.42-3.78,13.3-6.79,20.06-10,4.95-2.32,9.45-1.3,12.31,3.38,3.2,5.23,1,9.57-3.5,12.93-2.15,1.62-4.54,2.93-6.9,4.43,6.69,6.89,21,9.65,16.42,21.38-3,7.65-13.23,12.46-21.59,19.74,2.79,2.33,7.21,5.32,10.77,9.13,10.16,10.87,7,21.31-7.41,25.33-3.11.87-6.27,1.52-10.17,2.45,5,5.24,9.6,9.62,13.68,14.45,9.1,10.76,5.63,21.07-8.08,23.86-14.37,2.93-28.82,5.48-43.24,8.15-6.49,1.2-12-.36-13.68-7.35s2.43-11.22,8.72-12.85C1056.63,1336.35,1066.92,1334.33,1077.82,1331.91Z" transform="translate(-440.67 -126.44)"/><path d="M622.85,493.9c-1.14-9.55-4.56-18.91-2.67-27,2.58-11.05,14.62-8.29,22-9.52-.91-10.05-4.65-20.55-1.94-29,3.77-11.68,16.44-6.43,26.68-7-1.92-4.39-3.74-8.23-5.32-12.17-4.48-11.19.92-20.18,12.9-21.16,3.83-.31,7.73.26,11.59.5s7.66.57,12,.9c.53-4.83.83-9.47,1.6-14,1-6,4.88-9.62,10.88-9.26s9.63,4.61,9.67,10.56a127.84,127.84,0,0,1-1.44,22.31c-1.62,9.44-8.6,13.82-18.28,12.62-4.59-.58-9.19-1.2-14.52-1.89,2.36,9.69,10.78,19.49,1.87,26.92-6.24,5.21-16.2,6-24.5,8.7,9.11,26.41,4.69,33.3-21.28,34,1.21,6.74,2.95,13.36,3.51,20.08,1.16,13.94-5,19.06-18.5,15.72A116.25,116.25,0,0,1,611.36,510c-5.3-2.14-9.29-5.88-7-12.17s7.62-7.39,13.68-5.48C619.62,492.85,621.17,493.36,622.85,493.9Z" transform="translate(-440.67 -126.44)"/><path d="M1345.61,534.17c2.9,7.61,5.63,14.24,8,21,5,14.47.93,20.93-14.12,22.78-1.89.23-3.8.32-6.69.56,2.16,5.3,4.23,10,6,14.76,5.09,13.92-.86,21.65-15.56,20.39-1.87-.16-3.76,0-6.22,0-1.13,10.68-2,21.13-3.47,31.49-.57,3.92-1.81,8.56-4.45,11.1-2.18,2.1-7.91,3.25-10.2,1.82-3.16-2-6.19-6.66-6.38-10.34-.38-7.37,1.33-14.84,1.92-22.29.44-5.5,1.06-11.09.54-16.53-1.16-12.3,2.34-16.74,14.78-17.42,1.3-.07,2.59-.24,4.42-.42-1.67-9.09-12.19-15.45-7.22-25.53s15.06-7.37,24.91-8.95c-2.34-5.32-4.33-10.27-6.65-15.05-8.84-18.18-4.18-26.35,16-27.89,1.1-.09,2.19-.23,4.91-.51-4.38-6.85-8.13-13.12-12.29-19.1-3.55-5.09-5.37-10.23,0-14.75,5.88-4.94,11.21-1.92,14.9,3.24a242.54,242.54,0,0,1,16.19,25.05c7.29,13.39,2.12,23.24-12.84,25.84C1350.17,533.73,1348.25,533.86,1345.61,534.17Z" transform="translate(-440.67 -126.44)"/><path d="M1040,204.58c-30.09,10.12-30.09,10.12-43.06-12.42-2.63,3-4.61,7-7.77,8.53-3.39,1.68-9.13,2.86-11.54,1.11s-4.23-8.62-2.74-11.16a89,89,0,0,1,15.88-20c6.3-5.87,14.5-3.78,20,3.82a63.63,63.63,0,0,1,4.47,7.95c1.27,2.39,2.44,4.84,3.21,6.39,9.93-2.4,19.25-6.7,28.4-6.37,11.54.42,13.32,11.5,15,21.4,9.56.55,20-3.31,27.47,5.36,7,8.13,4.9,17.64,3.16,27.31,4.76,1.21,9.37,2,13.71,3.58,11,3.92,15.68,11.41,12.74,22.68-2.42,9.3-6.21,18.34-10.19,27.13-2.76,6.08-8,9.77-14.9,6.33s-6.73-9.25-3.85-15.62,5.51-13.18,8.82-21.18c-6.28-.56-11.36-.92-16.42-1.49-11.62-1.31-16.32-8.62-12.91-19.81,1.25-4.12,2.32-8.29,3.33-11.89-8.88,0-17.38,1.58-25-.39C1037.44,223.17,1042,212.45,1040,204.58Z" transform="translate(-440.67 -126.44)"/><path d="M672.13,890.18c-4.24-3.35-7.81-5.91-11.09-8.8-7.54-6.66-8.25-14.81-.89-21.6,13-12,26.56-23.49,40.07-35,4.76-4.05,10.24-4.93,14.62.57,4.17,5.25,1.66,9.84-2.59,13.82L680.4,869c2.56,2.76,5.35,5.33,7.64,8.29,7.94,10.27,7.57,18.89-1.5,28.12-5,5.11-10.6,9.66-16.74,15.2,3.83,1.89,7.12,3.55,10.44,5.14,11,5.25,13.06,12.51,6.23,22.73-3.38,5.06-7.11,9.89-11,15.31,8.77,7.09,17.59,14,26.16,21.22,9.06,7.63,10.75,13.39,6,18.7s-11,4.21-19.78-2.84-17.84-14-27-20.8c-10.29-7.63-11.78-14.8-4.69-25.51,2.71-4.1,5.68-8,8.6-12.14-4.5-2.9-8.58-5.26-12.37-8-10-7.24-10.81-15.53-2-24.38C657,903.39,664.22,897.36,672.13,890.18Z" transform="translate(-440.67 -126.44)"/><path d="M1145.93,878.82,1132.67,869c-11.09-8.26-11.52-16.83-1.27-26,2.63-2.35,5.38-4.56,8.28-7-7.37-3.87-14.67-6.73-20.83-11.18s-5.51-10.17.86-20.24c-5.28-3.81-10.63-7.64-16-11.51-13.71-10-13.92-18-.69-28.91a113,113,0,0,1,10-7.49c4.87-3.16,9.76-2.69,13.29,2,3.67,4.84,2.07,9.38-2.29,13.12-2.09,1.8-4.22,3.55-7.46,6.27l18.94,12.22c10.61,6.85,12.16,11,9.18,20.74,6.77,7.62,14.92,13.48,18.27,21.38,4.23,10-5.11,16.31-11.67,21.79,5.91,7.23,13.44,13.35,16.74,21.25,4.16,10-5.42,16.33-13.41,25.67,5.58,4.52,11.38,8.77,16.62,13.61,4.69,4.33,7,9.9,1.91,15.33s-11.27,4.13-16.23-.47a246.75,246.75,0,0,1-18.52-19.06c-6.46-7.45-6.31-14.74-.25-22.6C1140.32,885,1142.79,882.44,1145.93,878.82Z" transform="translate(-440.67 -126.44)"/><path d="M1151.64,1317.63c5.26,4.39,9.75,7.67,13.68,11.52,8.74,8.55,8.45,19.11-2,25.11-12.66,7.31-26.15,13.24-39.57,19.08-5.76,2.5-11.26.16-13.75-5.84-2.63-6.3.6-10.73,6.3-13.38,9.49-4.43,19.07-8.65,29.63-13.41-5-4.24-9.31-7.52-13.19-11.25-10.9-10.48-9.54-20.49,3.7-28,3.1-1.76,6.38-3.19,12.62-6.28-5.06-4-9.18-7.12-13.13-10.42-13.33-11.17-11.67-21.21,4.46-27.44l6.71-2.59c-5.18-4.63-9.74-8.41-14-12.55-5.18-5.09-9.26-10.78-4.46-18.29,3.63-5.69,17.41-10.11,23.26-7.76,7.12,2.88,7.67,9.11.55,18.86,4.36,3.85,9.32,7.52,13.4,12,10.1,11,8.09,19.81-5.48,25.78-1,.44-2,.92-2.49,1.16,4.57,8.42,11.48,16.26,12.93,25C1172.8,1310.33,1161.06,1313.25,1151.64,1317.63Z" transform="translate(-440.67 -126.44)"/><path d="M560.06,695.07c9.33,24.27,7.72,27-21.85,35.73-.13.51-.49,1.1-.34,1.5,7.55,20,4,26.52-16.82,30.84-4.34.9-8.73,1.59-13,2.57-6.08,1.37-10.71-.52-12.41-6.55-1.76-6.27,2-10.1,7.62-11.81s11.21-2.77,16.88-4.14c-9.05-24.38-9.05-24.38,20.5-35.48-1.73-8-6.54-17-4.22-23.5,2.19-6.11,11.86-9.54,19.13-14.8.23.41-.68-1.12-1.49-2.7-5.19-10.11-2.42-18.86,8.71-21.19,10.38-2.16,12.51-7.56,11.65-16.61a84.31,84.31,0,0,1,.12-14.12c.42-5.5,3.31-10.66,8.91-10,4,.48,10.74,4.79,10.87,7.64.61,13.4.51,27.09-1.85,40.22-.83,4.64-8.79,8-12.65,11.24-.6,6.43.76,14.34-2.4,19.45S566.48,691,560.06,695.07Z" transform="translate(-440.67 -126.44)"/><path d="M717.26,932.69c-26.32-17-26.49-17.94-8.61-36.81-3.92-4.85-10.13-9.21-10.8-14.29-.7-5.41,2.89-12.15,6.31-17.15,5.58-8.19,11.79-16.28,19.19-22.75,4.19-3.67,11.2-4.92,17.09-5.41,2.13-.18,6.15,4.78,6.65,7.84.42,2.55-2.38,7.37-4.88,8.37-11.05,4.42-15,14.76-21.81,22.92,22.32,14,22.54,15.91,4.33,36.14,7,5.53,20.24,7.55,18.1,18.66-1.59,8.27-9.66,15.3-15.47,23.79,4.08,3.21,9.63,7.1,14.6,11.63s10,9,13.24,14.52c1.58,2.74.31,9.34-2.09,11.52s-9.09,2.69-11.66.83c-12.29-8.89-24.1-18.53-35.54-28.53-6.44-5.64-6.42-13.24-.67-20C708.61,940,712.85,936.77,717.26,932.69Z" transform="translate(-440.67 -126.44)"/><path d="M722.82,447.46c-1.45,25.48-3.74,28.25-24.46,29.65,0,3.4,0,6.88,0,10.36,0,12.76-4.26,18.94-16.51,20.88-6.6,1-7.19,4.1-8,9.75-.77,5.12-3.71,12.64-7.51,14a40.36,40.36,0,0,1-22.39.69c-6.41-1.64-5.73-11.75.65-15.31,2.79-1.56,6.2-2,10.17-3.25-3-16.74,6.24-24.14,21.49-25.35.55-9.25-.59-18.25,1.95-26,3.35-10.25,14-7.47,21.9-7.83.58-1.1,1-1.57,1.06-2.05.48-22.44,3.08-25.14,24.8-27.53,2.18-.24,5.1-3.35,5.78-5.68,1.63-5.53,1.73-11.49,3.17-17.09,1.55-6,5.65-9.9,12.2-8.62s8.86,6.2,8,12.52C754,415.06,753,423.6,751.34,432c-1.84,9.26-7.07,13.52-16.69,14.57C730.85,447,727,447.15,722.82,447.46Z" transform="translate(-440.67 -126.44)"/><path d="M802.56,1390.19c-2.39-2.42-4.17-4.15-5.87-6-8.38-9-8.15-18.33,1.71-25.62,10.44-7.73,21.51-14.62,32.49-21.58,5.58-3.54,11.49-3.52,15.2,2.62s0,10.1-5.23,13.52c-9,5.83-17.64,12.13-26.49,18.28,16.81,18.39,16.78,20.07-1,37.92-2.73,2.74-5.93,5-9.75,8.2,5.12,4,9.06,6.87,12.71,10.06,3.1,2.71,6.95,5.33,8.46,8.86,1.38,3.23,1.57,9.07-.43,11.1-2.38,2.43-9,4.11-11.41,2.51a200.89,200.89,0,0,1-28.41-22.66c-6-5.84-4.14-13.41,1.26-19.48S796.78,1396.3,802.56,1390.19Z" transform="translate(-440.67 -126.44)"/><path d="M843.77,1390.19c-13.82-9.08-14.66-16.77-3.29-27.71,6.17-5.93,12.84-11.38,19.55-16.71,5.31-4.21,11.08-4.44,15.15,1.53s1.3,10.67-4.41,14.47c-4.32,2.86-8.06,6.6-12.68,10.47,7.89,5.32,13.53,11.6,8.52,20.77-3.81,7-9,13.15-14.14,20.39,6.12,3.94,12.65,7.81,18.79,12.24,3.28,2.37,7.23,5.24,8.39,8.71s.63,9.43-1.7,11.7-8.73,3-11.67,1.37a337.17,337.17,0,0,1-31.37-20.18c-9.24-6.57-10-14.58-2.89-23.5C835.62,1399.23,839.58,1395,843.77,1390.19Z" transform="translate(-440.67 -126.44)"/><path d="M655.08,1462.3c2.59-5.92,4.84-11.54,7.47-17,3.59-7.44,9.5-10.3,15.24-7.74S685,1446,681.68,1454c-2.56,6.13-5.17,12.25-8,18.27-6.84,14.7-13.62,16.88-27.5,9l-7.8-4.48c-10.56,13.1-15.76,13.36-27.12,1.21a107.91,107.91,0,0,1-11-13.42c-3.31-4.94-3.07-10.3,2.18-13.92,5.53-3.82,9.88-1.17,13.4,3.66,1.45,2,3.08,3.81,5,6.16C633.18,1441.58,643.59,1457.48,655.08,1462.3Z" transform="translate(-440.67 -126.44)"/></svg>