<svg id="Layer_1" data-name="Layer 1" xmlns="http://www.w3.org/2000/svg" viewBox="0 0 1054.84 1072.43"><defs><style>.cls-1{fill:#ffff3c;}</style></defs><path class="cls-1" d="M248.91,150.3a73.21,73.21,0,0,1,20,3.41c23.38,7.23,39.51,22.32,49.13,44.64,1.26,2.9,2.34,5.88,3.48,8.83,3.38,8.68,8.93,15.24,17.51,19.35,7.52,3.6,15.18,6.93,21.73,12.44,13.19,11.06,12.6,33.89,1.59,45.93a79.82,79.82,0,0,1-18,14.86c-2.62,1.56-3.49,3.2-3.13,6.29,1.64,14.1,1.93,28.23-.51,42.29-.7,4,1.41,4.43,4.64,5,32.76,6,63.32,16.61,86.65,42.1,12.94,14.13,22.6,30.54,31.55,47.27,23.21,43.39,40.8,89,50.46,137.36,5,25.12,4.25,50.67,1.1,76.12q-1.22,9.72-3.19,19.26c-.52,2.52-.07,4.29,2.09,5.77,11.87,8.12,19.38,20,26.65,31.89,12.12,19.86,23.47,40.2,35.77,60,8.84,14.2,18.72,27.77,28.09,41.65q29.85,44.22,57.15,90c15.92,26.72,31.63,53.6,43.26,82.52,8.15,20.24,12.33,41.26,8.77,63.32-2.18,13.5-9.19,24.31-18.1,34-15.45,16.81-32.78,31.58-53.1,42.12-12.37,6.41-25.85,9.56-39.94,5-12.7-4.06-19.78-13.24-21.79-25.9a120.52,120.52,0,0,1,3.45-52.47c2.25-7.85,1.18-10.8-6.34-16.57-13.59-10.43-26.58-21.57-39.34-33-18.73-16.73-37.29-33.64-57-49.23-12.55-9.92-26-18.75-37.79-29.59-4.75-4.38-8.33-8.81-13.42-13.37-3.18-3.94-6.69-7.41-11.62-9.29-4.53-1.73-7.76-.93-10.44,3.3-15.64,24.68-32.51,48.6-46,74.58-11.36,21.82-25.54,42-37.74,63.21-19.33,33.62-40,66.33-62.27,98-7,10-11.72,21.1-18.4,31.1-15.5,23.17-37.82,36.07-64.51,42.69-13.75,3.41-27.47,6.78-41.6,7.33-15.25.59-30.57,0-45-5.76-13.3-5.31-22.51-18.2-21.28-28.6,1.26-10.59,6.09-19.36,13-27.25,8.34-9.51,18.73-16.49,29-23.5,11.81-8,19.79-18.33,25.1-31.76q26.46-67,47.78-135.79c2.42-7.82,6.88-22.63,8.91-30.56,10.27-26,14-46.78,23.42-73.31,6.81-19.11,12.59-39.66,17.83-59.82,8-30.79,12.56-62.37,21.29-93,3.88-13.59,8.09-27.09,12.33-40.58,1.52-4.82,1.69-9.25-.53-14q-19.17-41.28-38-82.7c-14.41-31.5-27.95-63.37-38.91-96.24-5.59-16.75-11.34-33.52-14.4-51-3.26-18.63-2.43-37,3.63-55a26.17,26.17,0,0,1,5.21-9.19c3.64-4,3.86-7.8,1.3-12.64-5.7-10.78-7.1-22.75-7.5-34.66-.26-7.68-2.48-12.45-10.28-14.93-7.06-2.25-13.49-6.25-19.5-10.72-15.41-11.45-15.33-29.33.15-40.75a34.61,34.61,0,0,1,13.06-6.11c4.18-.92,5.13-3.25,5.19-7.15.22-13.49,1.9-27,7.6-39.2,12.56-27,32.26-45.08,63.4-47.62M309,330.1c0-4.28,0-8.56,0-12.84,0-2.67-1.07-3.75-3.86-2.76a80.86,80.86,0,0,1-9.59,2.92,194.9,194.9,0,0,1-85.61-.74c-4.19-.95-5.42.43-4.38,4.06,2.51,8.74,4.46,17.76,9,25.72,8.21,14.25,18.46,26.09,35.86,29.3,8.9,1.64,18,2.12,26.62.53,15.61-2.88,28.65-9,30.81-27.88C308.63,342.28,309,336.22,309,330.1ZM413.35,789.53a61.38,61.38,0,0,0,2.25,19.58c4.33,13.13,21.44,23.06,34,17.49,16-7.1,26.6-19.36,31.84-36.05,2.37-7.52.85-10.22-6.06-13.9-16.68-8.89-35.28-12.65-52.62-19.78-2.25-.93-3.47-.09-4.05,2.22C416.19,769,413.7,778.87,413.35,789.53Z" transform="translate(-71.3 -150.3)"/><path d="M660.08,150.3a73.22,73.22,0,0,1,20,3.41c23.38,7.23,39.51,22.32,49.13,44.64,1.25,2.9,2.34,5.88,3.48,8.83,3.38,8.68,8.93,15.24,17.51,19.35,7.52,3.6,15.18,6.93,21.73,12.44,13.18,11.06,12.59,33.89,1.59,45.93a79.82,79.82,0,0,1-18,14.86c-2.62,1.56-3.49,3.2-3.13,6.29,1.64,14.1,1.93,28.23-.51,42.29-.7,4,1.41,4.43,4.64,5,32.76,6,63.32,16.61,86.65,42.1,12.94,14.13,22.6,30.54,31.55,47.27,23.21,43.39,40.8,89,50.45,137.36,5,25.12,4.26,50.67,1.1,76.12q-1.2,9.72-3.18,19.26c-.52,2.52-.07,4.29,2.09,5.77,11.86,8.12,19.38,20,26.65,31.89,12.12,19.86,23.47,40.2,35.77,60,8.84,14.2,18.72,27.77,28.09,41.65q29.85,44.22,57.15,90c15.92,26.72,31.62,53.6,43.26,82.52,8.15,20.24,12.33,41.26,8.77,63.32-2.18,13.5-9.19,24.31-18.1,34-15.45,16.81-32.78,31.58-53.1,42.12-12.37,6.41-25.85,9.56-40,5-12.69-4.06-19.77-13.24-21.78-25.9a120.52,120.52,0,0,1,3.45-52.47c2.24-7.85,1.18-10.8-6.34-16.57-13.59-10.43-26.58-21.57-39.34-33-18.73-16.73-37.3-33.64-57-49.23-12.55-9.92-26-18.75-37.79-29.59-4.75-4.38-8.33-8.81-13.42-13.37-3.18-3.94-6.69-7.41-11.62-9.29-4.53-1.73-7.76-.93-10.44,3.3-15.64,24.68-32.51,48.6-46,74.58-11.35,21.82-25.53,42-37.73,63.21-19.33,33.62-40,66.33-62.27,98-7,10-11.72,21.1-18.4,31.1-15.5,23.17-37.82,36.07-64.51,42.69-13.75,3.41-27.47,6.78-41.61,7.33-15.24.59-30.56,0-45-5.76-13.31-5.31-22.51-18.2-21.28-28.6,1.26-10.59,6.09-19.36,13-27.25,8.33-9.51,18.73-16.49,29-23.5,11.81-8,19.79-18.33,25.09-31.76q26.48-67,47.79-135.79c2.42-7.82,6.88-22.63,8.91-30.56,10.27-26,14-46.78,23.42-73.31,6.81-19.11,12.59-39.66,17.83-59.82,8-30.79,12.56-62.37,21.29-93,3.88-13.59,8.09-27.09,12.33-40.58,1.51-4.82,1.69-9.25-.53-14q-19.17-41.28-38-82.7c-14.42-31.5-28-63.37-38.91-96.24-5.59-16.75-11.34-33.52-14.4-51-3.26-18.63-2.43-37,3.63-55a26.17,26.17,0,0,1,5.21-9.19c3.64-4,3.86-7.8,1.3-12.64-5.7-10.78-7.1-22.75-7.5-34.66-.26-7.68-2.49-12.45-10.28-14.93-7.06-2.25-13.49-6.25-19.51-10.72-15.4-11.45-15.32-29.33.15-40.75a34.65,34.65,0,0,1,13.07-6.11c4.17-.92,5.12-3.25,5.19-7.15.22-13.49,1.89-27,7.59-39.2,12.57-27,32.27-45.08,63.4-47.62M720.22,330.1c0-4.28,0-8.56,0-12.84,0-2.67-1.06-3.75-3.85-2.76a80.86,80.86,0,0,1-9.59,2.92c-28.58,6.23-57.15,5.72-85.62-.74-4.18-.95-5.42.43-4.37,4.06,2.51,8.74,4.46,17.76,9,25.72,8.2,14.25,18.46,26.09,35.86,29.3,8.9,1.64,18,2.12,26.62.53,15.61-2.88,28.64-9,30.81-27.88C719.81,342.28,720.12,336.22,720.22,330.1ZM824.53,789.53a61.38,61.38,0,0,0,2.25,19.58c4.33,13.13,21.44,23.06,34,17.49,16-7.1,26.6-19.36,31.84-36.05,2.36-7.52.85-10.22-6.06-13.9-16.68-8.89-35.28-12.65-52.62-19.78-2.25-.93-3.47-.09-4.06,2.22C827.36,769,824.88,778.87,824.53,789.53Z" transform="translate(-71.3 -150.3)"/></svg>